<svg width="500" height="342" viewBox="0 0 500 342" fill="none" xmlns="http://www.w3.org/2000/svg">
<g clip-path="url(#clip0_542_631)">
<g opacity="0.2">
<path d="M500 296.7H0V296.9H500V296.7Z" fill="#EBEBEB"/>
<path d="M449.9 312.8H394.7V313H449.9V312.8Z" fill="#EBEBEB"/>
<path d="M330.5 307.6H321.8V307.8H330.5V307.6Z" fill="#EBEBEB"/>
<path d="M391.7 303.5H372.5V303.7H391.7V303.5Z" fill="#EBEBEB"/>
<path d="M95.7 305.2H52.5V305.4H95.7V305.2Z" fill="#EBEBEB"/>
<path d="M261 311.7H215.3V311.9H261V311.7Z" fill="#EBEBEB"/>
<path d="M234.2 307.4H140.5V307.6H234.2V307.4Z" fill="#EBEBEB"/>
<path d="M339.6 39.1H273.2V116H339.6V39.1Z" fill="#E6E6E6"/>
<path d="M344.2 39.1H274.2V116H344.2V39.1Z" fill="#F0F0F0"/>
<path d="M338.2 45H280V110.2H338.2V45Z" fill="white"/>
<path d="M323.3 92.2999H308.2C300.6 92.2999 294.4 86.0999 294.4 78.4999V63.3999C294.4 63.0999 294.7 62.7999 295 62.7999H310.1C317.7 62.7999 323.9 68.9999 323.9 76.5999V91.6999C323.9 92.0999 323.6 92.2999 323.3 92.2999ZM295.5 63.9999V78.5999C295.5 85.5999 301.2 91.2999 308.2 91.2999H322.8V76.6999C322.8 69.6999 317.1 63.9999 310.1 63.9999H295.5Z" fill="#F0F0F0"/>
<path d="M435.4 67.9999H359.4L366.1 12.2999H428.6L435.4 67.9999Z" fill="#EBEBEB"/>
<path d="M372 68H370.8V89.4H372V68Z" fill="#E0E0E0"/>
<path d="M371.4 90.8999C372.228 90.8999 372.9 90.2283 372.9 89.3999C372.9 88.5715 372.228 87.8999 371.4 87.8999C370.571 87.8999 369.9 88.5715 369.9 89.3999C369.9 90.2283 370.571 90.8999 371.4 90.8999Z" fill="#E0E0E0"/>
<path d="M418.7 67.9999H405.6L402.9 12.2999H414.9L418.7 67.9999Z" fill="#F5F5F5"/>
<path d="M401.2 68H393.6V296.7H401.2V68Z" fill="#F0F0F0"/>
<path d="M409.4 296.7H385.3C385.3 293.9 387.6 291.6 390.4 291.6H404.2C407.1 291.6 409.4 293.9 409.4 296.7Z" fill="#F0F0F0"/>
<path d="M401.2 68H393.6V72.6H401.2V68Z" fill="#E0E0E0"/>
<path d="M388.6 188.7C388 188.7 387.4 188.7 386.8 188.8C372.4 189.8 361.5 202.3 362.5 216.7C362.6 218.4 362.9 220.1 363.3 221.7C366.2 232.8 367.5 244.3 367.4 255.8V289.3C367.4 291.7 369.4 293.7 371.8 293.7H443.8V188.7H388.6Z" fill="#F0F0F0"/>
<path d="M470 214.8C470 200.4 458.3 188.6 443.8 188.6C429.4 188.6 417.6 200.3 417.6 214.8C417.6 217.1 417.9 219.4 418.5 221.6C421.4 232.7 422.7 244.2 422.6 255.7V289.2C422.6 291.6 424.6 293.6 427 293.6H460.5C462.9 293.6 464.9 291.6 464.9 289.2V253.8C464.8 243 466.1 232.3 468.9 221.9C469.6 219.5 470 217.2 470 214.8Z" fill="#F5F5F5"/>
<path d="M430.6 229.9H311.3V293.6H430.6V229.9Z" fill="#F0F0F0"/>
<path d="M355.8 146.4H267.8C257.9 146.2 249.8 154.1 249.6 164C249.6 164.7 249.6 165.5 249.7 166.2L256.4 244.2H384L377.3 166.2C376.2 155.1 367 146.6 355.8 146.4Z" fill="#E0E0E0"/>
<path d="M381.7 146.4H291.8C282.4 146.2 274.7 153.7 274.5 163.1C274.5 163.8 274.5 164.6 274.6 165.3L281.4 244.3H409L402.2 165.3C401.2 154.7 392.3 146.6 381.7 146.4Z" fill="#F5F5F5"/>
<path d="M313.3 224H428.6C432.2 224 435.1 226.9 435.1 230.5V243.3C435.1 246.9 432.2 249.8 428.6 249.8H313.3C312.2 249.8 311.3 248.9 311.3 247.8V225.8C311.3 224.9 312.2 224 313.3 224Z" fill="#E0E0E0"/>
<path d="M247.1 188.7C246.5 188.7 245.9 188.7 245.3 188.8C230.9 189.8 220 202.3 221 216.7C221.1 218.4 221.4 220 221.8 221.7C224.7 232.8 226 244.3 225.9 255.8V289.3C225.9 291.7 227.9 293.7 230.3 293.7H302.3V188.7H247.1Z" fill="#F0F0F0"/>
<path d="M328.4 214.8C328.4 200.4 316.6 188.7 302.2 188.7C287.8 188.7 276.1 200.5 276.1 214.9C276.1 217.1 276.4 219.4 277 221.5C279.9 232.6 281.2 244.1 281.1 255.6V289.1C281.1 291.5 283.1 293.5 285.5 293.5H319C321.4 293.5 323.4 291.5 323.4 289.1V253.7C323.3 242.9 324.7 232.2 327.5 221.8C328.1 219.5 328.4 217.2 328.4 214.8Z" fill="#F5F5F5"/>
<path d="M430.5 296.7H248.9C247.1 296.7 245.7 295.3 245.7 293.5H433.7C433.7 295.3 432.3 296.7 430.5 296.7Z" fill="#E0E0E0"/>
<path d="M68.0001 4.19995H46.1001V296.8H68.0001V4.19995Z" fill="#E6E6E6"/>
<path d="M260.4 4.19995H68V296.8H260.4V4.19995Z" fill="#F5F5F5"/>
<path d="M256.8 8.5H71.6001V296.8H256.8V8.5Z" fill="#E6E6E6"/>
<path d="M87.1001 8.5H71.6001V296.8H87.1001V8.5Z" fill="#E0E0E0"/>
<path d="M258.7 241H71.6001V245.3H258.7V241Z" fill="#F5F5F5"/>
<path d="M258.7 180.6H71.6001V184.9H258.7V180.6Z" fill="#F5F5F5"/>
<path d="M258.7 120.2H71.6001V124.5H258.7V120.2Z" fill="#F5F5F5"/>
<path d="M258.7 59.7999H71.6001V64.0999H258.7V59.7999Z" fill="#F5F5F5"/>
<path d="M115.9 18.7999H88.1001V59.7999H115.9V18.7999Z" fill="#FAFAFA"/>
<path d="M113.6 18.7999H118.9C119.7 18.7999 120.4 19.4999 120.4 20.2999V58.2999C120.4 59.0999 119.7 59.7999 118.9 59.7999H113.6C112.8 59.7999 112.1 59.0999 112.1 58.2999V20.2999C112.1 19.4999 112.7 18.7999 113.6 18.7999Z" fill="#F0F0F0"/>
<path d="M106.5 18.7999H78.7002V59.7999H106.5V18.7999Z" fill="#FAFAFA"/>
<path d="M104.2 18.7999H109.5C110.3 18.7999 111 19.4999 111 20.2999V58.2999C111 59.0999 110.3 59.7999 109.5 59.7999H104.2C103.4 59.7999 102.7 59.0999 102.7 58.2999V20.2999C102.7 19.4999 103.4 18.7999 104.2 18.7999Z" fill="#E6E6E6"/>
<path d="M71.6001 18.7999H95.6001L93.7001 59.7999H71.6001V18.7999Z" fill="#FAFAFA"/>
<path d="M98.7 18.7999H93.1C92.3 18.8999 91.6 19.5999 91.6 20.4999L89.8 58.1999C89.7 58.9999 90.3 59.6999 91.1 59.8999C91.1 59.8999 91.1 59.8999 91.2 59.8999H96.8C97.6 59.7999 98.3 59.0999 98.3 58.1999L100.1 20.4999C100.2 19.6999 99.6 18.8999 98.7 18.7999C98.8 18.7999 98.8 18.7999 98.7 18.7999Z" fill="#F0F0F0"/>
<path d="M237.9 25.2H216.8V59.7999H237.9V25.2Z" fill="#FAFAFA"/>
<path d="M236.2 25.2H240.1C240.8 25.2 241.3 25.7 241.3 26.4V58.5999C241.3 59.2999 240.8 59.7999 240.1 59.7999H236.2C235.5 59.7999 235 59.2999 235 58.5999V26.4C235 25.7 235.5 25.2 236.2 25.2Z" fill="#F0F0F0"/>
<path d="M230.8 25.2H209.7V59.7999H230.8V25.2Z" fill="#FAFAFA"/>
<path d="M229.1 25.2H233C233.7 25.2 234.2 25.7 234.2 26.4V58.5999C234.2 59.2999 233.7 59.7999 233 59.7999H229.1C228.4 59.7999 227.9 59.2999 227.9 58.5999V26.4C227.9 25.7 228.4 25.2 229.1 25.2Z" fill="#E6E6E6"/>
<path d="M204.3 25.2H222.5L221.1 59.7999H204.3V25.2Z" fill="#FAFAFA"/>
<path d="M224.9 25.2H220.7C220.1 25.2 219.6 25.8 219.6 26.6L218.3 58.4C218.3 59.2 218.7 59.7999 219.3 59.7999H223.6C224.2 59.7999 224.7 59.2 224.7 58.4L226 26.6C225.9 25.8 225.4 25.2 224.9 25.2Z" fill="#F0F0F0"/>
<path d="M210.7 25.2H189.6V59.7999H210.7V25.2Z" fill="#FAFAFA"/>
<path d="M209 25.2H212.9C213.6 25.2 214.1 25.7 214.1 26.4V58.5999C214.1 59.2999 213.6 59.7999 212.9 59.7999H209C208.3 59.7999 207.8 59.2999 207.8 58.5999V26.4C207.8 25.7 208.3 25.2 209 25.2Z" fill="#F0F0F0"/>
<path d="M203.6 25.2H182.5V59.7999H203.6V25.2Z" fill="#FAFAFA"/>
<path d="M201.9 25.2H205.8C206.5 25.2 207 25.7 207 26.4V58.5999C207 59.2999 206.5 59.7999 205.8 59.7999H201.9C201.2 59.7999 200.7 59.2999 200.7 58.5999V26.4C200.7 25.7 201.2 25.2 201.9 25.2Z" fill="#E6E6E6"/>
<path d="M177.1 25.2H195.3L193.9 59.7999H177.1V25.2Z" fill="#FAFAFA"/>
<path d="M197.7 25.2H193.4C192.8 25.2 192.3 25.8 192.3 26.6L191 58.4C191 59.2 191.4 59.7999 192 59.7999H196.2C196.8 59.7999 197.3 59.2 197.3 58.4L198.6 26.6C198.7 25.8 198.2 25.2 197.7 25.2Z" fill="#F0F0F0"/>
<path d="M164.6 22.6H149.9V59.8H164.6V22.6Z" fill="#FAFAFA"/>
<path d="M163.6 22.6H165.9C166.5 22.6 167 23.1 167 23.7V58.8C167 59.4 166.5 59.9 165.9 59.9H163.6C163 59.9 162.5 59.4 162.5 58.8V23.7C162.5 23.1 163 22.6 163.6 22.6Z" fill="#F0F0F0"/>
<path d="M153.8 18.7999H137.6V59.7999H153.8V18.7999Z" fill="#FAFAFA"/>
<path d="M152.7 18.7999H155.3C155.9 18.7999 156.5 19.2999 156.5 19.9999V58.6999C156.5 59.2999 156 59.8999 155.3 59.8999H152.7C152.1 59.8999 151.5 59.3999 151.5 58.6999V19.9999C151.6 19.2999 152.1 18.7999 152.7 18.7999Z" fill="#F5F5F5"/>
<path d="M133.5 18.7999H147.4L146.3 59.7999H133.5V18.7999Z" fill="#FAFAFA"/>
<path d="M149.3 18.7999H146C145.6 18.7999 145.2 19.4999 145.1 20.4999L144.1 58.1999C144.1 59.0999 144.4 59.8999 144.9 59.8999H148.2C148.6 59.8999 149 59.0999 149.1 58.1999L150.1 20.4999C150 19.4999 149.7 18.7999 149.3 18.7999Z" fill="#F0F0F0"/>
<path d="M190 79.2H162.2V120.2H190V79.2Z" fill="#FAFAFA"/>
<path d="M187.7 79.2H193C193.8 79.2 194.5 79.9 194.5 80.7V118.7C194.5 119.5 193.8 120.2 193 120.2H187.7C186.9 120.2 186.2 119.5 186.2 118.7V80.7C186.1 79.9 186.8 79.2 187.7 79.2Z" fill="#F0F0F0"/>
<path d="M180.6 79.2H152.8V120.2H180.6V79.2Z" fill="#FAFAFA"/>
<path d="M178.3 79.2H183.6C184.4 79.2 185.1 79.9 185.1 80.7V118.7C185.1 119.5 184.4 120.2 183.6 120.2H178.3C177.5 120.2 176.8 119.5 176.8 118.7V80.7C176.8 79.9 177.5 79.2 178.3 79.2Z" fill="#E6E6E6"/>
<path d="M145.7 79.2H169.7L167.8 120.2H145.7V79.2Z" fill="#FAFAFA"/>
<path d="M172.8 79.2H167.2C166.4 79.3 165.7 80 165.7 80.9L163.9 118.6C163.8 119.4 164.3 120.1 165.1 120.3C165.1 120.3 165.1 120.3 165.2 120.3H170.8C171.6 120.2 172.3 119.5 172.3 118.6L174.1 80.9C174.2 80.1 173.7 79.3 172.8 79.2C172.9 79.2 172.9 79.2 172.8 79.2Z" fill="#F0F0F0"/>
<path d="M222 85.6H204.9V120.2H222V85.6Z" fill="#FAFAFA"/>
<path d="M220.6 85.6H223.6C224.2 85.6 224.7 86.1 224.7 86.7V119.2C224.7 119.8 224.2 120.3 223.6 120.3H220.6C220 120.3 219.5 119.8 219.5 119.2V86.7C219.5 86.1 220 85.6 220.6 85.6Z" fill="#F0F0F0"/>
<path d="M216.2 85.6H199.1V120.2H216.2V85.6Z" fill="#FAFAFA"/>
<path d="M214.9 85.6H217.9C218.5 85.6 219 86.1 219 86.7V119.2C219 119.8 218.5 120.3 217.9 120.3H214.9C214.3 120.3 213.8 119.8 213.8 119.2V86.7C213.8 86.1 214.3 85.6 214.9 85.6Z" fill="#E6E6E6"/>
<path d="M194.8 85.6H209.5L208.3 120.2H194.8V85.6Z" fill="#FAFAFA"/>
<path d="M211.4 85.6H208C207.5 85.6 207.1 86.2 207.1 87L206 118.8C206 119.6 206.3 120.2 206.8 120.2H210.2C210.7 120.2 211.1 119.6 211.1 118.8L212.2 87C212.2 86.2 211.9 85.6 211.4 85.6Z" fill="#F0F0F0"/>
<path d="M247.4 91.6H233.3V120.3H247.4V91.6Z" fill="#FAFAFA"/>
<path d="M246.4 91.5H248.9C249.4 91.5 249.8 91.9 249.8 92.4V119.3C249.8 119.8 249.4 120.2 248.9 120.2H246.4C245.9 120.2 245.5 119.8 245.5 119.3V92.4C245.5 91.9 245.9 91.5 246.4 91.5Z" fill="#F0F0F0"/>
<path d="M242.7 91.6H228.6V120.3H242.7V91.6Z" fill="#FAFAFA"/>
<path d="M241.6 91.5H244.1C244.6 91.5 245 91.9 245 92.4V119.3C245 119.8 244.6 120.2 244.1 120.2H241.6C241.1 120.2 240.7 119.8 240.7 119.3V92.4C240.7 91.9 241.1 91.5 241.6 91.5Z" fill="#E6E6E6"/>
<path d="M224.9 91.5H237.1L236.2 120.2H224.9V91.5Z" fill="#FAFAFA"/>
<path d="M238.7 91.5H235.8C235.4 91.5 235.1 92 235.1 92.7L234.2 119.1C234.2 119.7 234.5 120.3 234.9 120.3H237.8C238.2 120.3 238.5 119.8 238.5 119.1L239.4 92.7C239.4 92.1 239.1 91.5 238.7 91.5Z" fill="#F0F0F0"/>
<path d="M138.7 85.6H117.6V120.2H138.7V85.6Z" fill="#FAFAFA"/>
<path d="M137 85.6H140.9C141.6 85.6 142.1 86.1 142.1 86.8V119C142.1 119.7 141.6 120.2 140.9 120.2H137C136.3 120.2 135.8 119.7 135.8 119V86.8C135.8 86.1 136.3 85.6 137 85.6Z" fill="#F0F0F0"/>
<path d="M131.6 85.6H110.5V120.2H131.6V85.6Z" fill="#FAFAFA"/>
<path d="M129.9 85.6H133.8C134.5 85.6 135 86.1 135 86.8V119C135 119.7 134.5 120.2 133.8 120.2H129.9C129.2 120.2 128.7 119.7 128.7 119V86.8C128.6 86.1 129.2 85.6 129.9 85.6Z" fill="#E6E6E6"/>
<path d="M105.1 85.6H123.3L121.9 120.2H105.1V85.6Z" fill="#FAFAFA"/>
<path d="M125.7 85.6H121.5C120.8 85.7 120.3 86.3 120.4 87L119.1 118.8C119.1 119.6 119.5 120.2 120.1 120.2H124.3C125 120.1 125.5 119.5 125.4 118.8L126.7 87C126.7 86.2 126.2 85.6 125.7 85.6Z" fill="#F0F0F0"/>
<path d="M102.7 83H88V120.2H102.7V83Z" fill="#FAFAFA"/>
<path d="M101.7 83H104C104.6 83 105.1 83.5 105.1 84.1V119.2C105.1 119.8 104.6 120.3 104 120.3H101.7C101.1 120.3 100.6 119.8 100.6 119.2V84.1C100.7 83.5 101.1 83 101.7 83Z" fill="#F0F0F0"/>
<path d="M91.9998 79.2H75.7998V120.2H91.9998V79.2Z" fill="#FAFAFA"/>
<path d="M90.9002 79.2H93.5002C94.1002 79.2 94.7002 79.7 94.7002 80.4V119.1C94.7002 119.7 94.2002 120.3 93.5002 120.3H90.9002C90.3002 120.3 89.7002 119.8 89.7002 119.1V80.4C89.7002 79.7 90.2002 79.2 90.9002 79.2Z" fill="#F5F5F5"/>
<path d="M71.6001 79.2H85.6001L84.5001 120.2H71.6001V79.2Z" fill="#FAFAFA"/>
<path d="M87.3998 79.2H84.0998C83.6998 79.2 83.2998 79.9 83.2998 80.9L82.2998 118.6C82.2998 119.5 82.5998 120.3 83.0998 120.3H86.2998C86.6998 120.3 87.0998 119.5 87.0998 118.6L88.0998 80.9C88.1998 79.9 87.8998 79.2 87.3998 79.2Z" fill="#F0F0F0"/>
<path d="M115.9 139.6H88.1001V180.6H115.9V139.6Z" fill="#FAFAFA"/>
<path d="M113.6 139.6H118.9C119.7 139.6 120.4 140.3 120.4 141.1V179.1C120.4 179.9 119.7 180.6 118.9 180.6H113.6C112.8 180.6 112.1 179.9 112.1 179.1V141.1C112.1 140.3 112.7 139.6 113.6 139.6Z" fill="#F0F0F0"/>
<path d="M106.5 139.6H78.7002V180.6H106.5V139.6Z" fill="#FAFAFA"/>
<path d="M104.2 139.6H109.5C110.3 139.6 111 140.3 111 141.1V179.1C111 179.9 110.3 180.6 109.5 180.6H104.2C103.4 180.6 102.7 179.9 102.7 179.1V141.1C102.7 140.3 103.4 139.6 104.2 139.6Z" fill="#E6E6E6"/>
<path d="M71.6001 139.6H95.6001L93.7001 180.6H71.6001V139.6Z" fill="#FAFAFA"/>
<path d="M98.7001 139.6H93.1001C92.3001 139.7 91.6001 140.4 91.6001 141.3L89.9001 179C89.8001 179.8 90.4001 180.5 91.2001 180.7C91.2001 180.7 91.2001 180.7 91.3001 180.7H96.9001C97.7001 180.6 98.4001 179.9 98.4001 179L100.2 141.3C100.2 140.5 99.6001 139.7 98.7001 139.6C98.8001 139.6 98.8001 139.6 98.7001 139.6Z" fill="#F0F0F0"/>
<path d="M237.9 146H216.8V180.6H237.9V146Z" fill="#FAFAFA"/>
<path d="M236.2 146H240.1C240.8 146 241.3 146.5 241.3 147.2V179.4C241.3 180.1 240.8 180.6 240.1 180.6H236.2C235.5 180.6 235 180.1 235 179.4V147.2C235 146.5 235.5 146 236.2 146Z" fill="#F0F0F0"/>
<path d="M230.8 146H209.7V180.6H230.8V146Z" fill="#FAFAFA"/>
<path d="M229.1 146H233C233.7 146 234.2 146.5 234.2 147.2V179.4C234.2 180.1 233.7 180.6 233 180.6H229.1C228.4 180.6 227.9 180.1 227.9 179.4V147.2C227.9 146.5 228.4 146 229.1 146Z" fill="#E6E6E6"/>
<path d="M204.3 146H222.5L221.1 180.6H204.3V146Z" fill="#FAFAFA"/>
<path d="M224.9 146H220.7C220.1 146 219.6 146.6 219.6 147.4L218.3 179.2C218.3 180 218.7 180.6 219.3 180.6H223.6C224.2 180.6 224.7 180 224.7 179.2L226 147.4C225.9 146.6 225.4 146 224.9 146Z" fill="#F0F0F0"/>
<path d="M210.7 146H189.6V180.6H210.7V146Z" fill="#FAFAFA"/>
<path d="M209 146H212.9C213.6 146 214.1 146.5 214.1 147.2V179.4C214.1 180.1 213.6 180.6 212.9 180.6H209C208.3 180.6 207.8 180.1 207.8 179.4V147.2C207.8 146.5 208.3 146 209 146Z" fill="#F0F0F0"/>
<path d="M203.6 146H182.5V180.6H203.6V146Z" fill="#FAFAFA"/>
<path d="M201.9 146H205.8C206.5 146 207 146.5 207 147.2V179.4C207 180.1 206.5 180.6 205.8 180.6H201.9C201.2 180.6 200.7 180.1 200.7 179.4V147.2C200.7 146.5 201.2 146 201.9 146Z" fill="#E6E6E6"/>
<path d="M177.1 146H195.3L193.9 180.6H177.1V146Z" fill="#FAFAFA"/>
<path d="M197.7 146H193.4C192.8 146 192.3 146.6 192.3 147.4L191 179.2C191 180 191.4 180.6 192 180.6H196.2C196.8 180.6 197.3 180 197.3 179.2L198.6 147.4C198.7 146.6 198.2 146 197.7 146Z" fill="#F0F0F0"/>
<path d="M164.6 143.4H149.9V180.6H164.6V143.4Z" fill="#FAFAFA"/>
<path d="M163.6 143.4H165.9C166.5 143.4 167 143.9 167 144.5V179.6C167 180.2 166.5 180.6 165.9 180.6H163.6C163 180.6 162.5 180.1 162.5 179.6V144.5C162.5 143.9 163 143.4 163.6 143.4Z" fill="#F0F0F0"/>
<path d="M153.8 139.6H137.6V180.6H153.8V139.6Z" fill="#FAFAFA"/>
<path d="M152.7 139.6H155.3C155.9 139.6 156.5 140.1 156.5 140.8V179.5C156.5 180.1 156 180.7 155.3 180.7H152.7C152.1 180.7 151.5 180.2 151.5 179.5V140.8C151.6 140.1 152.1 139.6 152.7 139.6Z" fill="#F5F5F5"/>
<path d="M133.5 139.6H147.4L146.3 180.6H133.5V139.6Z" fill="#FAFAFA"/>
<path d="M149.3 139.6H146C145.6 139.6 145.2 140.3 145.1 141.3L144.1 179C144.1 179.9 144.4 180.7 144.9 180.7H148.2C148.6 180.7 149 179.9 149.1 179L150.1 141.3C150 140.3 149.7 139.6 149.3 139.6Z" fill="#F0F0F0"/>
<path d="M100 255.7H82.2002V296.7H100V255.7Z" fill="#FAFAFA"/>
<path d="M98.7 255.7H101.7C102.4 255.7 102.9 256.2 102.9 256.9V295.5C102.9 296.2 102.4 296.7 101.7 296.7H98.7C98 296.7 97.5 296.2 97.5 295.5V256.9C97.5 256.2 98.1 255.7 98.7 255.7Z" fill="#F0F0F0"/>
<path d="M94.0002 255.7H76.2002V296.7H94.0002V255.7Z" fill="#FAFAFA"/>
<path d="M92.7 255.7H95.7C96.4 255.7 96.9 256.2 96.9 256.9V295.5C96.9 296.2 96.4 296.7 95.7 296.7H92.7C92 296.7 91.5 296.2 91.5 295.5V256.9C91.5 256.2 92.1 255.7 92.7 255.7Z" fill="#E6E6E6"/>
<path d="M71.6001 255.7H87.0001L85.8001 296.7H71.6001V255.7Z" fill="#FAFAFA"/>
<path d="M88.9999 255.7H85.3999C84.8999 255.7 84.4999 256.4 84.4999 257.4L83.3999 295.1C83.3999 296 83.6999 296.8 84.1999 296.8H87.7999C88.2999 296.8 88.6999 296.1 88.6999 295.1L89.7999 257.4C89.8999 256.4 89.4999 255.7 88.9999 255.7Z" fill="#F0F0F0"/>
<path d="M250 262.1H231.4V296.7H250V262.1Z" fill="#FAFAFA"/>
<path d="M248.5 262.1H251.8C252.4 262.1 252.9 262.6 252.9 263.2V295.6C252.9 296.2 252.4 296.7 251.8 296.7H248.5C247.9 296.7 247.4 296.2 247.4 295.6V263.2C247.4 262.6 247.9 262.1 248.5 262.1Z" fill="#F0F0F0"/>
<path d="M243.7 262.1H225.1V296.7H243.7V262.1Z" fill="#FAFAFA"/>
<path d="M242.2 262.1H245.5C246.1 262.1 246.6 262.6 246.6 263.2V295.6C246.6 296.2 246.1 296.7 245.5 296.7H242.2C241.6 296.7 241.1 296.2 241.1 295.6V263.2C241.1 262.6 241.6 262.1 242.2 262.1Z" fill="#E6E6E6"/>
<path d="M220.3 262.1H236.4L235.1 296.7H220.3V262.1Z" fill="#FAFAFA"/>
<path d="M238.5 262.1H234.7C234.2 262.1 233.7 262.7 233.7 263.5L232.5 295.3C232.5 296.1 232.9 296.7 233.4 296.7H237.2C237.7 296.7 238.1 296.1 238.2 295.3L239.4 263.5C239.4 262.7 239 262.1 238.5 262.1Z" fill="#F0F0F0"/>
<path d="M226 262.1H207.4V296.7H226V262.1Z" fill="#FAFAFA"/>
<path d="M224.5 262.1H227.8C228.4 262.1 228.9 262.6 228.9 263.2V295.6C228.9 296.2 228.4 296.7 227.8 296.7H224.5C223.9 296.7 223.4 296.2 223.4 295.6V263.2C223.4 262.6 223.9 262.1 224.5 262.1Z" fill="#F0F0F0"/>
<path d="M219.7 262.1H201.1V296.7H219.7V262.1Z" fill="#FAFAFA"/>
<path d="M218.2 262.1H221.5C222.1 262.1 222.6 262.6 222.6 263.2V295.6C222.6 296.2 222.1 296.7 221.5 296.7H218.2C217.6 296.7 217.1 296.2 217.1 295.6V263.2C217.1 262.6 217.6 262.1 218.2 262.1Z" fill="#E6E6E6"/>
<path d="M196.4 262.1H212.4L211.1 296.7H196.4V262.1Z" fill="#FAFAFA"/>
<path d="M214.5 262.1H210.7C210.2 262.1 209.8 262.7 209.7 263.5L208.6 295.3C208.6 296.1 209 296.7 209.5 296.7H213.3C213.8 296.7 214.3 296.1 214.3 295.3L215.5 263.5C215.4 262.7 215 262.1 214.5 262.1Z" fill="#F0F0F0"/>
<path d="M201.3 259.5H188.3V296.7H201.3V259.5Z" fill="#FAFAFA"/>
<path d="M200.4 259.5H202.3C202.9 259.5 203.3 259.9 203.3 260.5V295.8C203.3 296.4 202.9 296.8 202.3 296.8H200.4C199.8 296.8 199.4 296.4 199.4 295.8V260.5C199.4 259.9 199.9 259.5 200.4 259.5Z" fill="#F0F0F0"/>
<path d="M191.8 255.7H177.5V296.7H191.8V255.7Z" fill="#FAFAFA"/>
<path d="M190.9 255.7H193C193.6 255.7 194.1 256.2 194.1 256.8V295.7C194.1 296.3 193.6 296.8 193 296.8H190.9C190.3 296.8 189.8 296.3 189.8 295.7V256.8C189.8 256.2 190.3 255.7 190.9 255.7Z" fill="#F5F5F5"/>
<path d="M173.8 255.7H186.2L185.2 296.7H173.8V255.7Z" fill="#FAFAFA"/>
<path d="M187.8 255.7H184.9C184.5 255.7 184.2 256.4 184.1 257.4L183.2 295.1C183.2 296 183.5 296.8 183.9 296.8H186.8C187.2 296.8 187.5 296.1 187.6 295.1L188.5 257.4C188.4 256.4 188.1 255.7 187.8 255.7Z" fill="#F0F0F0"/>
<path d="M190 200H162.2V241H190V200Z" fill="#FAFAFA"/>
<path d="M187.7 200H193C193.8 200 194.5 200.7 194.5 201.5V239.5C194.5 240.3 193.8 241 193 241H187.7C186.9 241 186.2 240.3 186.2 239.5V201.5C186.1 200.7 186.8 200 187.7 200Z" fill="#F0F0F0"/>
<path d="M180.6 200H152.8V241H180.6V200Z" fill="#FAFAFA"/>
<path d="M178.3 200H183.6C184.4 200 185.1 200.7 185.1 201.5V239.5C185.1 240.3 184.4 241 183.6 241H178.3C177.5 241 176.8 240.3 176.8 239.5V201.5C176.8 200.7 177.5 200 178.3 200Z" fill="#E6E6E6"/>
<path d="M145.7 200H169.7L167.8 241H145.7V200Z" fill="#FAFAFA"/>
<path d="M172.8 200H167.2C166.4 200.1 165.7 200.8 165.7 201.7L163.9 239.4C163.8 240.2 164.3 240.9 165.1 241.1C165.1 241.1 165.1 241.1 165.2 241.1H170.8C171.6 241 172.3 240.3 172.3 239.4L174.1 201.7C174.2 200.9 173.7 200.1 172.8 200C172.9 200 172.9 200 172.8 200Z" fill="#F0F0F0"/>
<path d="M222 206.4H204.9V241H222V206.4Z" fill="#FAFAFA"/>
<path d="M220.6 206.4H223.6C224.2 206.4 224.7 206.9 224.7 207.5V240C224.7 240.6 224.2 241.1 223.6 241.1H220.6C220 241.1 219.5 240.6 219.5 240V207.5C219.5 206.9 220 206.4 220.6 206.4Z" fill="#F0F0F0"/>
<path d="M216.2 206.4H199.1V241H216.2V206.4Z" fill="#FAFAFA"/>
<path d="M214.9 206.4H217.9C218.5 206.4 219 206.9 219 207.5V240C219 240.6 218.5 241.1 217.9 241.1H214.9C214.3 241.1 213.8 240.6 213.8 240V207.5C213.8 206.9 214.3 206.4 214.9 206.4Z" fill="#E6E6E6"/>
<path d="M194.8 206.4H209.5L208.3 241H194.8V206.4Z" fill="#FAFAFA"/>
<path d="M211.4 206.4H208C207.5 206.4 207.1 207 207.1 207.8L206 239.6C206 240.4 206.3 241 206.8 241H210.2C210.7 241 211.1 240.4 211.1 239.6L212.2 207.8C212.2 207 211.9 206.4 211.4 206.4Z" fill="#F0F0F0"/>
<path d="M247.4 212.4H233.3V241.1H247.4V212.4Z" fill="#FAFAFA"/>
<path d="M246.4 212.3H248.9C249.4 212.3 249.8 212.7 249.8 213.2V240.1C249.8 240.6 249.4 241 248.9 241H246.4C245.9 241 245.5 240.6 245.5 240.1V213.2C245.5 212.7 245.9 212.3 246.4 212.3Z" fill="#F0F0F0"/>
<path d="M242.7 212.4H228.6V241.1H242.7V212.4Z" fill="#FAFAFA"/>
<path d="M241.6 212.3H244.1C244.6 212.3 245 212.7 245 213.2V240.1C245 240.6 244.6 241 244.1 241H241.6C241.1 241 240.7 240.6 240.7 240.1V213.2C240.7 212.7 241.1 212.3 241.6 212.3Z" fill="#E6E6E6"/>
<path d="M224.9 212.3H237.1L236.2 241H224.9V212.3Z" fill="#FAFAFA"/>
<path d="M238.7 212.3H235.8C235.4 212.3 235.1 212.8 235.1 213.5L234.2 239.9C234.2 240.5 234.5 241.1 234.9 241.1H237.8C238.2 241.1 238.5 240.6 238.5 239.9L239.4 213.5C239.4 212.9 239.1 212.3 238.7 212.3Z" fill="#F0F0F0"/>
<path d="M138.7 206.4H117.6V241H138.7V206.4Z" fill="#FAFAFA"/>
<path d="M137 206.4H140.9C141.6 206.4 142.1 206.9 142.1 207.6V239.8C142.1 240.5 141.6 241 140.9 241H137C136.3 241 135.8 240.5 135.8 239.8V207.6C135.8 206.9 136.3 206.4 137 206.4Z" fill="#F0F0F0"/>
<path d="M131.6 206.4H110.5V241H131.6V206.4Z" fill="#FAFAFA"/>
<path d="M129.9 206.4H133.8C134.5 206.4 135 206.9 135 207.6V239.8C135 240.5 134.5 241 133.8 241H129.9C129.2 241 128.7 240.5 128.7 239.8V207.6C128.6 206.9 129.2 206.4 129.9 206.4Z" fill="#E6E6E6"/>
<path d="M105.1 206.4H123.3L121.9 241H105.1V206.4Z" fill="#FAFAFA"/>
<path d="M125.7 206.4H121.5C120.8 206.5 120.3 207.1 120.4 207.8L119.1 239.6C119.1 240.4 119.5 241 120.1 241H124.3C125 240.9 125.5 240.3 125.4 239.6L126.7 207.8C126.7 207 126.2 206.4 125.7 206.4Z" fill="#F0F0F0"/>
<path d="M102.7 203.8H88V241H102.7V203.8Z" fill="#FAFAFA"/>
<path d="M101.7 203.8H104C104.6 203.8 105.1 204.3 105.1 204.8V240C105.1 240.6 104.6 241 104 241H101.7C101.1 241 100.6 240.5 100.6 240V204.9C100.7 204.3 101.1 203.8 101.7 203.8Z" fill="#F0F0F0"/>
<path d="M91.9998 200H75.7998V241H91.9998V200Z" fill="#FAFAFA"/>
<path d="M90.9002 200H93.5002C94.1002 200 94.7002 200.5 94.7002 201.2V239.9C94.7002 240.5 94.2002 241.1 93.5002 241.1H90.9002C90.3002 241.1 89.7002 240.6 89.7002 239.9V201.2C89.7002 200.5 90.2002 200 90.9002 200Z" fill="#F5F5F5"/>
<path d="M71.6001 200H85.6001L84.5001 241H71.6001V200Z" fill="#FAFAFA"/>
<path d="M87.3998 200H84.0998C83.6998 200 83.2998 200.8 83.2998 201.7L82.2998 239.4C82.2998 240.3 82.5998 241.1 83.0998 241.1H86.2998C86.6998 241.1 87.0998 240.3 87.0998 239.4L88.0998 201.7C88.1998 200.8 87.8998 200 87.3998 200Z" fill="#F0F0F0"/>
<path d="M174.9 252.4H154.3V296.7H174.9V252.4Z" fill="#FAFAFA"/>
<path d="M173.4 252.4H176.9C177.7 252.4 178.3 253 178.3 253.8V295.4C178.3 296.2 177.7 296.8 176.9 296.8H173.4C172.6 296.8 172 296.2 172 295.4V253.8C172.1 253 172.7 252.4 173.4 252.4Z" fill="#F0F0F0"/>
<path d="M168 252.4H147.4V296.7H168V252.4Z" fill="#FAFAFA"/>
<path d="M166.5 252.4H170C170.8 252.4 171.4 253 171.4 253.8V295.4C171.4 296.2 170.8 296.8 170 296.8H166.5C165.7 296.8 165.1 296.2 165.1 295.4V253.8C165.1 253 165.7 252.4 166.5 252.4Z" fill="#E6E6E6"/>
<path d="M142.1 252.4H159.9L158.5 296.7H142.1V252.4Z" fill="#FAFAFA"/>
<path d="M162.2 252.4H158C157.4 252.4 156.9 253.2 156.9 254.2L155.6 294.9C155.6 295.9 156 296.7 156.6 296.7H160.8C161.4 296.7 161.8 295.9 161.9 294.9L163.2 254.2C163.2 253.2 162.8 252.4 162.2 252.4Z" fill="#F0F0F0"/>
<path d="M141.4 258.1H123.6V296.7H141.4V258.1Z" fill="#FAFAFA"/>
<path d="M140.1 258.1H143.1C143.8 258.1 144.3 258.6 144.3 259.3V295.5C144.3 296.2 143.8 296.7 143.1 296.7H140.1C139.4 296.7 138.9 296.2 138.9 295.5V259.3C138.9 258.7 139.4 258.1 140.1 258.1Z" fill="#F0F0F0"/>
<path d="M135.4 258.1H117.6V296.7H135.4V258.1Z" fill="#FAFAFA"/>
<path d="M134.1 258.1H137.1C137.8 258.1 138.3 258.6 138.3 259.3V295.5C138.3 296.2 137.8 296.7 137.1 296.7H134.1C133.4 296.7 132.9 296.2 132.9 295.5V259.3C132.9 258.7 133.4 258.1 134.1 258.1Z" fill="#E6E6E6"/>
<path d="M113 258.1H128.4L127.2 296.7H113V258.1Z" fill="#FAFAFA"/>
<path d="M130.4 258.1H126.8C126.3 258.1 125.9 258.8 125.9 259.7L124.8 295.2C124.8 296.1 125.1 296.8 125.6 296.8H129.2C129.7 296.8 130.1 296.1 130.1 295.2L131.2 259.7C131.3 258.8 130.9 258.1 130.4 258.1Z" fill="#F0F0F0"/>
</g>
<path d="M250 341.9C357.088 341.9 443.9 336.841 443.9 330.6C443.9 324.359 357.088 319.3 250 319.3C142.912 319.3 56.1001 324.359 56.1001 330.6C56.1001 336.841 142.912 341.9 250 341.9Z" fill="black" fill-opacity="0.15"/>
<path d="M230.1 327.9C230.4 328.9 229.9 330.1 228.8 330.4C228.6 330.5 228.3 330.5 228.1 330.5H88.7997C84.4997 330.5 84.4997 302.2 88.7997 302.2H228.1C229.2 302.1 230.1 303 230.2 304.1C230.2 304.3 230.2 304.6 230.1 304.8C228.4 310.2 228.4 322.6 230.1 327.9Z" fill="#C12453"/>
<path opacity="0.8" d="M229.9 305.5H145.4C142.1 305.5 142.1 327.2 145.4 327.2H229.9C228.5 321.8 228.5 311 229.9 305.5Z" fill="white"/>
<path opacity="0.2" d="M141.2 327.9C141.5 328.9 141 330.1 139.9 330.4C139.7 330.5 139.4 330.5 139.2 330.5H88.7997C84.4997 330.5 84.4997 302.2 88.7997 302.2H139.2C140.3 302.1 141.2 303 141.3 304.1C141.3 304.3 141.3 304.6 141.2 304.8C139.5 310.2 139.5 322.6 141.2 327.9Z" fill="black"/>
<path d="M110.3 302.2H98.7997C94.4997 302.2 94.4997 330.5 98.7997 330.5H110.3C106 330.6 106 302.2 110.3 302.2Z" fill="#D0285A"/>
<path d="M119.4 302.2H114.9C110.6 302.2 110.6 330.5 114.9 330.5H119.4C115 330.6 115 302.2 119.4 302.2Z" fill="#D0285A"/>
<path d="M80.6998 299.9C80.1998 301.1 81.3998 302.3 82.9998 302.3H208.3C213.4 302.3 213.4 276.8 208.3 276.8H82.9998C81.3998 276.8 80.1998 278 80.6998 279.2C82.6998 284 82.6998 295 80.6998 299.9Z" fill="#263238"/>
<path opacity="0.2" d="M80.6998 299.9C80.1998 301.1 81.3998 302.3 82.9998 302.3H144.4C149.5 302.3 149.5 276.8 144.4 276.8H82.9998C81.3998 276.8 80.1998 278 80.6998 279.2C82.6998 284 82.6998 295 80.6998 299.9Z" fill="black"/>
<path opacity="0.8" d="M80.8999 279.7H141.9C145.8 279.7 145.8 299.2 141.9 299.2H80.8999C82.5999 294.3 82.5999 284.6 80.8999 279.7Z" fill="white"/>
<path opacity="0.2" d="M162.2 282.4C161.8 281.3 162.9 280.2 164.4 280.2H199.5C203.2 280.2 203.2 298.8 199.5 298.8H164.4C162.9 298.8 161.8 297.7 162.2 296.6C163.3 292 162.8 287.1 162.2 282.4Z" fill="white"/>
<path d="M415.7 288.5C416.1 289.7 415.4 291 414.2 291.4C414 291.5 413.8 291.5 413.6 291.5H266.5C261.9 291.5 261.9 258.5 266.5 258.5H413.7C415 258.6 416 259.7 415.9 261C415.9 261.2 415.9 261.3 415.8 261.5C413.9 267.9 413.9 282.2 415.7 288.5Z" fill="#FCA644"/>
<path opacity="0.5" d="M415.7 288.5C416.1 289.7 415.4 291 414.2 291.4C414 291.5 413.8 291.5 413.6 291.5H266.5C261.9 291.5 261.9 258.5 266.5 258.5H413.7C415 258.6 416 259.7 415.9 261C415.9 261.2 415.9 261.3 415.8 261.5C413.9 267.9 413.9 282.2 415.7 288.5Z" fill="#ED893E"/>
<path opacity="0.8" d="M415.5 262.4H326.2C322.7 262.4 322.7 287.7 326.2 287.7H415.5C414 281.4 414 268.8 415.5 262.4Z" fill="white"/>
<path opacity="0.6" d="M321.8 288.5C322.2 289.7 321.5 291 320.3 291.4C320.1 291.5 319.9 291.5 319.7 291.5H266.5C261.9 291.5 261.9 258.5 266.5 258.5H319.7C321 258.6 322 259.7 321.9 261C321.9 261.2 321.9 261.3 321.8 261.5C320 267.9 320 282.2 321.8 288.5Z" fill="#FCA644"/>
<path opacity="0.5" d="M300.2 261C300.6 260.1 300.1 259.1 299.2 258.7C299 258.6 298.9 258.6 298.7 258.6H278.4C273.8 258.6 273.8 291.6 278.4 291.6H298.7C299.7 291.5 300.4 290.6 300.3 289.7C300.3 289.5 300.2 289.4 300.2 289.2C298.1 283 298.1 267.1 300.2 261Z" fill="white"/>
<path d="M405.2 326.9C405.6 328.4 404.7 330 403.2 330.4C402.9 330.5 402.6 330.5 402.3 330.5H249.3C242.8 330.5 242.8 291.5 249.3 291.5H402.3C403.9 291.4 405.2 292.6 405.3 294.2C405.3 294.5 405.3 294.8 405.2 295.1C402.6 302.6 402.6 319.5 405.2 326.9Z" fill="#407BFF"/>
<path opacity="0.2" d="M405.2 326.9C405.6 328.4 404.7 330 403.2 330.4C402.9 330.5 402.6 330.5 402.3 330.5H249.3C242.8 330.5 242.8 291.5 249.3 291.5H402.3C403.9 291.4 405.2 292.6 405.3 294.2C405.3 294.5 405.3 294.8 405.2 295.1C402.6 302.6 402.6 319.5 405.2 326.9Z" fill="white"/>
<path opacity="0.8" d="M404.9 296.1H312.4C307.4 296.1 307.4 326 312.4 326H404.9C402.7 318.5 402.7 303.6 404.9 296.1Z" fill="white"/>
<path opacity="0.6" d="M306.1 327C306.5 328.5 305.6 330.1 304.1 330.5C303.8 330.6 303.5 330.6 303.2 330.6H249.3C242.8 330.6 242.8 291.6 249.3 291.6H303.2C304.8 291.5 306.1 292.7 306.2 294.3C306.2 294.6 306.2 294.9 306.1 295.2C303.5 302.6 303.5 319.5 306.1 327Z" fill="#407BFF"/>
<path opacity="0.5" d="M273.8 292.9C274.1 292.5 273.9 291.9 273.5 291.7C273.3 291.6 273.2 291.6 273 291.6H263.9C257.4 291.6 257.4 330.6 263.9 330.6H273.1C273.6 330.6 274 330.3 274.1 329.8C274.1 329.6 274.1 329.4 274 329.3C269.9 323.2 269.9 298.9 273.8 292.9Z" fill="white"/>
<path opacity="0.5" d="M288.1 292.9C288.4 292.5 288.2 291.9 287.8 291.7C287.6 291.6 287.5 291.6 287.3 291.6H278.2C271.7 291.6 271.7 330.6 278.2 330.6H287.3C287.8 330.6 288.2 330.3 288.3 329.8C288.3 329.6 288.3 329.4 288.2 329.3C284.2 323.2 284.2 298.9 288.1 292.9Z" fill="white"/>
<path d="M403.7 237.8C403.5 235 402.9 232.3 401.8 229.7L402.7 229.3C403.8 232 404.5 234.8 404.7 237.7L403.7 237.8Z" fill="#407BFF"/>
<path d="M397.4 225.5H372.6V226.5H397.4V225.5Z" fill="#407BFF"/>
<path d="M235.5 255.9C235 257.3 236.2 258.6 237.9 258.6H397.4C402.8 258.6 402.8 229 397.4 229H237.9C236.2 229 235 230.4 235.5 231.7C237.6 237.3 237.6 250.2 235.5 255.9Z" fill="#49CB91"/>
<path opacity="0.2" d="M235.5 255.9C235 257.3 236.2 258.6 237.9 258.6H329.9C335.3 258.6 335.3 229 329.9 229H237.9C236.2 229 235 230.4 235.5 231.7C237.6 237.3 237.6 250.2 235.5 255.9Z" fill="black"/>
<path opacity="0.8" d="M235.8 232.4H327.3C331.4 232.4 331.4 255.1 327.3 255.1H235.8C237.5 249.4 237.5 238.1 235.8 232.4Z" fill="white"/>
<path opacity="0.2" d="M348.7 235.6C348.3 234.3 349.5 233 351.1 233H388.2C392.1 233 392.1 254.6 388.2 254.6H351C349.4 254.6 348.2 253.3 348.6 252C350 247.8 350 239.7 348.7 235.6Z" fill="white"/>
<path d="M220.6 12.3C216.1 17.1 205.1 12.3 203.4 25.6C201.6 39.9 208.5 46.8 199.6 50.6C185.6 56.5 175.6 79.8 195 88.6C214.4 97.4 255.8 88.2 251.2 70.3C246.6 52.4 247.5 42.8 253 34.4C260.3 23.3 258.7 8.99996 252.8 3.79996C243.5 -4.30004 230.8 1.29996 220.6 12.3Z" fill="#263238"/>
<path d="M244.7 69.8999C244.5 69.8999 244.4 69.7999 244.4 69.5999C244.4 69.3999 244.5 69.2999 244.6 69.2999C248.5 68.7999 250.8 67.7999 251.8 66.2999C253.1 64.3999 252.6 61.5999 251.8 57.9999C250.6 52.1999 249 44.2999 254.2 34.2999C260.5 22.0999 258.2 8.79992 252.3 4.49992C252.2 4.39992 252.1 4.19992 252.2 4.09992C252.3 3.99992 252.5 3.89992 252.6 3.99992C258.8 8.49992 261.1 22.1999 254.7 34.5999C249.6 44.3999 251.2 52.1999 252.4 57.8999C253.2 61.5999 253.8 64.4999 252.3 66.5999C251.1 68.2999 248.7 69.2999 244.7 69.8999Z" fill="#263238"/>
<path d="M194.2 52.4999C193.6 52.4999 192.9 52.4999 192.3 52.3999C192.1 52.3999 192 52.1999 192 52.0999C192 51.8999 192.2 51.7999 192.3 51.7999C195.1 52.1999 197.2 51.6999 198.6 50.4999C201.2 48.1999 201.2 43.3999 201.3 37.8999C201.3 31.5999 201.4 24.4999 205.5 19.6999C205.6 19.5999 205.8 19.4999 205.9 19.6999C206 19.7999 206.1 19.9999 205.9 20.0999C202 24.7999 201.9 31.7999 201.9 37.8999C201.9 43.5999 201.8 48.4999 199 50.9999C197.8 52.0999 196 52.5999 194.2 52.4999Z" fill="#263238"/>
<path d="M292.4 228.9C285.7 228.8 283.1 228.4 280 228.4C276.9 228.4 276.2 229 273 228.9C270.8 228.8 270.8 226.2 271.7 224.5C272.3 223.1 273.2 221.7 273.9 220L282.4 220.6C283.5 223.8 289.2 225.2 294.2 226.3C296.1 226.9 295.1 229 292.4 228.9Z" fill="black"/>
<path d="M248.3 106.1C248.3 106.1 270.7 125.3 293.3 145.8C302.9 154.4 282.8 220.4 282.8 220.4C282.4 221.8 274.9 219.8 273.8 218.7C273.8 218.7 272.7 167.5 277.5 157.2C227.3 144.5 219.5 119.9 219.5 119.9L223.1 104.6L248.3 106.1Z" fill="#263238"/>
<path opacity="0.2" d="M222.8 125.9C225.6 129.8 228.9 133.3 232.7 136.4C237.7 130.5 236.3 121.1 236.3 121.1L222.8 125.9Z" fill="black"/>
<path d="M284.5 217.5C284.4 218.5 284.1 220.3 284 221.6C284 222 283.6 222.4 283.1 222.4C279.8 222.1 276.4 221.6 273.2 220.7C272.9 220.6 272.7 220.3 272.7 220L272.6 216.4C272.6 215.9 273 215.5 273.4 215.5H273.5L283.8 216.7C284.3 216.7 284.6 217.1 284.5 217.5Z" fill="#263238"/>
<path opacity="0.3" d="M284.5 217.5C284.4 218.5 284.1 220.3 284 221.6C284 222 283.6 222.4 283.1 222.4C279.8 222.1 276.4 221.6 273.2 220.7C272.9 220.6 272.7 220.3 272.7 220L272.6 216.4C272.6 215.9 273 215.5 273.4 215.5H273.5L283.8 216.7C284.3 216.7 284.6 217.1 284.5 217.5Z" fill="white"/>
<path d="M194.5 276.8C187.7 276.8 185.5 274.3 181.7 273.6C178.5 273 177.6 273.3 175.1 272.8C172.9 272.4 172.8 270.9 174.1 268.8C175 267.3 175.7 265.7 176.3 264.1L186.6 264.8C187.7 267.6 190.1 273.1 193.9 273.8C197.4 274.3 197.2 276.8 194.5 276.8Z" fill="black"/>
<path d="M246.7 106C246.7 106 223.1 148.1 213.5 174.1C203.5 201.4 187.6 246.1 186.4 264.6C184.7 265.4 179.1 265.1 176.1 263.9C176.1 263.9 173.3 199.9 192.6 174.3C197.2 119.4 204.8 110.6 212.9 103.9L246.7 106Z" fill="#263238"/>
<path d="M187.7 260.8C187.6 262.1 187.5 263.3 187.6 264.6C187.6 265.1 187.3 265.5 186.8 265.5C183 265.9 177.6 264.6 175.9 264.2C175.6 264.1 175.3 263.8 175.3 263.5L175.2 259.9C175.2 259.4 175.6 259 176 259C176 259 176 259 176.1 259L187 260C187.5 260.1 187.8 260.4 187.7 260.8Z" fill="#263238"/>
<path opacity="0.3" d="M187.7 260.8C187.6 262.1 187.5 263.3 187.6 264.6C187.6 265.1 187.3 265.5 186.8 265.5C183 265.9 177.6 264.6 175.9 264.2C175.6 264.1 175.3 263.8 175.3 263.5L175.2 259.9C175.2 259.4 175.6 259 176 259C176 259 176 259 176.1 259L187 260C187.5 260.1 187.8 260.4 187.7 260.8Z" fill="white"/>
<path d="M253 64.8C254 66.7 255.1 68.8 256.2 70.8C257.3 72.8 258.4 74.8 259.5 76.7C261.8 80.6 264.1 84.5 266.6 88.1L265.2 86.9C266.2 87.6 267.3 88.2 268.5 88.5C269.9 89 271.4 89.3 272.8 89.6C274.3 89.9 275.9 90.1 277.6 90.2C279.3 90.3 280.9 90.4 282.5 90.5H282.7C284.2 90.6 285.4 91.9 285.3 93.5C285.2 94.6 284.5 95.6 283.4 96C281.6 96.6 279.8 97.1 277.9 97.4C276 97.7 274.2 97.9 272.3 98C270.3 98.1 268.3 98 266.3 97.6C264.1 97.3 261.9 96.5 259.9 95.5C259.5 95.3 259.1 95 258.8 94.6L258.5 94.3C256.9 92.4 255.4 90.5 253.9 88.5C252.4 86.5 251.1 84.5 249.8 82.5C248.5 80.5 247.3 78.4 246.1 76.3C244.9 74.2 243.8 72.1 242.7 69.8C241.5 67 242.8 63.7 245.6 62.4C248.5 61.3 251.5 62.3 253 64.8Z" fill="#FFB573"/>
<path d="M247.5 56.7C254 58.8 255.1 61.7999 258.7 72.5999C256.3 79.0999 246.7 82.4 246.7 82.4C246.7 82.4 235.3 63.9 247.5 56.7Z" fill="#C12453"/>
<path d="M256.4 70.8C256 74.4 255.1 78.7 253.2 87C251.7 94.1 251.7 108 249.3 108.7C244.7 111 233.2 110.1 213 103.9C213.6 93.5 214.9 86.4 211.4 62.6C210.6 58 213.7 53.5 218.3 52.7C218.9 52.6 219.5 52.6 220.1 52.6C221.6 52.6 223.1 52.7 224.7 52.9C230.2 53.2 235.7 54 241.2 55.1C243 55.5 244.8 56 246.5 56.5C252.8 58.2 257 64.2 256.4 70.8Z" fill="#C12453"/>
<path d="M185.9 112.1L187.9 110.3C188.7 109.6 189 108.6 188.9 107.6L188.3 102.8C188.1 100.9 187 99.2 185.3 98.3L184.3 97.7C180.7 100.5 178.9 106.2 178.9 106.2L178.2 107.8C177.6 109.1 178.1 110.7 179.4 111.3L182.5 112.7C183.8 113.2 185 113 185.9 112.1Z" fill="#FFB573"/>
<path d="M290.9 88.1L288.3 87.1C287.3 86.7 286.3 86.9 285.4 87.4L281.4 90.1C279.8 91.2 278.8 93 278.8 94.9V96.1C282.9 98 288.8 97 288.8 97L290.5 96.9C292 96.9 293.1 95.6 293.1 94.2L292.9 90.8C292.8 89.5 292 88.5 290.9 88.1Z" fill="#FFB573"/>
<path d="M217.3 65.7999L216 66.3999L214.6 66.9999C213.7 67.3999 212.7 67.8999 211.8 68.3999C209.9 69.3999 208.2 70.3999 206.4 71.4999C204.6 72.5999 202.9 73.6999 201.3 74.8999C199.7 76.0999 198.1 77.3999 196.6 78.6999L197.3 77.8999C196.8 78.5999 196.4 79.3999 196 80.1999C195.6 81.0999 195.1 82.0999 194.8 83.0999C194 85.0999 193.2 87.1999 192.5 89.3999C191.8 91.5999 191.1 93.6999 190.3 95.8999L188.1 102.5C187.6 104 186 104.8 184.6 104.3C183.4 103.9 182.6 102.8 182.7 101.5C182.8 99.0999 183 96.6999 183.3 94.3999C183.6 92.0999 183.9 89.6999 184.3 87.2999C184.7 84.8999 185.2 82.5999 185.9 80.1999C186.2 78.9999 186.6 77.7999 187 76.4999C187.5 75.0999 188.1 73.7999 188.8 72.4999C188.9 72.2999 189.1 72.0999 189.2 71.8999L189.4 71.6999C191 69.8999 192.8 68.1999 194.7 66.5999C196.5 64.9999 198.5 63.5999 200.5 62.1999C202.5 60.8999 204.5 59.5999 206.6 58.4999C207.7 57.8999 208.7 57.3999 209.8 56.8999C210.4 56.6999 210.9 56.3999 211.5 56.0999C212.1 55.7999 212.6 55.6999 213.3 55.3999C216.2 54.2999 219.4 55.5999 220.6 58.4999C221.7 61.2999 220.4 64.4999 217.7 65.6999L217.3 65.7999Z" fill="#FFB573"/>
<path d="M227 55.2C222.1 51.7 219.1 51.3 207.3 56.5C205.9 64 210.5 74.9 210.5 74.9C210.5 74.9 226.2 66.7 227 55.2Z" fill="#C12453"/>
<path d="M228.3 34.3999C229 39.8999 229.5 49.7999 225.6 52.8999C225.6 52.8999 230.7 52.7999 240.5 60.7999C244.2 56.7999 242.1 55.0999 242.1 55.0999C236.3 52.8999 236.7 48.4999 238 44.4999L228.3 34.3999Z" fill="#FFB573"/>
<path d="M238.4 59.3C234.8 59.3 233 64.5 233 64.5C233 64.5 224.4 57.7 223.2 52.9C224.3 52.4 225.5 51.9 226.5 51.3C226.6 51.2 236.6 57 238.4 59.3Z" fill="white"/>
<path d="M241.8 59.1C241.8 59.1 244.5 60.1 245.4 64.1C247.2 56.5 243.7 55.3 243.7 55.3C242.8 54.6 241.7 54.3 240.6 54.4C242.1 55.5 242.6 57.5 241.8 59.1Z" fill="white"/>
<path opacity="0.2" d="M232.2 38.5L237.9 44.5C237.6 45.4 237.4 46.4 237.2 47.4C235 46.8 232 43.9 231.9 41.4C231.8 40.4 231.9 39.5 232.2 38.5Z" fill="black"/>
<path d="M222.1 26.4C224.1 34.9 224.8 38.6 230 42.5C237.7 48.4 247.7 44.6 248.3 35.7C248.8 27.7 245.4 15.1 236.3 12.7C230.3 10.9 224.1 14.3 222.3 20.2C221.6 22.3 221.6 24.4 222.1 26.4Z" fill="#FFB573"/>
<path d="M223.8 32.5999C226.9 31.0999 230.3 23.4999 225.8 19.8999C229.5 20.5999 233.7 19.5999 237.6 16.5999C242.7 12.5999 250.2 22.4999 247.7 16.6999C244.1 8.29994 233.4 6.19994 223.7 13.1999C214 20.1999 214.7 28.5999 223.8 32.5999Z" fill="#263238"/>
<path d="M221.1 30.9C221 30.9 220.9 30.8 221 30.7C221 30.6 221 30.6 221.1 30.6C223.6 29.5 234.2 27.3 234.7 27.2C234.8 27.2 234.9 27.1999 234.9 27.2999C234.9 27.3999 234.9 27.5 234.8 27.5C234.6 27.4 223.7 29.8 221.1 30.9Z" fill="white"/>
<path opacity="0.2" d="M234 27.2999C232.9 26.7999 231.7 26.7999 230.6 27.1999C231.7 27.4999 232.9 27.4999 234 27.2999Z" fill="black"/>
<path opacity="0.2" d="M233.9 28.1C232.8 27.9 231.7 28.1 230.9 28.8C231.9 28.8 233 28.5 233.9 28.1Z" fill="black"/>
<path d="M235.9 27.2C236 27.9 236.5 28.5 237 28.4C237.5 28.3 237.7 27.7 237.6 27C237.5 26.3 237 25.7 236.5 25.8C236 25.9 235.7 26.5 235.9 27.2Z" fill="#263238"/>
<path d="M244.6 26.3C244.7 27 245.2 27.6 245.7 27.5C246.2 27.4 246.4 26.8 246.3 26.1C246.2 25.4 245.7 24.8 245.2 24.9C244.7 25 244.5 25.5 244.6 26.3Z" fill="#263238"/>
<path d="M245 24.9L246.6 24.2C246.6 24.2 246 25.7 245 24.9Z" fill="#263238"/>
<path d="M243 27.6C243.9 29.2 244.9 30.7 246.2 32.1C245.5 32.7 244.6 32.9 243.7 32.8L243 27.6Z" fill="#ED893E"/>
<path d="M239.9 35.9999C240.3 35.9999 240.7 35.9999 241.1 35.9999C241.2 35.9999 241.3 35.8999 241.3 35.7999C241.3 35.6999 241.2 35.5999 241.1 35.5999C239.3 35.7999 237.4 35.2 236.1 33.9C236 33.8 235.9 33.8 235.8 33.9C235.7 34 235.7 34.1 235.8 34.2C236.8 35.3 238.3 35.9999 239.9 35.9999Z" fill="#263238"/>
<path d="M220.1 34.1C221.1 35.5 222.6 36.4 224.3 36.6C226.4 36.8 226.8 34.4 225.8 32.2C224.9 30.3 222.6 27.8 220.8 28.7C219 29.6 218.7 32.3 220.1 34.1Z" fill="#FFB573"/>
<path d="M233.1 21.6999C233.2 21.6999 233.3 21.5999 233.4 21.5999C234.1 20.7999 235.1 20.2999 236.1 20.3999C236.3 20.3999 236.5 20.2999 236.6 20.0999C236.6 19.8999 236.4 19.6999 236.2 19.5999C234.9 19.4999 233.6 19.9999 232.7 21.0999C232.6 21.2999 232.6 21.5999 232.8 21.6999C232.9 21.6999 233 21.6999 233.1 21.6999Z" fill="#263238"/>
<path d="M246.3 21.2999C246.4 21.2999 246.5 21.2999 246.6 21.1999C246.8 20.9999 246.8 20.7999 246.6 20.5999C245.7 19.4999 244.4 18.8999 243 18.8999C242.8 18.8999 242.6 19.0999 242.6 19.2999C242.6 19.4999 242.8 19.6999 243.1 19.6999C244.2 19.6999 245.3 20.1999 246 21.0999C246 21.2999 246.1 21.2999 246.3 21.2999Z" fill="#263238"/>
<path d="M238.6 31.6999C236.5 31.6999 234.7 29.4999 234.5 26.5999C234.4 25.1999 234.7 23.8999 235.4 22.6999C236 21.6999 237 20.9999 238.1 20.8999C240.3 20.6999 242.2 22.9999 242.5 25.9999C242.8 28.9999 241.1 31.4999 238.9 31.6999H238.6ZM238.2 21.2999H238C237 21.3999 236 21.9999 235.5 22.9999C234.8 24.0999 234.5 25.3999 234.7 26.6999C234.9 29.4999 236.7 31.5999 238.7 31.4999C240.7 31.3999 242.2 28.9999 242 26.1999C241.8 23.3999 240.2 21.2999 238.2 21.2999Z" fill="white"/>
<path d="M247.9 31.1999C245.8 31.1999 244 28.9999 243.8 26.0999C243.7 24.6999 244 23.3999 244.7 22.1999C245.3 21.1999 246.3 20.4999 247.4 20.3999C249.6 20.1999 251.5 22.4999 251.8 25.4999C251.9 26.8999 251.6 28.1999 250.9 29.3999C250.3 30.3999 249.3 31.0999 248.2 31.1999H247.9ZM247.6 20.6999H247.4C246.4 20.7999 245.4 21.3999 244.9 22.3999C244.2 23.4999 244 24.7999 244.1 26.0999C244.3 28.7999 246 30.8999 247.9 30.8999H248.1C249.1 30.7999 250.1 30.1999 250.6 29.1999C251.3 28.0999 251.6 26.7999 251.4 25.4999C251.2 22.8999 249.5 20.6999 247.6 20.6999Z" fill="white"/>
<path d="M244 26.5C243.9 26.5 243.9 26.5 243.9 26.4C243.5 25.8 242.4 26.5 242.4 26.5C242.3 26.5 242.2 26.5 242.2 26.5C242.1 26.4 242.1 26.4 242.2 26.3C242.3 26.3 243.6 25.5 244.1 26.3C244.1 26.3 244.1 26.4 244 26.5C244 26.4 244 26.4 244 26.5Z" fill="white"/>
<path d="M236.2 25.9L237.8 25.2C237.9 25.1 237.2 26.6 236.2 25.9Z" fill="#263238"/>
</g>
<defs>
<clipPath id="clip0_542_631">
<rect width="500" height="341.9" fill="white"/>
</clipPath>
</defs>
</svg>
