<svg width="500" height="322" viewBox="0 0 500 322" fill="none" xmlns="http://www.w3.org/2000/svg">
<g clip-path="url(#clip0_525_537)">
<path d="M156.1 208.6L142.2 220.2L162 248.9L177.8 240.1C186.2 248.2 196.2 254.7 207 259.1L205.4 277L239.6 283.3L244.5 266C256.2 265.7 267.7 263.3 278.5 258.7L290.1 272.5L318.8 252.8L310 237C318.1 228.6 324.6 218.7 329 207.8L346.9 209.4L353.2 175.2L335.9 170.3C335.6 158.6 333.2 147.1 328.6 136.3L342.5 124.7L322.8 96L307 104.8C298.6 96.7 288.7 90.2 277.8 85.8L279.4 67.9L245.2 61.6L240.3 78.9C228.6 79.2 217.1 81.7 206.3 86.2L194.7 72.3L166 92L174.8 107.8C166.7 116.2 160.2 126.2 155.8 137L137.9 135.4L131.6 169.6L148.9 174.5C149 186.3 151.5 197.8 156.1 208.6ZM196 163.9C197.7 154.7 202.1 146.3 208.6 139.6C215.1 132.9 223.4 128.3 232.5 126.4C241.6 124.5 251.1 125.3 259.8 128.7C268.5 132.1 275.9 138.1 281.2 145.8C286.5 153.5 289.4 162.6 289.5 171.9C289.6 181.2 287 190.4 281.9 198.2C276.8 206 269.6 212.2 261 215.8C252.4 219.5 243 220.5 233.8 218.8C221.5 216.5 210.6 209.5 203.5 199.2C196.4 188.9 193.7 176.2 196 163.9Z" fill="#F0F0F0" fill-opacity="0.2"/>
<path opacity="0.3" d="M384.9 223.1L395.7 225.1L397.3 219.6C401 219.5 404.6 218.7 408.1 217.3L411.8 221.7L420.9 215.5L418.1 210.5C420.7 207.8 422.7 204.7 424.1 201.3L429.8 201.8L431.8 191L426.3 189.5C426.2 185.8 425.4 182.1 424 178.7L428.4 175L422.2 165.9L417.2 168.7C414.5 166.1 411.4 164.1 408 162.7L408.5 157L397.7 155L396.1 160.5C392.4 160.6 388.7 161.4 385.3 162.8L381.6 158.4L372.5 164.6L375.3 169.6C372.7 172.3 370.7 175.4 369.3 178.8L363.6 178.3L361.6 189.1L367.1 190.7C367.2 194.4 368 198 369.4 201.5L365.1 205.1L371.3 214.2L376.3 211.4C379 214 382.1 216 385.5 217.4L384.9 223.1ZM381.9 187.3C382.4 184.4 383.8 181.7 385.9 179.6C388 177.5 390.6 176 393.5 175.4C396.4 174.8 399.4 175 402.1 176.1C404.8 177.2 407.2 179.1 408.9 181.5C410.6 183.9 411.5 186.8 411.5 189.7C411.5 192.6 410.7 195.5 409.1 198C407.5 200.5 405.2 202.4 402.5 203.6C399.8 204.8 396.8 205.1 393.9 204.6C392 204.2 390.1 203.5 388.5 202.5C386.9 201.4 385.4 200.1 384.3 198.4C383.2 196.8 382.4 195 382 193.1C381.6 191.2 381.6 189.3 381.9 187.3Z" fill="#F0F0F0"/>
<path opacity="0.3" d="M83.1998 221.8L91.3998 223.3L92.5998 219.1C95.3998 219 98.1998 218.4 100.8 217.3L103.6 220.6L110.5 215.8L108.4 212C110.4 210 111.9 207.6 113 205L117.3 205.4L118.8 197.2L114.6 196C114.5 193.2 113.9 190.4 112.8 187.8L116.1 185L111.3 178.1L107.5 180.2C105.5 178.3 103.1 176.7 100.5 175.6L100.9 171.3L92.6998 169.8L91.4998 174C88.6998 174.1 85.8998 174.7 83.2998 175.8L80.4998 172.5L73.5998 177.3L75.6998 181.1C73.6998 183.1 72.1998 185.5 71.0998 188.1L66.7998 187.7L65.2998 195.9L69.4998 197.1C69.5998 199.9 70.1998 202.7 71.2998 205.3L67.9998 208.1L72.7998 215L76.5998 212.9C78.5998 214.9 80.9998 216.4 83.5998 217.5L83.1998 221.8ZM80.9998 194.5C81.3998 192.3 82.4998 190.3 83.9998 188.7C85.5998 187.1 87.5998 186 89.7998 185.5C91.9998 185 94.2998 185.2 96.3998 186.1C98.4998 186.9 100.3 188.4 101.5 190.2C102.8 192 103.5 194.2 103.5 196.5C103.5 198.7 102.9 200.9 101.7 202.8C100.5 204.7 98.6998 206.2 96.6998 207C94.5998 207.9 92.3998 208.1 90.1998 207.7C87.1998 207.2 84.5998 205.5 82.8998 203C81.0998 200.5 80.4998 197.5 80.9998 194.5Z" fill="#F0F0F0"/>
<path opacity="0.3" d="M230.4 38.1L236.6 39.2L237.5 36C239.6 36 241.7 35.5 243.7 34.7L245.8 37.2L251 33.6L249.4 30.7C250.9 29.2 252.1 27.4 252.9 25.4L256.2 25.7L257.3 19.5L254.2 18.6C254.1 16.5 253.7 14.4 252.9 12.4L255.4 10.3L251.8 5.10001L248.9 6.70001C247.4 5.20001 245.6 4.00001 243.6 3.20001L243.9 -0.0999879L237.7 -1.29999L236.8 2.00001C234.7 2.00001 232.6 2.50001 230.6 3.30001L228.5 0.800012L223.3 4.40001L224.9 7.30001C223.4 8.80001 222.2 10.6 221.4 12.6L218.1 12.3L217 18.6L220.1 19.5C220.2 21.6 220.6 23.7 221.4 25.7L218.9 27.8L222.5 33L225.4 31.4C226.9 32.9 228.7 34.1 230.7 34.9L230.4 38.1ZM228.7 17.5C229 15.8 229.8 14.3 231 13.1C232.2 11.9 233.7 11 235.4 10.7C237.1 10.3 238.8 10.5 240.4 11.1C242 11.7 243.3 12.8 244.3 14.2C245.3 15.6 245.8 17.3 245.8 18.9C245.8 20.6 245.3 22.3 244.4 23.7C243.5 25.1 242.2 26.2 240.6 26.9C239 27.6 237.3 27.8 235.7 27.5C234.6 27.3 233.5 26.9 232.6 26.3C231.7 25.7 230.8 24.9 230.2 24C229.6 23.1 229.1 22 228.9 20.9C228.5 19.8 228.5 18.6 228.7 17.5Z" fill="#F0F0F0"/>
<path opacity="0.3" d="M384.1 101.8L388.3 102.6L388.9 100.5C390.3 100.5 391.7 100.2 393 99.6L394.4 101.3L397.9 98.9L396.8 97C397.8 96 398.6 94.8 399.1 93.5L401.3 93.7L402.1 89.5L400 88.9C400 87.5 399.7 86.1 399.1 84.8L400.8 83.4L398.4 79.9L396.5 81C395.5 80 394.3 79.2 393 78.7L393.2 76.5L389 75.7L388.4 77.8C387 77.8 385.6 78.1 384.3 78.7L382.9 77L379.4 79.4L380.5 81.3C379.5 82.3 378.7 83.5 378.2 84.9L376 84.7L375.2 88.8L377.3 89.4C377.3 90.8 377.6 92.2 378.2 93.5L376.5 94.9L378.9 98.4L380.8 97.3C381.8 98.3 383 99.1 384.3 99.6L384.1 101.8ZM383 88C383.2 86.9 383.7 85.9 384.5 85C385.3 84.1 386.3 83.6 387.4 83.4C388.5 83.2 389.7 83.3 390.7 83.7C391.8 84.1 392.7 84.8 393.3 85.8C393.9 86.7 394.3 87.8 394.3 89C394.3 90.1 394 91.2 393.4 92.2C392.8 93.2 391.9 93.9 390.9 94.3C389.9 94.7 388.7 94.9 387.6 94.7C386.1 94.4 384.8 93.6 383.9 92.3C383.1 91.1 382.7 89.5 383 88Z" fill="#F0F0F0"/>
<path opacity="0.3" d="M333.4 239.6C333.5 242.1 334 244.5 334.9 246.8L332 249.2L336.2 255.3L339.5 253.4C341.3 255.1 343.4 256.5 345.7 257.4L345.4 261.2L352.7 262.5L353.7 258.8C356.2 258.7 358.6 258.2 360.9 257.3L363.4 260.2L369.5 256L367.6 252.7C369.3 250.9 370.7 248.8 371.6 246.5L375.4 246.8L376.7 239.5L373 238.5C372.9 236 372.4 233.6 371.5 231.3L374.4 228.9L370.2 222.8L366.8 224.7C365 223 362.9 221.6 360.6 220.7L360.9 216.9L353.7 215.6L352.7 219.3C350.2 219.4 347.8 219.9 345.5 220.8L343 217.9L336.9 222.1L338.8 225.4C337.1 227.2 335.7 229.3 334.8 231.6L331 231.3L329.7 238.6L333.4 239.6ZM343.4 237.4C343.8 235.5 344.7 233.7 346.1 232.2C347.5 230.8 349.2 229.8 351.2 229.4C353.1 229 355.2 229.2 357 229.9C358.8 230.6 360.4 231.9 361.5 233.5C362.6 235.1 363.2 237.1 363.3 239C363.4 240.9 362.8 242.9 361.7 244.6C360.6 246.3 359.1 247.6 357.3 248.3C355.5 249.1 353.5 249.3 351.5 248.9C348.9 248.4 346.6 246.9 345.1 244.7C343.5 242.6 342.9 240 343.4 237.4Z" fill="#F0F0F0"/>
<path d="M152.1 107C153 111.5 147.6 116.4 139.9 117.9C132.3 119.4 125.3 117 124.4 112.5C123.5 108 128.9 103.1 136.6 101.5C144.3 100 151.2 102.5 152.1 107Z" fill="#E0E0E0"/>
<path d="M155.1 90.8C155.7 89.9 156 88.9 155.8 87.9C154.9 83.5 144.8 81.8 133.2 84.1C121.6 86.4 112.9 91.9 113.8 96.4C114.1 97.4 114.7 98.3 115.6 98.8C115.5 99.3 115.4 99.8 115.5 100.3C115.8 101.3 116.4 102.2 117.3 102.7C117.1 103.2 117.1 103.7 117.2 104.2C117.3 104.7 117.6 105.2 117.9 105.6C118.2 106 118.6 106.3 119.1 106.6C118.9 107.1 118.9 107.6 119 108.2C119.1 108.7 119.4 109.2 119.7 109.6C120 110 120.4 110.3 120.9 110.6C120.7 111.1 120.7 111.6 120.7 112.2C121.4 115.9 129.9 117.3 139.5 115.3C149.1 113.3 156.4 108.8 155.6 105.1C155.5 104.6 155.2 104.1 154.8 103.7C155.1 103.3 155.4 102.8 155.5 102.3C155.6 101.8 155.7 101.3 155.6 100.8C155.5 100.3 155.2 99.8 154.9 99.4C155.2 99 155.4 98.5 155.6 98C155.7 97.5 155.8 97 155.7 96.5C155.6 96 155.4 95.5 155 95.1C155.6 94.3 155.9 93.2 155.7 92.2C155.6 91.7 155.4 91.2 155.1 90.8Z" fill="#EBEBEB"/>
<path d="M164.6 48C163.4 41.7 160.5 35.8 156.4 30.9C152.3 26 147 22.2 141 19.9C135 17.6 128.5 16.8 122.2 17.7C115.8 18.6 109.8 21 104.7 24.9C99.6 28.7 95.5 33.8 92.8 39.7C90.1 45.5 89 52 89.5 58.4C90 64.8 92.1 71 95.6 76.3C99.1 81.6 104 86 109.6 89C110.5 89.5 111.3 90.2 111.9 91C112.5 91.8 112.8 92.8 113 93.8V94.1C113.9 98.6 124.2 100.3 136 97.9C147.8 95.5 156.6 89.9 155.7 85.5C155.7 85.4 155.7 85.3 155.6 85.2C155.3 84.2 155.3 83.2 155.5 82.2C155.7 81.2 156.2 80.2 156.8 79.5C160.3 75.2 162.9 70.1 164.2 64.7C165.5 59.1 165.6 53.5 164.6 48Z" fill="#F5F5F5" fill-opacity="0.5"/>
<path d="M141.2 90.5999C141 90.5999 140.9 90.6 140.8 90.5C140.7 90.4 140.7 90.2999 140.6 90.1999C140.6 89.4999 139.7 72.6999 146.9 64.6999L141.4 65.8C141.3 65.8 141.2 65.8 141.1 65.8C141 65.8 140.9 65.6999 140.9 65.5999L138.2 61.5999L135.8 71.1999C135.8 71.2999 135.7 71.4 135.7 71.4C135.6 71.5 135.6 71.5 135.5 71.5C135.4 71.5 135.3 71.5 135.2 71.5C135.1 71.5 135 71.4 135 71.3L129 63.2999L126.4 71.9C126.4 72 126.3 72.0999 126.3 72.0999C126.2 72.1999 126.2 72.1999 126.1 72.1999C126 72.1999 125.9 72.1999 125.9 72.1999C125.8 72.1999 125.8 72.0999 125.7 72.0999L119.9 65.1999L118.9 70C118.9 70.1 118.8 70.1999 118.8 70.1999C118.7 70.2999 118.7 70.3 118.6 70.3L112.6 71.5C115.6 73.6 125.2 81.3 127.5 92.8V93C127.5 93.1 127.5 93.0999 127.4 93.1999C127.3 93.2999 127.3 93.3 127.3 93.3C127.2 93.3 127.2 93.4 127.1 93.4C127 93.4 127 93.4 126.9 93.4C126.8 93.4 126.8 93.4 126.7 93.3C126.6 93.3 126.6 93.1999 126.6 93.1999C126.6 93.1999 126.5 93.1 126.5 93C123.8 79.8 111.2 71.7999 111.1 71.6999C111 71.6999 111 71.6 110.9 71.5C110.9 71.4 110.9 71.2999 110.9 71.1999C110.9 71.0999 111 71 111 71C111.1 70.9 111.1 70.9 111.2 70.9L117.9 69.5999L119 64.1999C119 64.0999 119.1 64 119.1 64C119.2 63.9 119.2 63.9 119.3 63.9H119.6C119.7 63.9 119.8 64 119.8 64L125.6 70.9L128.3 62.2999C128.3 62.1999 128.4 62.0999 128.4 62.0999C128.5 61.9999 128.5 62 128.6 62H128.8C128.9 62 128.9 62.1 129 62.2L135 70.1999L137.4 60.5C137.4 60.4 137.5 60.2999 137.5 60.2999C137.6 60.1999 137.6 60.2 137.7 60.2H138C138.1 60.2 138.1 60.3 138.2 60.4L141.3 65L148 63.5999H148.3C148.4 63.5999 148.5 63.6999 148.5 63.7999C148.5 63.8999 148.6 63.9999 148.5 64.0999C148.5 64.1999 148.4 64.3 148.4 64.4C140.3 71.6 141.3 89.9999 141.3 90.1999C141.3 90.2999 141.3 90.4 141.2 90.5C141.4 90.5 141.3 90.5999 141.2 90.5999Z" fill="#E0E0E0"/>
<path d="M369.4 54.8C369.4 48.9 366.3 43.7 361.4 39.9C361.6 39.1 361.6 38.3 361.6 37.5C361.6 29.7 353.7 23.4 343.8 23.2C340.8 15.6 331.9 10.2 321.3 10.2C312.9 10.2 305.5 13.7 301.3 18.9C300.2 18.8 299.2 18.7 298.1 18.7C288 18.7 279.9 25.1 279.9 33C279.9 34.3 280.1 35.7 280.6 36.9C274.2 40.3 270 46 270 52.5C270 58.8 273.9 64.3 279.9 67.7V68C279.9 75.7 287.6 82 297.2 82.3C302.5 87.5 310.7 90.8 319.8 90.8C325.8 90.9 331.7 89.3 337 86.4C337.8 86.5 338.7 86.5 339.5 86.5C349.6 86.5 357.7 80.1 357.7 72.2V72.1C364.8 68.3 369.4 62 369.4 54.8Z" fill="#407BFF"/>
<path d="M269.2 96.9C269.2 98.2 267.7 99.3 265.8 99.3C263.9 99.3 262.4 98.2 262.4 96.9C262.4 95.6 263.9 94.5 265.8 94.5C267.7 94.6 269.2 95.6 269.2 96.9Z" fill="#407BFF"/>
<path d="M292.7 91.3C292.7 95.1 288.3 98.2 282.8 98.2C277.3 98.2 273 95.1 273 91.3C273 87.5 277.4 84.4 282.9 84.4C288.4 84.4 292.7 87.5 292.7 91.3Z" fill="#407BFF"/>
<path opacity="0.7" d="M369.4 54.8C369.4 48.9 366.3 43.7 361.4 39.9C361.6 39.1 361.6 38.3 361.6 37.5C361.6 29.7 353.7 23.4 343.8 23.2C340.8 15.6 331.9 10.2 321.3 10.2C312.9 10.2 305.5 13.7 301.3 18.9C300.2 18.8 299.2 18.7 298.1 18.7C288 18.7 279.9 25.1 279.9 33C279.9 34.3 280.1 35.7 280.6 36.9C274.2 40.3 270 46 270 52.5C270 58.8 273.9 64.3 279.9 67.7V68C279.9 75.7 287.6 82 297.2 82.3C302.5 87.5 310.7 90.8 319.8 90.8C325.8 90.9 331.7 89.3 337 86.4C337.8 86.5 338.7 86.5 339.5 86.5C349.6 86.5 357.7 80.1 357.7 72.2V72.1C364.8 68.3 369.4 62 369.4 54.8Z" fill="#49CB91"/>
<path opacity="0.7" d="M269.2 96.9C269.2 98.2 267.7 99.3 265.8 99.3C263.9 99.3 262.4 98.2 262.4 96.9C262.4 95.6 263.9 94.5 265.8 94.5C267.7 94.6 269.2 95.6 269.2 96.9Z" fill="white"/>
<path opacity="0.7" d="M292.7 91.3C292.7 95.1 288.3 98.2 282.8 98.2C277.3 98.2 273 95.1 273 91.3C273 87.5 277.4 84.4 282.9 84.4C288.4 84.4 292.7 87.5 292.7 91.3Z" fill="white"/>
<path d="M320.2 24.7C329.9 24.7 336 29.3 336 37.4C336 48.4 324.8 49.8 324.8 58.3H315.2C315.2 47.1 324.1 46.5 324.1 39.5C324.1 36.5 322.2 35.1 319 35.1C315.4 35.1 313.5 37.2 313.5 41.6H303.6C303.6 30.9 309.8 24.7 320.2 24.7ZM326 70.1C326 71.7 325.3 73.3 324.2 74.5C323 75.7 321.5 76.3 319.8 76.3C318.1 76.3 316.6 75.6 315.4 74.5C314.2 73.3 313.6 71.8 313.6 70.1C313.6 68.5 314.3 66.9 315.4 65.7C316.6 64.5 318.1 63.9 319.8 63.9C321.5 63.9 323 64.6 324.2 65.7C325.3 66.8 326 68.4 326 70.1Z" fill="#49CB91"/>
<path d="M102.2 257.8C102.2 257.8 95.7 250 91.5 253.7C87.3 257.4 89.4 265 94.3 265.3C97.2 265.5 100 264.6 102.3 262.9L102.2 257.8Z" fill="#407BFF"/>
<path opacity="0.2" d="M102.2 257.8C102.2 257.8 95.7 250 91.5 253.7C87.3 257.4 89.4 265 94.3 265.3C97.2 265.5 100 264.6 102.3 262.9L102.2 257.8Z" fill="white"/>
<path d="M128.8 238.1C128.8 238.1 134.3 232.3 137.7 233.3C141.1 234.3 140.7 248 130.2 242.4L128.8 238.1Z" fill="#407BFF"/>
<path opacity="0.3" d="M128.8 238.1C128.8 238.1 134.3 232.3 137.7 233.3C141.1 234.3 140.7 248 130.2 242.4L128.8 238.1Z" fill="white"/>
<path d="M109.2 281C109.2 281 91.2001 256.3 105.8 251.4C120.4 246.4 123 271.2 118.8 278.1C114.6 285 109.2 281 109.2 281Z" fill="#407BFF"/>
<path d="M117.6 230.5C117.6 230.5 128.8 204.5 112.2 203.8C95.5999 203.1 93.7999 229.5 112.9 233.4L117.6 230.5Z" fill="#407BFF"/>
<path opacity="0.3" d="M109.2 281C109.2 281 91.2001 256.3 105.8 251.4C120.4 246.4 123 271.2 118.8 278.1C114.6 285 109.2 281 109.2 281Z" fill="white"/>
<path opacity="0.3" d="M117.6 230.5C117.6 230.5 128.8 204.5 112.2 203.8C95.5999 203.1 93.7999 229.5 112.9 233.4L117.6 230.5Z" fill="white"/>
<path d="M113.6 251.8C113.6 251.8 108.2 228.9 118.6 227.1C129 225.3 139.4 246 117.8 256.4C117.8 256.3 114.1 254 113.6 251.8Z" fill="#407BFF"/>
<path opacity="0.2" d="M113.6 251.8C113.6 251.8 108.2 228.9 118.6 227.1C129 225.3 139.4 246 117.8 256.4C117.8 256.3 114.1 254 113.6 251.8Z" fill="white"/>
<path d="M112 228.7C105.8 224.1 101.4 215.3 105.1 207.9C104.9 208.6 104.8 209.3 104.6 210C103.4 217 107.2 223.8 112 228.7Z" fill="#407BFF"/>
<path d="M108 206.4C115.1 207.8 118.4 215.5 117.5 222.2C117.3 223.1 117.2 224.1 117 225C117.1 223.1 117.1 221.2 116.9 219.4C116.5 213.8 113.5 208.4 108 206.4Z" fill="#407BFF"/>
<path d="M120.7 228.7C125.1 230.2 127.6 235.2 127.2 239.7C126.8 243 125 245.9 123 248.4C121.4 250.4 119.5 252.2 117.4 253.7C118.3 252.8 119.2 251.9 120.1 250.9C122.6 248.1 125 245 126.1 241.4C126.8 239 126.6 236.4 125.6 234.1C124.6 231.8 122.9 229.9 120.7 228.7Z" fill="#407BFF"/>
<path d="M117.6 230.5C118.7 233.8 119.6 237.9 117.9 241.2C116.4 243.3 116.3 246.1 116.3 248.7C116.3 249.6 116.3 250.5 116.4 251.4C116 249.6 115.8 247.9 115.8 246C115.8 244.1 116.3 242.3 117.3 240.7C118.7 237.7 118 233.9 117.6 230.5Z" fill="#407BFF"/>
<path d="M110.2 253.7C114.4 256 116.1 270.3 115.9 275C115.8 274.1 115.6 273.1 115.5 272.2C114.7 267.6 113.9 263 112.7 258.5C112.1 256.9 111.7 254.8 110.2 253.7Z" fill="#407BFF"/>
<path d="M105.1 254.5C104.1 257.8 103.9 261.3 104.6 264.7C105.3 268.1 106.9 271.2 109.2 273.8C108.5 273.2 107.9 272.6 107.3 272C105.3 269.6 104 266.7 103.6 263.6C103.2 260.5 103.7 257.3 105.1 254.5Z" fill="#407BFF"/>
<path d="M133 240.9C134.9 240.6 136.6 239.8 138 238.5C137.7 240.7 134.9 241.7 133 240.9Z" fill="#407BFF"/>
<path d="M131.9 237.2C132.8 235.4 135.9 234.2 137.2 236.2C135.4 235.3 133.6 236.4 131.9 237.2Z" fill="#407BFF"/>
<path d="M99.2002 259C97.1002 257.5 94.9002 255 92.2002 256.3C94.4002 253.7 98.2002 256.6 99.2002 259Z" fill="#407BFF"/>
<path d="M99.2001 262.8C96.4001 263.8 91.0001 263.9 90.6001 260C92.2001 263.2 96.2001 262.5 99.2001 262.8Z" fill="#407BFF"/>
<path d="M86.8999 270.8H142.9L138.2 306.6H91.5999L86.8999 270.8Z" fill="#263238"/>
<path opacity="0.2" d="M142.9 270.8L141.3 283.3L141.2 284.1L140.3 291.2L140.1 293.1L139.4 298.4L138.8 302.6L138.3 306.6H91.6L91.1 302.6L90.5 298.4L89.8 293.1L89.6 291.2L88.7 284.1L88.6 283.3L87 270.8H142.9Z" fill="#FAFAFA"/>
<path opacity="0.2" d="M139.3 298.4L138.7 302.6H90.9999L90.3999 298.4H139.3Z" fill="#FAFAFA"/>
<path opacity="0.2" d="M140.2 291.3L140 293.2H89.8001L89.6001 291.3H140.2Z" fill="#FAFAFA"/>
<path opacity="0.2" d="M141.2 283.3L141.1 284.1H88.6L88.5 283.3H141.2Z" fill="#FAFAFA"/>
<path d="M371.4 253.1H383.1V277H371.4V253.1Z" fill="#263238"/>
<path d="M410.3 291.3C410.3 283 403.9 275.7 394.4 271.7V266.6H360.2V271.7C350.7 275.7 344.3 283 344.3 291.3C344.4 295.2 345.7 299 348.1 302V306.2H406.5V302C408.9 298.9 410.2 295.2 410.3 291.3Z" fill="#263238"/>
<path opacity="0.6" d="M410.3 291.3C410.3 283 403.9 275.7 394.4 271.7V266.6H360.2V271.7C350.7 275.7 344.3 283 344.3 291.3C344.4 295.2 345.7 299 348.1 302V306.2H406.5V302C408.9 298.9 410.2 295.2 410.3 291.3Z" fill="#FAFAFA"/>
<path d="M395.2 271.4H359.3C358.8 271.4 358.2 271.2 357.9 270.8C357.5 270.4 357.3 269.9 357.3 269.3V213.7H358.3V269.3C358.3 269.4 358.3 269.6 358.4 269.7C358.4 269.8 358.5 269.9 358.6 270C358.7 270.1 358.8 270.2 358.9 270.2C359 270.2 359.2 270.3 359.3 270.3H395.2C395.3 270.3 395.5 270.3 395.6 270.2C395.7 270.1 395.8 270.1 395.9 270C396 269.9 396.1 269.8 396.1 269.7C396.1 269.6 396.2 269.4 396.2 269.3V213.7H397.2V269.3C397.2 269.8 397 270.3 396.6 270.7C396.3 271.2 395.8 271.4 395.2 271.4Z" fill="#263238"/>
<path d="M412.2 260.1H342.2L357.6 200.7H396.9L412.2 260.1Z" fill="#FFB573"/>
<path opacity="0.2" d="M348.1 302H406.5V306.2H348.1V302Z" fill="black"/>
<path opacity="0.2" d="M360.1 266.6H394.3V271.6H360.1V266.6Z" fill="black"/>
<path d="M268.9 174.1C277.8 185.6 287.2 197.7 298.7 206.5C300.7 208.1 303 209.3 305.5 210.1C305.7 210.2 305.5 210.2 305.3 210.4C305.1 210.5 305.2 210.5 305.2 210.6C305.2 210.7 304.9 210.9 304.8 211C303.8 212 303.1 213.3 303 214.7C303 215 303.1 215 303.1 214.8C302.5 210.2 299.7 205.7 297.3 201.4C287.7 185.3 275.7 170.2 264.2 155.2L273.2 146.4C283.3 155 292.9 164.3 301.8 174.2C308.7 181.9 315.4 190 320.6 199.3C325.8 208.2 328.9 220.8 319.7 228.6C315.6 232 310.4 233.9 305.1 233.9C287.6 233.7 271.6 217.2 260.9 205.3C256.3 200.1 252.1 194.6 248.1 188.9L268.9 174.1Z" fill="#DC897C"/>
<path d="M243.5 135.6L254.1 135.1C255.3 135 256.4 135.4 257.4 136L273.7 146.6L271 158C260.8 164.4 252.1 158.5 249.5 156.3C248.9 155.8 248.2 155.4 247.4 155.2L241.6 153.7C240.3 153.4 239.2 152.6 238.4 151.5C237.6 150.4 237.3 149.1 237.4 147.7L238.1 140.7C238.2 139.4 238.8 138.1 239.8 137.2C240.9 136.3 242.1 135.7 243.5 135.6Z" fill="#E4897B"/>
<path d="M299.9 206.4L289.3 240.1C289.3 240.1 288.1 239.5 286.2 238.4C281.1 235.5 270.8 229.5 263.1 223.5C258.7 220 255.1 216.6 254.1 213.8C250.6 204.4 271.7 171.1 271.7 171.1C278.3 172.8 286.4 184.8 286.4 184.8C286.4 184.8 297.4 200.3 299.9 206.4Z" fill="#C12453"/>
<path opacity="0.2" d="M286.2 238.4C281.1 235.5 270.8 229.5 263.1 223.5C262.9 218.7 263.3 214 264.2 209.3C264.2 209.3 281.2 219 286.2 238.4Z" fill="black"/>
<path d="M271.7 171.1C271.7 171.1 292.2 223.9 272.4 322L179 321.8C178.4 307.5 184.9 240.4 171.2 172.8C171.2 172.8 175 168.1 205.1 166.1C217 165.3 234.3 165.2 244.8 166.2C253.9 167.1 262.9 168.8 271.7 171.1Z" fill="#263238"/>
<path opacity="0.6" d="M280.8 252.9C280.7 256.5 280.5 260.1 280.2 263.9C280 267 279.8 270.1 279.5 273.3C279.2 277.1 278.7 281.1 278.3 285.1C277.9 288.4 277.5 291.8 277 295.2C276.4 299.4 275.7 303.6 275 307.9C274.2 312.4 273.4 317.1 272.4 321.9L179 321.7C178.9 318.6 179.1 313 179.3 305.4C179.4 302.4 179.5 299 179.6 295.4C179.7 292.8 179.7 290 179.8 287.1C179.9 283.9 179.9 280.5 179.9 276.9C179.9 274.1 179.9 271.3 179.9 268.3C179.9 264.9 179.8 261.4 179.8 257.8C179.8 255.1 179.7 252.4 179.6 249.6C179.3 239.7 178.7 229.3 177.7 218.5C176.3 203.1 174.2 187.9 171.1 172.7C171.1 172.7 174.9 168 205.1 166C217 165.2 234.3 165.1 244.8 166.1C253.9 167 262.8 168.7 271.6 171C271.7 171.1 282.6 199.3 280.8 252.9Z" fill="#FAFAFA"/>
<path opacity="0.2" d="M189.4 214.3C189.4 214.3 188.6 236.6 179.7 249.7C179.4 239.8 178.8 229.4 177.8 218.6C181.4 215.8 185.4 214.1 189.4 214.3Z" fill="black"/>
<path opacity="0.6" d="M280.8 252.9C280.7 256.5 280.5 260.1 280.2 263.9L270.4 275.4L256.3 258.8L242.2 275.4L228.1 258.8L214 275.4L199.9 258.8L186 275.4L180 268.3C180 264.9 179.9 261.4 179.9 257.8L186.1 265.1L200.2 248.5L214.3 265.1L228.4 248.5L242.5 265.1L256.6 248.5L270.7 265.1L280.8 252.9Z" fill="#FAFAFA"/>
<path opacity="0.6" d="M279.5 273.3C279.2 277.1 278.7 281.1 278.3 285.1L270.5 294.3L256.4 277.7L242.3 294.3L228.2 277.7L214.1 294.3L200 277.7L186 294.4L179.8 287.1C179.9 283.9 179.9 280.5 179.9 276.9L186 284L200.1 267.4L214.2 284L228.3 267.4L242.4 284L256.5 267.4L270.6 284L279.5 273.3Z" fill="#FAFAFA"/>
<path opacity="0.6" d="M277 295.3C276.4 299.5 275.7 303.7 275 308L270.5 313.3L256.4 296.8L242.3 313.4L228.2 296.9L214.1 313.4L200 296.9L186 313.4L179.3 305.5C179.4 302.5 179.5 299.1 179.6 295.5L186 303L200.1 286.4L214.2 303L228.3 286.4L242.4 303L256.5 286.4L270.6 303L277 295.3Z" fill="#FAFAFA"/>
<path d="M204 124.9C207.7 137.4 212.4 160.4 204.2 169.8C216.9 173.8 226 176.5 237.2 184.8C240.1 176.6 243.7 166.1 243.7 166.1C229.2 164 228.6 153.5 230.1 143.4L204 124.9Z" fill="#E4897B"/>
<path opacity="0.2" d="M214.6 132.4L230.1 143.3C229.7 145.7 229.5 148 229.5 150.4C224 150.1 216 144.9 214.9 139.3C214.5 137.1 214.3 134.7 214.6 132.4Z" fill="black"/>
<path d="M193.4 167L202.3 158.6L226.3 166.8L236.8 182.9L240.7 166.6L246.1 161.7L255.6 167.5L254.1 177.9L247.2 174.5L238.9 188.1L220.4 177.2L215.2 182.2L193.4 167Z" fill="#C12453"/>
<path opacity="0.2" d="M239 188.1L243.8 171.1L254.1 177.9L247.2 174.5L239 188.1Z" fill="black"/>
<path opacity="0.2" d="M239 188.1L222.7 172.1L215.3 182.2L220.5 177.2L239 188.1Z" fill="black"/>
<path d="M199.5 199.8C205.5 207 213.7 217.1 219.8 224C227 232.1 234.3 240.6 243 246.8C243.3 247 242.9 246.8 242.8 246.8C242.7 246.8 242.6 246.7 242.5 246.7C246.4 247.6 250.9 246.7 255.1 246.1C267.9 243.9 280.5 240.3 293.4 237L298.5 248.6C293.6 251.6 288.8 254.1 283.7 256.6C271.1 262.5 248.1 273.2 234.1 268C229 265.6 224.1 262.5 219.8 258.8C213.2 253.3 206.9 247.3 201 241C195.2 234.9 189.8 228.6 184.5 222.1C182.7 219.9 181.1 217.8 179.3 215.4L199.5 199.8Z" fill="#DC897C"/>
<path d="M162.9 184.3C152.7 216.7 198.6 248.5 198.6 248.5L223.2 220.6C223.2 220.6 212.4 200.6 200.1 182.8C187.3 164.2 168.3 167.3 162.9 184.3Z" fill="#C12453"/>
<path d="M291.3 238.5L308.6 220.6L321.7 238C321.7 238 311.4 252.3 297.4 248.6L291.3 238.5Z" fill="#E4897B"/>
<path d="M325.5 215.1L332.1 230.4L321.7 238L308.6 220.6L325.5 215.1Z" fill="#E4897B"/>
<path d="M237.4 78.5C246.3 82 252.4 106.2 241.6 112.1C230.7 117.9 220.5 71.9 237.4 78.5Z" fill="#263238"/>
<path d="M199 107C203.6 124 205.4 134.1 216 141.4C231.8 152.4 251.5 140.9 252.1 123.1C252.6 107.1 245 82 226.7 78.1C208.6 74.3 194.4 90.1 199 107Z" fill="#E4897B"/>
<path d="M214.2 85.2L212.3 70.3C208.6 72.3 204.4 73.1 200.2 72.6C182.2 69.5 169.3 81.7 178.2 91.1C170.1 95.2 175.4 106.4 181.4 113.4C189.8 123.1 198.4 127.4 203.8 122.4C208.8 119.6 208.5 101.8 206.4 95.4C203.3 85.6 214.2 85.2 214.2 85.2Z" fill="#263238"/>
<path d="M196 125.2C198.9 128.4 202.9 130.5 207.2 131.1C212.6 131.7 213.6 126.7 210.6 122C207.9 117.8 201.8 112.3 197 113.9C192.3 115.3 192.3 121.1 196 125.2Z" fill="#E4897B"/>
<path d="M225.1 107.4C225.4 108.8 226.4 109.8 227.3 109.6C228.2 109.4 228.7 108.2 228.4 106.8C228.1 105.4 227.1 104.4 226.2 104.6C225.3 104.8 224.8 106 225.1 107.4Z" fill="#263238"/>
<path d="M240.9 104.7C241.2 106.1 242.2 107.1 243.1 106.9C244 106.7 244.5 105.5 244.2 104.1C243.9 102.7 242.9 101.7 242 101.9C241.2 102 240.6 103.3 240.9 104.7Z" fill="#263238"/>
<path d="M237.1 106.2C237.1 106.2 242 113.7 246.3 117C244.3 119.7 239.9 119.4 239.9 119.4L237.1 106.2Z" fill="#DE5753"/>
<path d="M230.1 100C230.2 100.1 230.4 100.1 230.4 100.2C230.5 100.3 230.5 100.4 230.5 100.5V100.8C230.5 100.9 230.5 101 230.4 101.1C230.3 101.2 230.3 101.3 230.2 101.3C229.2 102.1 228 102.7 226.7 103C225.4 103.3 224.1 103.2 222.8 102.8C222.7 102.8 222.6 102.7 222.5 102.6C222.4 102.5 222.4 102.4 222.3 102.3C222.3 102.2 222.2 102.1 222.2 102C222.2 101.9 222.2 101.8 222.3 101.7C222.4 101.5 222.5 101.3 222.7 101.2C222.9 101.1 223.1 101.1 223.3 101.2C224.3 101.5 225.3 101.5 226.4 101.3C227.4 101.1 228.4 100.6 229.2 100C229.3 99.9 229.5 99.8 229.6 99.8C229.9 100 230 100 230.1 100Z" fill="#263238"/>
<path d="M245.5 97C245.4 97 245.2 97 245.1 97C245 97 244.8 96.9 244.7 96.8C243.9 96.1 243 95.5 242 95.2C241 94.9 239.9 94.8 238.8 95C238.7 95 238.6 95.1 238.5 95C238.4 95 238.3 95 238.2 94.9C238.1 94.8 238 94.8 237.9 94.7C237.8 94.6 237.8 94.5 237.7 94.4C237.7 94.3 237.7 94.2 237.7 94.1C237.7 94 237.8 93.9 237.8 93.8C237.9 93.7 238 93.6 238 93.6C238.1 93.5 238.2 93.5 238.3 93.5C239.6 93.3 241 93.3 242.3 93.7C243.6 94.1 244.8 94.8 245.7 95.7C245.9 95.8 246 96.1 246 96.3C246 96.5 245.9 96.7 245.8 96.9C245.8 96.9 245.7 97 245.5 97Z" fill="#263238"/>
<path d="M199.3 74.5C199.3 74.5 211.7 50.5 234.8 55.4C234.8 55.4 230.4 56.4 228.5 58.1C228.5 58.1 248.7 56.3 255 70.5L251.1 68.2C251.1 68.2 256.2 80 250.2 87.7L249.1 83.8C249.1 83.8 240.8 94 228.5 91.1L232.8 88.9C232.8 88.9 211.6 88.3 206.3 82.8C201.1 77.5 199.3 74.5 199.3 74.5Z" fill="#263238"/>
<path d="M242 126.7C241.9 126.7 241.8 126.7 241.7 126.6C241.6 126.5 241.5 126.5 241.5 126.4C238.4 123 232.9 124.3 232.8 124.3C232.6 124.3 232.5 124.3 232.3 124.2C232.2 124.1 232.1 124 232 123.8C232 123.6 232 123.5 232.1 123.3C232.2 123.1 232.3 123 232.5 123C232.8 122.9 238.8 121.5 242.5 125.5C242.6 125.6 242.7 125.8 242.7 126C242.7 126.2 242.6 126.3 242.5 126.5C242.4 126.6 242.4 126.6 242.3 126.6C242.2 126.7 242.1 126.7 242 126.7Z" fill="#263238"/>
<path d="M76.7998 306.2H415.8V322H76.7998V306.2Z" fill="#B97964"/>
<path opacity="0.2" d="M77 306.2H416V322H77V306.2Z" fill="#FAFAFA"/>
<path d="M420.9 306.2H72.7002C71.6002 306.2 70.6002 306.6 69.9002 307.4C69.2002 308.1 68.7002 309.1 68.7002 310.2C68.7002 311.3 69.1002 312.3 69.9002 313C70.6002 313.7 71.7002 314.2 72.7002 314.2H420.8C421.8 314.2 422.8 313.8 423.6 313C424.4 312.2 424.8 311.3 424.8 310.2C424.8 309.2 424.4 308.2 423.6 307.4C422.9 306.6 421.9 306.2 420.9 306.2Z" fill="#B97964"/>
<path opacity="0.4" d="M421.1 306.2H73C71.9 306.2 70.9 306.6 70.2 307.4C69.5 308.1 69 309.1 69 310.2C69 311.3 69.4 312.3 70.2 313C70.9 313.7 72 314.2 73 314.2H421.1C422.1 314.2 423.1 313.8 423.9 313C424.6 312.3 425.1 311.3 425.1 310.2C425.1 309.2 424.7 308.2 423.9 307.4C423.2 306.6 422.2 306.2 421.1 306.2Z" fill="#FAFAFA"/>
</g>
<defs>
<clipPath id="clip0_525_537">
<rect width="500" height="322" fill="white"/>
</clipPath>
</defs>
</svg>
