<svg width="500" height="350" viewBox="0 0 500 350" fill="none" xmlns="http://www.w3.org/2000/svg">
<g clip-path="url(#clip0_571_3)">
<g opacity="0.15">
<path d="M500 304.1H0V304.3H500V304.1Z" fill="#EBEBEB"/>
<path d="M135.1 320.2H102V320.4H135.1V320.2Z" fill="#EBEBEB"/>
<path d="M214.7 312.7H171.1V312.9H214.7V312.7Z" fill="#EBEBEB"/>
<path d="M101.1 311H52.5V311.2H101.1V311Z" fill="#EBEBEB"/>
<path d="M281.9 314.3H247.6V314.5H281.9V314.3Z" fill="#EBEBEB"/>
<path d="M449.9 314.3H442.5V314.5H449.9V314.3Z" fill="#EBEBEB"/>
<path d="M339.4 314.3H290.8V314.5H339.4V314.3Z" fill="#EBEBEB"/>
<path d="M420.3 318.6H326.6V318.8H420.3V318.6Z" fill="#EBEBEB"/>
<path d="M81.7999 243.4H68.3999V304.1H81.7999V243.4Z" fill="#E6E6E6"/>
<path d="M73.4001 243.4H64.1001V304.1H73.4001V243.4Z" fill="#F0F0F0"/>
<path d="M117.4 243.4H64.2002V262.6H117.4V243.4Z" fill="#F0F0F0"/>
<path d="M126.1 262.7H112.7V304.2H126.1V262.7Z" fill="#E6E6E6"/>
<path d="M117.3 262.7H108.5V304.2H117.3V262.7Z" fill="#F0F0F0"/>
<path d="M221.4 262.7H208V304.2H221.4V262.7Z" fill="#E6E6E6"/>
<path d="M213.1 262.7H203.8V304.2H213.1V262.7Z" fill="#F0F0F0"/>
<path d="M177.1 262.7H163.7V304.2H177.1V262.7Z" fill="#E6E6E6"/>
<path d="M168.8 262.7H159.5V304.2H168.8V262.7Z" fill="#F0F0F0"/>
<path d="M221.4 243.4H117.3V262.6H221.4V243.4Z" fill="#E6E6E6"/>
<path d="M440.5 7.90002H288.2V152.7H440.5V7.90002Z" fill="#E6E6E6"/>
<path d="M439 7.90002H284.9V152.7H439V7.90002Z" fill="#F5F5F5"/>
<path d="M438.5 5.30001H286.2C285.5 5.30001 284.9 4.70001 284.9 4.00001C284.9 3.30001 285.5 2.70001 286.2 2.70001H438.5C439.2 2.70001 439.8 3.30001 439.8 4.00001C439.8 4.70001 439.2 5.30001 438.5 5.30001Z" fill="#E6E6E6"/>
<path d="M440.5 152.7H288.2V155.3H440.5V152.7Z" fill="#E6E6E6"/>
<path d="M416.1 152.7H269.4V155.3H416.1V152.7Z" fill="#F5F5F5"/>
<path d="M434.3 14H289.6V146.5H434.3V14Z" fill="#FAFAFA"/>
<path d="M384 146.5L372.9 14H352.8L363.9 146.5H384Z" fill="white"/>
<path d="M358.3 146.5L347.1 14H337.8L349 146.5H358.3Z" fill="white"/>
<path d="M290.2 13.2H289.6V132.6H290.2V13.2Z" fill="#E6E6E6"/>
<g opacity="0.4">
<path d="M444.1 8.70002V129.8C435.2 129.8 427.2 124.6 423.6 116.5C415.9 99.4 404.1 65.8 400.4 14.9C399.8 7.10002 402.4 -0.0999756 405.8 -0.0999756H440.4C442.5 2.44156e-05 444.1 3.90002 444.1 8.70002Z" fill="#E6E6E6"/>
</g>
<g opacity="0.4">
<path d="M281 8.7V129.8C289.9 129.8 297.9 124.6 301.5 116.5C309.2 99.5 321 65.8 324.7 15C325.3 7.2 322.7 0 319.3 0H284.7C282.6 0 281 3.9 281 8.7Z" fill="#E6E6E6"/>
</g>
<path d="M218.9 7.90002H66.6001V152.7H218.9V7.90002Z" fill="#E6E6E6"/>
<path d="M217.3 7.90002H63.2002V152.7H217.3V7.90002Z" fill="#F5F5F5"/>
<path d="M216.8 5.30001H64.5998C63.8998 5.30001 63.2998 4.70001 63.2998 4.00001C63.2998 3.30001 63.8998 2.70001 64.5998 2.70001H216.9C217.6 2.70001 218.2 3.30001 218.2 4.00001C218.2 4.70001 217.6 5.30001 216.8 5.30001Z" fill="#E6E6E6"/>
<path d="M218.9 152.7H66.6001V155.3H218.9V152.7Z" fill="#E6E6E6"/>
<path d="M194.5 152.7H47.7998V155.3H194.5V152.7Z" fill="#F5F5F5"/>
<path d="M212.7 14H68V146.5H212.7V14Z" fill="#FAFAFA"/>
<path d="M162.4 146.5L151.2 14H131.2L142.3 146.5H162.4Z" fill="white"/>
<path d="M136.6 146.5L125.5 14H116.2L127.3 146.5H136.6Z" fill="white"/>
<path d="M68.6 13.2H68V132.6H68.6V13.2Z" fill="#E6E6E6"/>
<g opacity="0.4">
<path d="M222.5 8.70002V129.8C213.7 129.8 205.6 124.6 202 116.5C194.3 99.4 182.5 65.8 178.8 14.9C178.2 7.10002 180.8 -0.0999756 184.2 -0.0999756H218.8C220.8 2.44156e-05 222.5 3.90002 222.5 8.70002Z" fill="#E6E6E6"/>
</g>
<g opacity="0.4">
<path d="M59.3999 8.7V129.8C68.2999 129.8 76.2999 124.6 79.8999 116.5C87.5999 99.5 99.3999 65.8 103.1 15C103.7 7.2 101.1 0 97.6999 0H63.0999C60.9999 0 59.3999 3.9 59.3999 8.7Z" fill="#E6E6E6"/>
</g>
<path d="M305.4 213.7H268.7V304.1H305.4V213.7Z" fill="#E6E6E6"/>
<path d="M275.7 304.1H268.7V288.8H283L275.7 304.1Z" fill="#F0F0F0"/>
<path d="M442.6 213.7H405.9V304.1H442.6V213.7Z" fill="#E6E6E6"/>
<path d="M446.6 208.6H408.2V213.8H446.6V208.6Z" fill="#E0E0E0"/>
<path d="M412 213.7H268.7V294.7H412V213.7Z" fill="#F0F0F0"/>
<path d="M414.6 208.6H264.8V213.8H414.6V208.6Z" fill="#F5F5F5"/>
<path d="M338 250.1H274.1V275.7H338V250.1Z" fill="#FAFAFA"/>
<path d="M406.6 250.1H342.7V275.7H406.6V250.1Z" fill="#FAFAFA"/>
<path d="M368.3 254.3H381C386.2 254.4 391.4 252.7 395.5 249.5H353.8C358 252.7 363.1 254.4 368.3 254.3Z" fill="#F0F0F0"/>
<path d="M299.1 254.3H311.7C316.9 254.4 322.1 252.7 326.2 249.5H284.5C288.7 252.7 293.8 254.4 299.1 254.3Z" fill="#F0F0F0"/>
<path d="M338 219.5H274.1V245.1H338V219.5Z" fill="#FAFAFA"/>
<path d="M406.6 219.5H342.7V245.1H406.6V219.5Z" fill="#FAFAFA"/>
<path d="M368.3 223.7H381C386.2 223.8 391.4 222.1 395.5 218.9H353.8C358 222.1 363.1 223.8 368.3 223.7Z" fill="#F0F0F0"/>
<path d="M299.1 223.7H311.7C316.9 223.8 322.1 222.1 326.2 218.9H284.5C288.7 222.1 293.8 223.8 299.1 223.7Z" fill="#F0F0F0"/>
<path d="M405 304.1H412V288.8H397.7L405 304.1Z" fill="#F0F0F0"/>
<path d="M161.2 220.9C164 221.5 166.8 219.7 167.4 216.8C167.4 216.6 167.5 216.5 167.5 216.3C168.1 210.5 174.3 213.2 177.5 204.9C182.1 193.1 168 196.9 176.7 188.6C183.9 181.6 162.7 169.8 158.5 180.2C157.4 179.5 152.8 179.3 149.4 188.2C146 197.1 150.1 201.7 145.8 202.4C142.7 202.9 141 206.6 142.3 210.6C144.1 216 139.1 216 140.2 219.8C141.3 223.6 143.9 220.5 146.8 224.8C149.4 228.6 155.2 226.2 156.3 222.9C157.4 219.7 158.5 220.4 161.2 220.9Z" fill="#E0E0E0"/>
<path d="M122.2 219.7C118.4 219.7 114.4 217.1 114.6 212.5C115 205 106 207.1 103.4 195.9C99.7001 180.1 112.2 190.5 108 175.5C105 164.6 135.2 154.5 134.4 168.9C136 168.2 142.3 169.1 145.1 180.9C147.9 192.7 141.3 197.7 146.9 199.5C151 200.8 152.5 205.8 149.9 210.5C146.3 217 153.1 218 150.8 222.5C148.5 227 145.6 222.6 140.8 227.3C136.5 231.5 129.1 227.2 128.3 222.9C127.6 219.1 125.9 219.6 122.2 219.7Z" fill="#EBEBEB"/>
<path d="M181.9 216.5C181.9 216.5 180.9 243.4 143.1 243.4C105.3 243.4 104.3 216.5 104.3 216.5H181.9Z" fill="#F0F0F0"/>
</g>
<path d="M250 349.3C357.088 349.3 443.9 344.241 443.9 338C443.9 331.759 357.088 326.7 250 326.7C142.912 326.7 56.1001 331.759 56.1001 338C56.1001 344.241 142.912 349.3 250 349.3Z" fill="black" fill-opacity="0.15"/>
<path d="M113.2 171.7C142.803 171.7 166.8 147.702 166.8 118.1C166.8 88.4975 142.803 64.5 113.2 64.5C83.5976 64.5 59.6001 88.4975 59.6001 118.1C59.6001 147.702 83.5976 171.7 113.2 171.7Z" fill="#49CB91"/>
<path d="M113.2 181.7C112.2 181.7 111.2 181.7 110.2 181.6C109.9 181.6 109.7 181.3 109.7 181.1C109.7 180.8 110 180.6 110.2 180.6C111.2 180.6 112.2 180.7 113.2 180.7H113.4C113.7 180.7 113.9 180.9 113.9 181.2C113.9 181.5 113.7 181.7 113.4 181.7H113.2ZM116.4 181.7C116.1 181.7 115.9 181.5 115.9 181.2C115.9 180.9 116.1 180.7 116.4 180.7C117.4 180.7 118.4 180.6 119.4 180.5C119.7 180.5 119.9 180.7 119.9 181C119.9 181.3 119.7 181.5 119.5 181.5C118.4 181.5 117.4 181.6 116.4 181.7ZM107.2 181.5C106.2 181.4 105.2 181.3 104.2 181.1C103.9 181.1 103.7 180.8 103.8 180.5C103.8 180.2 104.1 180 104.4 180.1C105.4 180.2 106.4 180.3 107.4 180.5C107.7 180.5 107.9 180.7 107.9 181C107.9 181.3 107.7 181.5 107.4 181.5H107.2ZM122.3 181.1C122.1 181.1 121.8 180.9 121.8 180.7C121.8 180.4 121.9 180.2 122.2 180.1C123.2 180 124.2 179.8 125.1 179.6C125.4 179.5 125.6 179.7 125.7 180C125.8 180.3 125.6 180.5 125.3 180.6C124.4 180.8 123.4 180.9 122.3 181.1ZM101.2 180.6C100.1 180.4 99.1001 180.2 98.1001 180C97.8001 179.9 97.7001 179.7 97.7001 179.4C97.8001 179.1 98.0001 179 98.3001 179C99.3001 179.2 100.2 179.5 101.2 179.6C101.5 179.7 101.6 179.9 101.6 180.2C101.6 180.4 101.5 180.6 101.2 180.6ZM128.2 179.9C127.9 179.9 127.7 179.7 127.6 179.5C127.5 179.3 127.8 179 128 178.9C129 178.7 129.9 178.4 130.9 178.1C131.2 178 131.5 178.2 131.5 178.5C131.6 178.8 131.4 179.1 131.1 179.1C130.1 179.4 129.2 179.6 128.2 179.9ZM95.4001 179.2H95.3001C94.3001 178.9 93.4001 178.6 92.4001 178.3C92.1001 178.2 92.0001 177.9 92.1001 177.6C92.2001 177.3 92.5001 177.2 92.8001 177.3C93.7001 177.6 94.7001 177.9 95.6001 178.2C95.9001 178.3 96.0001 178.6 95.9001 178.8C95.9001 179 95.7001 179.2 95.4001 179.2ZM134 178.2C133.8 178.2 133.6 178.1 133.5 177.9C133.4 177.6 133.6 177.4 133.8 177.3C134.7 177 135.7 176.6 136.6 176.3C136.8 176.2 137.1 176.3 137.3 176.5C137.4 176.7 137.3 177 137.1 177.2H137C136.1 177.6 135.1 177.9 134.2 178.3C134.1 178.2 134.1 178.2 134 178.2ZM89.8001 177.2C89.7001 177.2 89.7001 177.2 89.6001 177.2C88.7001 176.8 87.7001 176.4 86.8001 176C86.6001 175.9 86.4001 175.6 86.6001 175.3C86.7001 175 87.0001 174.9 87.3001 175C88.2001 175.4 89.1001 175.8 90.0001 176.2C90.3001 176.3 90.4001 176.6 90.3001 176.8C90.1001 177.1 89.9001 177.2 89.8001 177.2ZM139.6 175.9C139.3 175.9 139.1 175.7 139.1 175.4C139.1 175.2 139.2 175 139.4 175C140.3 174.6 141.2 174.1 142.1 173.7C142.3 173.6 142.6 173.7 142.8 173.9C142.9 174.1 142.8 174.4 142.6 174.6C141.7 175.1 140.8 175.5 139.9 175.9C139.7 175.9 139.6 175.9 139.6 175.9ZM84.3001 174.7C84.2001 174.7 84.1001 174.7 84.1001 174.6C83.2001 174.1 82.3001 173.7 81.4001 173.1C81.1001 173 81.0001 172.7 81.2001 172.4C81.3001 172.1 81.6001 172 81.9001 172.2C81.9001 172.2 82.0001 172.2 82.0001 172.3C82.9001 172.8 83.7001 173.3 84.6001 173.7C84.8001 173.8 84.9001 174.1 84.8001 174.4C84.7001 174.6 84.5001 174.7 84.3001 174.7ZM144.9 173.2C144.6 173.2 144.4 173 144.4 172.7C144.4 172.5 144.5 172.3 144.7 172.2C145.6 171.7 146.4 171.2 147.2 170.6C147.4 170.4 147.7 170.5 147.9 170.7C148 170.9 148 171.2 147.8 171.4C147 171.9 146.1 172.5 145.2 173C145 173.2 144.9 173.2 144.9 173.2ZM79.1001 171.7C79.0001 171.7 78.9001 171.7 78.8001 171.6C78.0001 171.1 77.1001 170.5 76.3001 169.9C76.1001 169.7 76.0001 169.4 76.2001 169.2C76.4001 169 76.7001 168.9 76.9001 169.1C77.7001 169.7 78.5001 170.2 79.4001 170.8C79.6001 171 79.7001 171.3 79.6001 171.5C79.4001 171.6 79.3001 171.7 79.1001 171.7ZM149.9 169.9C149.7 169.9 149.6 169.8 149.5 169.7C149.3 169.5 149.4 169.2 149.6 169C150.4 168.4 151.2 167.8 152 167.2C152.2 167 152.5 167.1 152.7 167.3C152.9 167.5 152.8 167.8 152.6 168C151.8 168.6 151 169.2 150.2 169.8C150.1 169.9 150 169.9 149.9 169.9ZM74.2001 168.2C74.1001 168.2 74.0001 168.2 73.9001 168.1C73.1001 167.5 72.3001 166.8 71.6001 166.2C71.4001 166 71.4001 165.7 71.6001 165.5C71.8001 165.3 72.1001 165.3 72.3001 165.5C73.0001 166.1 73.8001 166.8 74.6001 167.4C74.8001 167.6 74.8001 167.9 74.7001 168.1C74.5001 168.1 74.4001 168.2 74.2001 168.2ZM154.6 166.2C154.3 166.2 154.1 166 154.1 165.7C154.1 165.6 154.2 165.4 154.3 165.3C155 164.7 155.8 164 156.5 163.3C156.7 163.1 157 163.1 157.2 163.3C157.4 163.5 157.4 163.8 157.2 164C156.5 164.7 155.7 165.4 155 166C154.9 166.1 154.7 166.2 154.6 166.2ZM69.7001 164.2C69.6001 164.2 69.5001 164.1 69.4001 164.1C68.7001 163.4 68.0001 162.7 67.3001 162C67.1001 161.8 67.1001 161.5 67.3001 161.3C67.5001 161.1 67.8001 161.1 68.0001 161.3C68.7001 162 69.4001 162.7 70.1001 163.4C70.3001 163.6 70.3001 163.9 70.1001 164.1C69.9001 164.2 69.8001 164.2 69.7001 164.2ZM158.9 162C158.8 162 158.7 161.9 158.6 161.9C158.4 161.7 158.4 161.4 158.6 161.2C159.3 160.5 160 159.7 160.6 159C160.8 158.8 161.1 158.7 161.3 158.9C161.5 159.1 161.6 159.4 161.4 159.6C161.4 159.6 161.4 159.7 161.3 159.7C160.7 160.5 160 161.2 159.3 161.9C159.2 162 159.1 162.1 158.9 162ZM65.5001 159.9C65.4001 159.9 65.2001 159.8 65.1001 159.7C64.4001 158.9 63.8001 158.1 63.2001 157.4C63.0001 157.2 63.1001 156.9 63.3001 156.7C63.5001 156.5 63.8001 156.6 64.0001 156.8C64.6001 157.6 65.2001 158.3 65.9001 159.1C66.1001 159.3 66.1001 159.6 65.8001 159.8C65.8001 159.9 65.6001 159.9 65.5001 159.9ZM162.8 157.5C162.7 157.5 162.6 157.5 162.5 157.4C162.3 157.2 162.2 156.9 162.4 156.7C163 155.9 163.6 155.1 164.2 154.3C164.3 154.1 164.6 154 164.9 154.1C165.1 154.2 165.2 154.5 165.1 154.8C165.1 154.8 165.1 154.8 165 154.9C164.4 155.7 163.8 156.5 163.2 157.3C163.1 157.4 163 157.5 162.8 157.5ZM61.8001 155.2C61.6001 155.2 61.5001 155.1 61.4001 155C60.8001 154.2 60.2001 153.3 59.7001 152.5C59.5001 152.3 59.6001 152 59.8001 151.8C60.0001 151.6 60.3001 151.7 60.5001 151.9C61.0001 152.7 61.6001 153.5 62.2001 154.4C62.4001 154.6 62.3001 154.9 62.1001 155.1C62.0001 155.2 61.9001 155.2 61.8001 155.2ZM166.3 152.6C166.2 152.6 166.1 152.6 166 152.5C165.8 152.4 165.7 152 165.9 151.8C166.4 151 167 150.1 167.5 149.3C167.6 149.1 167.9 149 168.2 149.1C168.4 149.2 168.5 149.5 168.4 149.8C167.9 150.7 167.4 151.5 166.8 152.4C166.6 152.5 166.5 152.6 166.3 152.6ZM58.6001 150.2C58.4001 150.2 58.3001 150.1 58.2001 150C57.7001 149.1 57.2001 148.2 56.7001 147.4C56.6001 147.2 56.7001 146.9 56.9001 146.7C57.1001 146.6 57.4001 146.7 57.6001 146.9C58.1001 147.8 58.5001 148.7 59.0001 149.5C59.1001 149.7 59.1001 150 58.8001 150.2C58.7001 150.1 58.6001 150.2 58.6001 150.2ZM169.3 147.4C169.2 147.4 169.1 147.4 169.1 147.3C168.9 147.2 168.8 146.9 168.9 146.6C169.3 145.7 169.8 144.8 170.2 143.9C170.3 143.7 170.6 143.5 170.9 143.7C171.1 143.8 171.3 144.1 171.2 144.3C170.8 145.2 170.3 146.1 169.9 147C169.7 147.3 169.5 147.4 169.3 147.4ZM55.8001 144.8C55.6001 144.8 55.4001 144.7 55.3001 144.5C54.9001 143.6 54.5001 142.7 54.1001 141.7C54.0001 141.4 54.1001 141.2 54.4001 141.1C54.7001 141 54.9001 141.1 55.0001 141.4C55.4001 142.3 55.8001 143.2 56.2001 144.1C56.3001 144.3 56.2001 144.6 56.0001 144.8C56.0001 144.8 55.9001 144.8 55.8001 144.8ZM171.8 141.9C171.7 141.9 171.7 141.9 171.6 141.9C171.3 141.8 171.2 141.5 171.3 141.3C171.7 140.4 172 139.4 172.3 138.5C172.4 138.2 172.7 138.1 172.9 138.2C173.2 138.3 173.3 138.6 173.2 138.8C172.9 139.8 172.5 140.7 172.1 141.7C172.1 141.8 172 141.9 171.8 141.9ZM53.6001 139.3C53.4001 139.3 53.2001 139.2 53.1001 139C52.8001 138.1 52.5001 137.1 52.2001 136.1C52.1001 135.8 52.3001 135.5 52.6001 135.5C52.9001 135.4 53.2001 135.6 53.2001 135.9C53.5001 136.8 53.8001 137.8 54.1001 138.7C54.2001 138.9 54.1001 139.2 53.8001 139.3C53.7001 139.3 53.6001 139.3 53.6001 139.3ZM173.8 136.3H173.7C173.4 136.2 173.3 136 173.4 135.7C173.7 134.8 173.9 133.8 174.2 132.8C174.3 132.5 174.5 132.4 174.8 132.4C175.1 132.5 175.2 132.7 175.2 133C175 134 174.7 135 174.4 135.9C174.2 136.1 174 136.3 173.8 136.3ZM51.9001 133.5C51.7001 133.5 51.5001 133.3 51.4001 133.1C51.2001 132.1 50.9001 131.1 50.8001 130.1C50.7001 129.8 50.9001 129.6 51.2001 129.5C51.5001 129.5 51.7001 129.6 51.8001 129.9C52.0001 130.9 52.2001 131.8 52.4001 132.8C52.5001 133.1 52.3001 133.3 52.0001 133.4L51.9001 133.5ZM175.2 130.4H175.1C174.8 130.4 174.7 130.1 174.7 129.8C174.9 128.8 175 127.8 175.2 126.9C175.2 126.6 175.5 126.4 175.8 126.5C176.1 126.5 176.3 126.8 176.2 127.1C176.1 128.1 175.9 129.1 175.7 130.1C175.6 130.3 175.4 130.4 175.2 130.4ZM50.7001 127.6C50.5001 127.6 50.2001 127.4 50.2001 127.2C50.0001 126.2 49.9001 125.2 49.8001 124.2C49.8001 123.9 50.0001 123.7 50.2001 123.6C50.4001 123.5 50.7001 123.8 50.8001 124C50.9001 125 51.0001 126 51.2001 127C51.3001 127.4 51.1001 127.6 50.7001 127.6ZM176 124.5C175.7 124.5 175.5 124.2 175.5 124C175.6 123 175.7 122 175.7 121C175.7 120.7 175.9 120.5 176.2 120.5C176.5 120.5 176.7 120.7 176.7 121C176.7 122 176.6 123 176.5 124C176.5 124.3 176.3 124.5 176.1 124.5H176ZM50.2001 121.7C49.9001 121.7 49.7001 121.5 49.7001 121.2C49.7001 120.2 49.6001 119.2 49.6001 118.2C49.6001 117.9 49.8001 117.7 50.1001 117.7C50.4001 117.7 50.6001 117.9 50.6001 118.2C50.6001 119.2 50.6001 120.2 50.7001 121.2C50.7001 121.4 50.5001 121.7 50.2001 121.7ZM176.3 118.5C176 118.5 175.8 118.3 175.8 118C175.8 117 175.8 116 175.7 115C175.7 114.7 175.9 114.5 176.2 114.5C176.5 114.5 176.7 114.7 176.7 115C176.8 116 176.8 117 176.8 118C176.8 118.2 176.6 118.5 176.3 118.5ZM50.2001 115.7C49.9001 115.7 49.7001 115.5 49.7001 115.2C49.7001 114.2 49.8001 113.2 49.9001 112.2C49.9001 111.9 50.2001 111.7 50.4001 111.7C50.7001 111.7 50.9001 112 50.9001 112.2C50.8001 113.2 50.7001 114.2 50.7001 115.2C50.7001 115.5 50.4001 115.7 50.2001 115.7ZM176 112.5C175.7 112.5 175.5 112.3 175.5 112C175.4 111 175.3 110 175.1 109.1C175.1 108.8 175.3 108.6 175.5 108.5C175.8 108.5 176 108.7 176.1 108.9C176.2 109.9 176.4 110.9 176.5 111.9C176.5 112.2 176.3 112.5 176 112.5ZM50.7001 109.7C50.4001 109.7 50.2001 109.4 50.2001 109.1C50.4001 108.1 50.5001 107.1 50.7001 106.1C50.8001 105.8 51.0001 105.7 51.3001 105.7C51.6001 105.7 51.7001 106 51.7001 106.3C51.5001 107.3 51.4001 108.2 51.2001 109.2C51.2001 109.5 51.0001 109.7 50.7001 109.7ZM175.1 106.6C174.9 106.6 174.6 106.4 174.6 106.2C174.4 105.2 174.2 104.3 174 103.3C173.9 103 174.1 102.8 174.4 102.7C174.7 102.6 174.9 102.8 175 103.1C175.2 104.1 175.5 105.1 175.6 106.1C175.7 106.3 175.5 106.5 175.1 106.6C175.2 106.6 175.2 106.6 175.1 106.6ZM51.9001 103.8H51.8001C51.5001 103.7 51.4001 103.5 51.4001 103.2C51.6001 102.2 51.9001 101.2 52.2001 100.3C52.3001 100 52.6001 99.9 52.8001 100C53.1001 100.1 53.2001 100.4 53.1001 100.6C52.8001 101.6 52.6001 102.5 52.3001 103.5C52.3001 103.6 52.1001 103.8 51.9001 103.8ZM173.7 100.7C173.5 100.7 173.3 100.6 173.2 100.3C172.9 99.4 172.6 98.4 172.3 97.5C172.2 97.2 172.3 97 172.5 96.8C172.8 96.7 173 96.8 173.2 97V97.1C173.5 98 173.8 99 174.1 100C174.2 100.3 174 100.5 173.8 100.6C173.8 100.7 173.7 100.7 173.7 100.7ZM53.5001 98C53.4001 98 53.4001 98 53.3001 98C53.0001 97.9 52.9001 97.6 53.0001 97.4C53.3001 96.4 53.7001 95.5 54.1001 94.6C54.2001 94.3 54.5001 94.2 54.7001 94.3C55.0001 94.4 55.1001 94.7 55.0001 94.9V95C54.6001 95.9 54.3001 96.9 54.0001 97.8C54.0001 97.9 53.8001 98.1 53.5001 98ZM171.7 95C171.5 95 171.3 94.9 171.2 94.7C170.8 93.8 170.4 92.9 170 92C169.9 91.7 170 91.4 170.2 91.3C170.5 91.2 170.7 91.3 170.9 91.5C171.3 92.4 171.7 93.3 172.1 94.3C172.2 94.6 172.1 94.8 171.8 94.9C171.8 95 171.8 95.1 171.7 95ZM55.8001 92.5C55.7001 92.5 55.7001 92.5 55.6001 92.4C55.3001 92.3 55.2001 92 55.4001 91.7C55.8001 90.8 56.3001 89.9 56.7001 89C56.9001 88.8 57.2001 88.7 57.4001 88.9C57.6001 89 57.7001 89.3 57.6001 89.5C57.1001 90.4 56.7001 91.3 56.3001 92.2C56.2001 92.3 56.0001 92.5 55.8001 92.5ZM169.2 89.6C169 89.6 168.8 89.5 168.8 89.3C168.3 88.4 167.9 87.5 167.4 86.7C167.3 86.5 167.4 86.2 167.6 86C167.8 85.9 168.1 85.9 168.3 86.2C168.8 87.1 169.3 88 169.7 88.8C169.8 89 169.7 89.3 169.5 89.5C169.4 89.6 169.3 89.6 169.2 89.6ZM58.5001 87.1C58.4001 87.1 58.3001 87.1 58.3001 87C58.1001 86.9 58.0001 86.6 58.1001 86.3C58.6001 85.4 59.1001 84.6 59.7001 83.7C59.8001 83.5 60.1001 83.4 60.4001 83.5C60.6001 83.6 60.7001 84 60.6001 84.2C60.0001 85.2 59.5001 86 59.0001 86.9C58.9001 87 58.7001 87.1 58.5001 87.1ZM166.2 84.5C166 84.5 165.9 84.4 165.8 84.3C165.3 83.5 164.7 82.6 164.1 81.8C163.9 81.6 163.9 81.3 164.2 81.1C164.4 80.9 164.7 80.9 164.9 81.2C164.9 81.2 164.9 81.2 165 81.3C165.6 82.1 166.1 82.9 166.7 83.8C166.8 84 166.8 84.3 166.6 84.5C166.4 84.4 166.3 84.4 166.2 84.5ZM61.8001 82.1C61.7001 82.1 61.6001 82.1 61.5001 82C61.3001 81.8 61.2001 81.5 61.4001 81.3C62.0001 80.5 62.6001 79.7 63.2001 78.9C63.4001 78.7 63.7001 78.6 63.9001 78.8C64.1001 79 64.2001 79.3 64.0001 79.5C63.4001 80.3 62.8001 81.1 62.2001 81.9C62.1001 82 62.0001 82.1 61.8001 82.1ZM162.7 79.6C162.5 79.6 162.4 79.5 162.3 79.4C161.7 78.6 161 77.9 160.4 77.1C160.2 76.9 160.2 76.6 160.4 76.4C160.6 76.2 160.9 76.2 161.1 76.4L161.2 76.5C161.9 77.3 162.5 78 163.1 78.8C163.3 79 163.2 79.3 163 79.5C162.9 79.5 162.8 79.6 162.7 79.6ZM65.5001 77.3C65.4001 77.3 65.3001 77.3 65.2001 77.2C65.0001 77 65.0001 76.7 65.1001 76.5C65.8001 75.7 66.4001 75 67.1001 74.3C67.3001 74.1 67.6001 74.1 67.8001 74.3C68.0001 74.5 68.0001 74.8 67.8001 75C67.1001 75.7 66.4001 76.4 65.8001 77.2C65.7001 77.3 65.6001 77.3 65.5001 77.3ZM158.8 75.1C158.7 75.1 158.5 75 158.4 74.9C157.7 74.2 157 73.5 156.3 72.8C156.1 72.6 156.1 72.3 156.3 72.1C156.5 71.9 156.8 71.9 157 72.1C157.7 72.8 158.4 73.5 159.1 74.2C159.3 74.4 159.3 74.7 159.1 74.9C159 75 158.9 75.1 158.8 75.1ZM69.7001 73C69.4001 73 69.2001 72.8 69.2001 72.5C69.2001 72.4 69.3001 72.2 69.4001 72.1C70.1001 71.4 70.9001 70.7 71.6001 70.1C71.8001 69.9 72.1001 69.9 72.3001 70.2C72.5001 70.4 72.5001 70.7 72.2001 70.9C71.5001 71.5 70.7001 72.2 70.0001 72.9C69.9001 73 69.8001 73 69.7001 73ZM154.4 70.9C154.3 70.9 154.2 70.9 154.1 70.8C153.3 70.2 152.6 69.5 151.8 68.9C151.6 68.7 151.5 68.4 151.7 68.2C151.9 68 152.2 67.9 152.4 68.1C152.4 68.1 152.4 68.1 152.5 68.2C153.3 68.8 154.1 69.5 154.8 70.1C155 70.3 155 70.6 154.8 70.8C154.7 70.8 154.5 70.9 154.4 70.9ZM74.2001 69.1C74.0001 69.1 73.9001 69 73.8001 68.9C73.6001 68.7 73.7001 68.4 73.9001 68.2C74.7001 67.6 75.5001 67 76.3001 66.4C76.5001 66.2 76.8001 66.3 77.0001 66.5C77.2001 66.7 77.1001 67 76.9001 67.2C76.1001 67.8 75.3001 68.4 74.5001 69C74.4001 69 74.3001 69.1 74.2001 69.1ZM149.7 67.2C149.6 67.2 149.5 67.2 149.4 67.1C148.6 66.5 147.8 66 146.9 65.4C146.7 65.3 146.6 64.9 146.8 64.7C146.9 64.5 147.2 64.4 147.5 64.5C148.3 65 149.2 65.6 150 66.2C150.2 66.4 150.3 66.7 150.1 66.9C150 67.1 149.9 67.2 149.7 67.2ZM79.1001 65.6C78.9001 65.6 78.8001 65.5 78.7001 65.4C78.6001 65.2 78.6001 64.9 78.9001 64.7C79.7001 64.2 80.6001 63.6 81.5001 63.1C81.7001 63 82.0001 63 82.2001 63.3C82.4001 63.6 82.3001 63.8 82.0001 64C81.2001 64.5 80.3001 65 79.5001 65.6C79.2001 65.6 79.1001 65.6 79.1001 65.6ZM144.6 64C144.5 64 144.4 64 144.4 63.9C143.5 63.4 142.7 62.9 141.8 62.5C141.6 62.4 141.5 62.1 141.6 61.8C141.7 61.5 142 61.5 142.3 61.6C143.2 62.1 144.1 62.5 145 63C145.2 63.1 145.3 63.4 145.2 63.7C145 63.9 144.8 64 144.6 64ZM84.2001 62.6C84.0001 62.6 83.8001 62.5 83.8001 62.3C83.7001 62.1 83.8001 61.8 84.0001 61.6C84.9001 61.1 85.8001 60.7 86.7001 60.3C87.0001 60.2 87.2001 60.3 87.4001 60.5C87.5001 60.7 87.4001 61 87.2001 61.2C86.3001 61.6 85.4001 62.1 84.5001 62.5C84.4001 62.6 84.3001 62.6 84.2001 62.6ZM139.3 61.2C139.2 61.2 139.2 61.2 139.1 61.1C138.2 60.7 137.3 60.3 136.4 59.9C136.1 59.8 136 59.5 136.1 59.3C136.2 59.1 136.5 58.9 136.7 59C137.6 59.4 138.6 59.8 139.5 60.2C139.8 60.3 139.9 60.6 139.7 60.9C139.7 61.1 139.5 61.2 139.3 61.2ZM89.7001 60.1C89.5001 60.1 89.3001 60 89.2001 59.8C89.1001 59.5 89.2001 59.3 89.5001 59.2C90.4001 58.8 91.4001 58.5 92.3001 58.1C92.6001 58 92.8001 58.2 92.9001 58.4C93.0001 58.7 92.8001 58.9 92.6001 59C91.7001 59.3 90.7001 59.7 89.8001 60.1H89.7001ZM133.7 59C133.6 59 133.6 59 133.5 59C132.6 58.7 131.6 58.4 130.7 58.1C130.4 58 130.3 57.8 130.4 57.5C130.5 57.2 130.8 57.1 131 57.2C132 57.5 132.9 57.8 133.9 58.1C134.2 58.1 134.4 58.4 134.3 58.7C134.2 58.9 134 59.1 133.7 59ZM95.3001 58.1C95.1001 58.1 94.9001 58 94.8001 57.7C94.7001 57.4 94.9001 57.2 95.1001 57.1C96.1001 56.8 97.1001 56.5 98.0001 56.3C98.3001 56.2 98.5001 56.4 98.6001 56.7C98.7001 57 98.5001 57.2 98.2001 57.3C97.2001 57.5 96.3001 57.8 95.3001 58.1C95.4001 58.1 95.4001 58.1 95.3001 58.1ZM127.9 57.3H127.8C126.8 57.1 125.9 56.9 124.9 56.7C124.6 56.6 124.5 56.4 124.5 56.1C124.6 55.8 124.8 55.7 125.1 55.7C126.1 55.9 127.1 56.1 128.1 56.3C128.4 56.4 128.5 56.6 128.5 56.9C128.4 57.1 128.2 57.3 127.9 57.3ZM101.1 56.7C100.9 56.7 100.7 56.5 100.6 56.3C100.6 56 100.7 55.8 101 55.7C102 55.5 103 55.3 104 55.2C104.3 55.2 104.5 55.4 104.6 55.6C104.6 55.9 104.4 56.1 104.2 56.2C103.2 56.3 102.2 56.5 101.3 56.7H101.1ZM122 56.2C121 56.1 120 56 119 55.8C118.7 55.8 118.5 55.5 118.5 55.3C118.5 55.1 118.8 54.8 119 54.8C120 54.9 121 55 122 55.2C122.3 55.2 122.5 55.5 122.5 55.7C122.5 56 122.3 56.2 122 56.2ZM107 55.8C106.7 55.8 106.5 55.6 106.5 55.4C106.5 55.1 106.7 54.9 106.9 54.8C107.9 54.7 108.9 54.6 109.9 54.6C110.2 54.6 110.4 54.8 110.4 55.1C110.4 55.4 110.2 55.6 109.9 55.6C109 55.6 108 55.7 107 55.8ZM116 55.6C115 55.5 114.1 55.5 113.1 55.5C112.8 55.5 112.6 55.3 112.6 55C112.6 54.7 112.8 54.5 113 54.5V55L113.1 54.5C114.1 54.5 115.1 54.5 116 54.6C116.3 54.6 116.5 54.8 116.5 55.1C116.5 55.4 116.4 55.6 116 55.6Z" fill="#49CB91"/>
<path d="M140.8 141.6H129.2L124.6 129.6H103.5L99.2 141.6H88L108.5 88.9H119.7L140.8 141.6ZM121.2 120.7L114 101.1L106.9 120.7H121.2Z" fill="white"/>
<path d="M250 143.4C279.603 143.4 303.6 119.402 303.6 89.8C303.6 60.1975 279.603 36.2 250 36.2C220.398 36.2 196.4 60.1975 196.4 89.8C196.4 119.402 220.398 143.4 250 143.4Z" fill="#C12453"/>
<path d="M250 153.4C249 153.4 248 153.4 247 153.3C246.7 153.3 246.5 153.1 246.5 152.8C246.5 152.5 246.8 152.3 247 152.3C248 152.4 249 152.4 250 152.4H250.2C250.5 152.4 250.7 152.6 250.7 152.9C250.7 153.2 250.5 153.4 250.2 153.4H250ZM253.2 153.3C252.9 153.3 252.7 153.1 252.7 152.8C252.7 152.5 252.9 152.3 253.2 152.3C254.2 152.3 255.2 152.2 256.2 152.1C256.5 152.1 256.7 152.3 256.7 152.6C256.7 152.9 256.5 153.1 256.2 153.1C255.2 153.2 254.2 153.2 253.2 153.3ZM244 153.1C243 153 242 152.9 241 152.7C240.7 152.7 240.5 152.4 240.6 152.1C240.6 151.8 240.9 151.6 241.2 151.7C242.2 151.8 243.2 152 244.2 152.1C244.5 152.1 244.7 152.4 244.6 152.7C244.6 152.9 244.3 153.1 244 153.1ZM259.1 152.7C258.9 152.7 258.6 152.5 258.6 152.3C258.6 152 258.8 151.8 259 151.7C260 151.6 261 151.4 261.9 151.2C262.2 151.1 262.4 151.3 262.5 151.6C262.6 151.9 262.4 152.1 262.1 152.2C261.2 152.4 260.2 152.5 259.1 152.7ZM238.1 152.2C237 152 236 151.8 235 151.6C234.7 151.5 234.6 151.3 234.6 151C234.7 150.7 234.9 150.6 235.2 150.6C236.2 150.8 237.1 151 238.1 151.2C238.4 151.3 238.5 151.5 238.5 151.8C238.5 152.1 238.3 152.2 238.1 152.2ZM265.1 151.5C264.9 151.5 264.7 151.3 264.6 151.1C264.5 150.8 264.7 150.6 264.9 150.5C265.9 150.3 266.8 150 267.8 149.7C268.1 149.6 268.4 149.8 268.4 150.1C268.5 150.4 268.3 150.7 268 150.7C267 151 266.1 151.3 265.1 151.5ZM232.3 150.8H232.2C231.2 150.5 230.3 150.2 229.3 149.9C229 149.8 228.9 149.5 229 149.3C229.1 149 229.4 148.9 229.6 149C230.5 149.3 231.5 149.6 232.4 149.9C232.7 150 232.8 150.3 232.7 150.5C232.7 150.7 232.5 150.8 232.3 150.8ZM270.8 149.8C270.6 149.8 270.4 149.7 270.3 149.5C270.2 149.2 270.4 149 270.6 148.9C271.5 148.6 272.5 148.2 273.4 147.8C273.7 147.7 273.9 147.8 274 148.1C274.1 148.4 274 148.6 273.7 148.7C272.8 149.1 271.8 149.4 270.9 149.8C270.9 149.8 270.9 149.8 270.8 149.8ZM226.6 148.8C226.5 148.8 226.5 148.8 226.4 148.8C225.5 148.4 224.5 148 223.6 147.6C223.4 147.5 223.2 147.2 223.4 146.9C223.5 146.7 223.8 146.6 224 146.7C224.9 147.1 225.8 147.5 226.7 147.9C227 148 227.1 148.3 227 148.5C226.9 148.7 226.8 148.8 226.6 148.8ZM276.4 147.6C276.2 147.6 276 147.5 275.9 147.3C275.8 147.1 275.9 146.8 276.1 146.6C277 146.2 277.9 145.7 278.8 145.3C279 145.1 279.3 145.2 279.5 145.4C279.7 145.6 279.6 145.9 279.4 146.1C279.4 146.1 279.3 146.1 279.3 146.2C278.4 146.7 277.5 147.1 276.6 147.5C276.5 147.6 276.4 147.6 276.4 147.6ZM221.1 146.3C221 146.3 220.9 146.3 220.9 146.2C220 145.7 219.1 145.3 218.2 144.7C218 144.5 217.9 144.2 218.1 144C218.2 143.8 218.5 143.7 218.7 143.8C219.6 144.3 220.4 144.8 221.3 145.2C221.5 145.3 221.6 145.6 221.5 145.9C221.5 146.2 221.3 146.3 221.1 146.3ZM281.7 144.8C281.5 144.8 281.4 144.7 281.3 144.6C281.2 144.4 281.2 144.1 281.5 143.9C282.4 143.4 283.2 142.9 284 142.3C284.2 142.2 284.5 142.2 284.7 142.5C284.8 142.7 284.8 143 284.6 143.2C283.8 143.8 282.9 144.3 282 144.8C281.9 144.8 281.8 144.8 281.7 144.8ZM215.9 143.3C215.8 143.3 215.7 143.3 215.6 143.2C214.7 142.7 213.9 142.1 213.1 141.5C212.9 141.3 212.8 141 213 140.8C213.2 140.6 213.5 140.5 213.7 140.7C214.5 141.3 215.3 141.8 216.2 142.4C216.4 142.5 216.5 142.9 216.3 143.1C216.3 143.2 216.1 143.3 215.9 143.3ZM286.7 141.5C286.5 141.5 286.4 141.4 286.3 141.3C286.1 141.1 286.2 140.8 286.4 140.6C287.2 140 288 139.4 288.8 138.8C289 138.6 289.3 138.6 289.5 138.8C289.7 139 289.7 139.3 289.5 139.5C289.5 139.5 289.5 139.5 289.4 139.6C288.6 140.2 287.8 140.8 287 141.4C286.9 141.5 286.8 141.6 286.7 141.5ZM211 139.8C210.9 139.8 210.8 139.8 210.7 139.7C209.9 139.1 209.1 138.4 208.4 137.8C208.2 137.6 208.2 137.3 208.3 137.1C208.5 136.9 208.8 136.9 209 137.1C209.7 137.7 210.5 138.4 211.3 139C211.5 139.2 211.5 139.5 211.4 139.7C211.3 139.8 211.2 139.8 211 139.8ZM291.4 137.8C291.3 137.8 291.1 137.7 291 137.6C290.8 137.4 290.8 137.1 291 136.9C291.7 136.3 292.5 135.6 293.2 134.9C293.4 134.7 293.7 134.8 293.9 135C294.1 135.2 294.1 135.5 293.9 135.7C293.2 136.4 292.4 137.1 291.7 137.7C291.6 137.8 291.5 137.8 291.4 137.8ZM206.5 135.9C206.4 135.9 206.3 135.8 206.2 135.8C205.5 135.1 204.8 134.4 204.1 133.7C203.9 133.5 203.9 133.2 204.1 133C204.3 132.8 204.6 132.8 204.8 133C205.5 133.7 206.2 134.4 206.9 135.1C207.1 135.3 207.1 135.6 206.9 135.8C206.7 135.8 206.6 135.9 206.5 135.9ZM295.7 133.7C295.6 133.7 295.5 133.7 295.4 133.6C295.2 133.4 295.2 133.1 295.4 132.9C296.1 132.2 296.8 131.4 297.4 130.7C297.6 130.5 297.9 130.5 298.1 130.6C298.3 130.8 298.3 131.1 298.1 131.3C297.5 132.1 296.8 132.8 296.1 133.5C296 133.7 295.9 133.8 295.7 133.7ZM202.3 131.6C202.2 131.6 202 131.5 201.9 131.4C201.3 130.6 200.6 129.9 200 129.1C199.8 128.9 199.9 128.6 200.1 128.4C200.3 128.2 200.6 128.3 200.8 128.5C201.4 129.3 202 130.1 202.7 130.8C202.9 131 202.9 131.3 202.7 131.5C202.6 131.5 202.5 131.6 202.3 131.6ZM299.6 129.2C299.5 129.2 299.4 129.2 299.3 129.1C299.1 128.9 299 128.6 299.2 128.4C299.8 127.6 300.4 126.8 301 126C301.2 125.8 301.5 125.7 301.7 125.9C301.9 126.1 302 126.4 301.8 126.6C301.2 127.4 300.6 128.2 300 129C299.9 129.1 299.8 129.2 299.6 129.2ZM198.6 126.9C198.4 126.9 198.3 126.8 198.2 126.7C197.6 125.9 197.1 125 196.5 124.2C196.3 124 196.4 123.7 196.6 123.5C196.8 123.4 197.1 123.4 197.3 123.6C197.8 124.4 198.4 125.3 199 126.1C199.2 126.3 199.1 126.6 198.9 126.8C198.8 126.9 198.7 126.9 198.6 126.9ZM303.1 124.3C303 124.3 302.9 124.3 302.8 124.2C302.6 124.1 302.5 123.7 302.7 123.5C303.2 122.7 303.8 121.8 304.2 121C304.3 120.8 304.6 120.7 304.9 120.8C305.2 120.9 305.2 121.2 305.1 121.5C304.6 122.4 304.1 123.2 303.5 124.1C303.5 124.2 303.3 124.3 303.1 124.3ZM195.4 121.9C195.2 121.9 195.1 121.8 195 121.7C194.5 120.8 194 119.9 193.6 119.1C193.5 118.9 193.6 118.6 193.8 118.4C194 118.3 194.3 118.4 194.5 118.6C194.9 119.5 195.4 120.4 195.9 121.2C196 121.4 195.9 121.7 195.7 121.9C195.6 121.8 195.5 121.8 195.4 121.9ZM306.1 119.1C306 119.1 305.9 119.1 305.9 119C305.7 118.9 305.6 118.6 305.7 118.3C306.2 117.4 306.6 116.5 307 115.6C307.1 115.3 307.4 115.2 307.7 115.4C307.9 115.5 308.1 115.8 308 116C307.6 116.9 307.1 117.8 306.7 118.7C306.5 119 306.3 119.1 306.1 119.1ZM192.6 116.5C192.4 116.5 192.2 116.4 192.1 116.2C191.7 115.3 191.3 114.3 190.9 113.4C190.8 113.1 190.9 112.8 191.2 112.7C191.5 112.6 191.8 112.7 191.9 113C192.3 113.9 192.7 114.8 193.1 115.7C193.2 115.9 193.1 116.2 192.9 116.4C192.8 116.5 192.7 116.5 192.6 116.5ZM308.6 113.6C308.5 113.6 308.5 113.6 308.4 113.6C308.1 113.5 308 113.2 308.1 113C308.5 112.1 308.8 111.1 309.1 110.2C309.2 109.9 309.5 109.8 309.7 109.9C310 110 310.1 110.3 310 110.5C309.7 111.4 309.3 112.4 308.9 113.3C309 113.5 308.8 113.6 308.6 113.6ZM190.4 111C190.2 111 190 110.9 189.9 110.7C189.6 109.8 189.3 108.8 189 107.8C188.9 107.5 189.1 107.3 189.3 107.2C189.6 107.1 189.8 107.3 189.9 107.5C190.2 108.4 190.5 109.4 190.8 110.3C190.9 110.6 190.8 110.8 190.5 110.9C190.5 111 190.5 110.9 190.4 111ZM310.6 108H310.5C310.2 107.9 310.1 107.7 310.2 107.4C310.5 106.4 310.7 105.5 311 104.5C311.1 104.2 311.3 104.1 311.6 104.1C311.9 104.2 312 104.4 312 104.7C311.8 105.7 311.5 106.7 311.2 107.6C311 107.8 310.8 107.9 310.6 108ZM188.7 105.2C188.5 105.2 188.3 105 188.2 104.8C188 103.8 187.8 102.8 187.6 101.8C187.5 101.5 187.7 101.3 188 101.2C188.3 101.1 188.5 101.3 188.6 101.6C188.8 102.6 189 103.6 189.2 104.5C189.3 104.8 189.1 105 188.8 105.1L188.7 105.2ZM312 102.1H311.9C311.6 102.1 311.5 101.8 311.5 101.5C311.7 100.5 311.8 99.5 312 98.6C312 98.3 312.3 98.1 312.6 98.2C312.9 98.2 313.1 98.5 313 98.8C312.9 99.8 312.7 100.8 312.5 101.8C312.4 101.9 312.2 102.1 312 102.1ZM187.6 99.3C187.4 99.3 187.1 99.1 187.1 98.9C187 97.9 186.8 96.9 186.7 95.9C186.7 95.6 186.9 95.4 187.2 95.4C187.5 95.4 187.7 95.6 187.7 95.9C187.8 96.9 187.9 97.9 188.1 98.8C188.1 99 187.9 99.2 187.6 99.3C187.7 99.3 187.7 99.3 187.6 99.3ZM312.8 96.1C312.5 96.1 312.3 95.8 312.3 95.6C312.4 94.6 312.5 93.6 312.5 92.6C312.5 92.3 312.7 92.1 313 92.1C313.3 92.1 313.5 92.3 313.5 92.6C313.5 93.6 313.4 94.6 313.3 95.6C313.4 95.8 313.2 96.1 312.8 96.1ZM187 93.3C186.7 93.3 186.5 93.1 186.5 92.8C186.4 91.8 186.4 90.8 186.4 89.8C186.4 89.5 186.6 89.3 186.9 89.3C187.2 89.3 187.4 89.5 187.4 89.8C187.4 90.8 187.4 91.8 187.5 92.8C187.5 93.1 187.3 93.3 187 93.3ZM313.1 90.1C312.8 90.1 312.6 89.9 312.6 89.6C312.6 88.6 312.6 87.6 312.5 86.6C312.5 86.3 312.7 86.1 313 86.1C313.3 86.1 313.5 86.3 313.5 86.6C313.5 87.6 313.6 88.6 313.6 89.6C313.6 89.9 313.4 90.1 313.1 90.1ZM187 87.3C186.7 87.3 186.5 87.1 186.5 86.8C186.5 85.8 186.6 84.8 186.7 83.8C186.7 83.5 187 83.3 187.3 83.4C187.6 83.5 187.8 83.7 187.7 84C187.6 85 187.5 86 187.5 87C187.5 87.1 187.3 87.3 187 87.3ZM312.8 84.1C312.5 84.1 312.3 83.9 312.3 83.7C312.2 82.7 312.1 81.7 311.9 80.8C311.9 80.5 312 80.3 312.3 80.2C312.6 80.2 312.8 80.3 312.9 80.6C313 81.6 313.2 82.6 313.3 83.6C313.3 83.9 313.1 84.1 312.8 84.1ZM187.6 81.3C187.3 81.3 187.1 81 187.1 80.7C187.2 79.7 187.4 78.7 187.6 77.7C187.7 77.4 187.9 77.3 188.2 77.3C188.5 77.3 188.6 77.6 188.6 77.9C188.4 78.9 188.2 79.9 188.1 80.8C188 81.2 187.8 81.3 187.6 81.3ZM311.9 78.2C311.7 78.2 311.4 78 311.4 77.8C311.2 76.8 311 75.9 310.8 74.9C310.7 74.6 310.9 74.3 311.2 74.3C311.5 74.2 311.8 74.4 311.8 74.7C312 75.7 312.3 76.7 312.4 77.7C312.4 78 312.3 78.2 312 78.3L311.9 78.2ZM188.7 75.5H188.6C188.3 75.4 188.2 75.2 188.2 74.9C188.4 73.9 188.7 72.9 189 72C189.1 71.7 189.4 71.6 189.6 71.6C189.8 71.6 190 72 190 72.2C189.7 73.2 189.5 74.1 189.2 75.1C189.1 75.3 188.9 75.5 188.7 75.5ZM310.5 72.4C310.3 72.4 310.1 72.3 310 72C309.7 71.1 309.4 70.1 309.1 69.2C309 68.9 309.1 68.7 309.3 68.5C309.6 68.4 309.8 68.5 310 68.7V68.8C310.3 69.7 310.6 70.7 310.9 71.7C311 72 310.8 72.2 310.6 72.3L310.5 72.4ZM190.4 69.7H190.2C189.9 69.6 189.8 69.3 189.9 69.1C190.2 68.2 190.6 67.2 191 66.3C191.1 66 191.3 65.9 191.6 65.9C191.9 66 192 66.2 192 66.5V66.6C191.6 67.5 191.3 68.5 191 69.4C190.8 69.6 190.6 69.7 190.4 69.7ZM308.5 66.7C308.3 66.7 308.1 66.6 308 66.4C307.6 65.5 307.2 64.6 306.8 63.7C306.7 63.4 306.8 63.2 307 63C307.2 62.9 307.5 63 307.7 63.2C308.1 64.1 308.5 65 308.9 66C309 66.3 308.9 66.5 308.6 66.6C308.7 66.7 308.6 66.7 308.5 66.7ZM192.6 64.1C192.5 64.1 192.5 64.1 192.4 64.1C192.2 64 192 63.7 192.2 63.4C192.6 62.5 193.1 61.6 193.5 60.7C193.6 60.5 193.9 60.4 194.2 60.5C194.5 60.6 194.5 60.9 194.4 61.2C193.9 62.1 193.5 63 193.1 63.9C193 64 192.8 64.1 192.6 64.1ZM306 61.3C305.8 61.3 305.6 61.2 305.6 61C305.1 60.1 304.7 59.2 304.2 58.4C304 58.2 304.1 57.9 304.3 57.7C304.5 57.5 304.8 57.6 305 57.8C305 57.8 305 57.9 305.1 57.9C305.6 58.8 306.1 59.7 306.6 60.5C306.7 60.7 306.6 61.1 306.4 61.2C306.2 61.3 306.1 61.3 306 61.3ZM195.4 58.7C195.3 58.7 195.2 58.7 195.2 58.6C195 58.5 194.9 58.2 195 57.9C195.5 57 196 56.2 196.6 55.3C196.7 55.1 197 55 197.3 55.1C197.5 55.2 197.6 55.5 197.5 55.8C197 56.6 196.4 57.5 195.9 58.4C195.7 58.6 195.5 58.7 195.4 58.7ZM303 56.1C302.8 56.1 302.7 56 302.6 55.9C302.1 55.1 301.5 54.2 300.9 53.4C300.7 53.2 300.8 52.9 301 52.7C301.2 52.5 301.5 52.6 301.7 52.8C302.3 53.6 302.9 54.4 303.4 55.3C303.5 55.5 303.5 55.8 303.3 56C303.2 56.1 303.1 56.1 303 56.1ZM198.6 53.7C198.5 53.7 198.4 53.7 198.3 53.6C198.1 53.4 198 53.1 198.2 52.9C198.8 52.1 199.4 51.3 200 50.5C200.2 50.3 200.5 50.2 200.7 50.4C200.9 50.6 201 50.9 200.8 51.1C200.2 51.9 199.6 52.7 199 53.5C198.9 53.7 198.8 53.7 198.6 53.7ZM299.5 51.3C299.3 51.3 299.2 51.2 299.1 51.1C298.5 50.3 297.9 49.5 297.2 48.8C297 48.6 297 48.3 297.2 48.1C297.4 47.9 297.7 47.9 297.9 48.1C298.6 48.9 299.2 49.6 299.8 50.4C300 50.6 299.9 50.9 299.7 51.1C299.7 51.2 299.6 51.2 299.5 51.3ZM202.3 49C202.2 49 202.1 49 202 48.9C201.8 48.7 201.8 48.4 201.9 48.2C202.6 47.4 203.2 46.7 203.9 46C204.1 45.8 204.4 45.8 204.6 46C204.8 46.2 204.8 46.5 204.6 46.7C203.9 47.4 203.2 48.1 202.6 48.9C202.6 48.9 202.4 49 202.3 49ZM295.6 46.7C295.5 46.7 295.3 46.6 295.2 46.5C294.5 45.8 293.8 45.1 293.1 44.4C292.9 44.2 292.9 43.9 293.1 43.7C293.3 43.5 293.6 43.5 293.8 43.7C294.5 44.4 295.3 45.1 295.9 45.8C296.1 46 296.1 46.3 295.9 46.5C295.8 46.7 295.7 46.7 295.6 46.7ZM206.5 44.7C206.4 44.7 206.2 44.6 206.1 44.5C205.9 44.3 205.9 44 206.1 43.8C206.8 43.1 207.6 42.4 208.3 41.8C208.5 41.6 208.8 41.6 209 41.8C209.2 42 209.2 42.3 209 42.5C208.2 43.2 207.5 43.8 206.8 44.5C206.7 44.7 206.6 44.7 206.5 44.7ZM291.2 42.7C291.1 42.7 291 42.7 290.9 42.6C290.1 41.9 289.4 41.3 288.6 40.7C288.4 40.5 288.3 40.2 288.5 40C288.7 39.8 289 39.7 289.2 39.9C290 40.5 290.8 41.2 291.5 41.8C291.7 42 291.7 42.3 291.6 42.5C291.5 42.6 291.4 42.6 291.2 42.7ZM211 40.7C210.8 40.7 210.7 40.6 210.6 40.5C210.4 40.3 210.5 40 210.7 39.8C211.5 39.2 212.3 38.6 213.1 38C213.3 37.8 213.6 37.9 213.8 38.1C214 38.3 213.9 38.6 213.7 38.8C212.9 39.4 212.1 40 211.3 40.6C211.2 40.7 211.1 40.7 211 40.7ZM286.5 38.9C286.4 38.9 286.3 38.9 286.2 38.8C285.4 38.2 284.6 37.7 283.7 37.1C283.5 36.9 283.4 36.6 283.6 36.4C283.7 36.2 284.1 36.1 284.3 36.2C285.2 36.8 286 37.3 286.8 37.9C287 38.1 287.1 38.4 286.9 38.6C286.8 38.8 286.7 38.9 286.5 38.9ZM215.9 37.3C215.6 37.3 215.4 37.1 215.4 36.8C215.4 36.6 215.5 36.5 215.6 36.4C216.5 35.8 217.3 35.3 218.2 34.8C218.5 34.7 218.7 34.8 218.9 35C219 35.2 218.9 35.5 218.7 35.6C217.8 36.1 217 36.6 216.2 37.2C216.1 37.2 216 37.2 215.9 37.3ZM281.5 35.6C281.4 35.6 281.3 35.6 281.3 35.5C280.4 35 279.6 34.5 278.7 34.1C278.5 33.9 278.4 33.6 278.6 33.4C278.7 33.2 279 33.1 279.2 33.2C280.1 33.7 281 34.1 281.9 34.6C282.1 34.7 282.2 35 282.1 35.3C281.8 35.5 281.6 35.6 281.5 35.6ZM221.1 34.3C220.9 34.3 220.7 34.2 220.7 34C220.6 33.8 220.7 33.5 220.9 33.3C221.8 32.8 222.7 32.4 223.6 32C223.9 31.9 224.1 32 224.3 32.2C224.4 32.4 224.3 32.7 224.1 32.9C223.2 33.3 222.3 33.7 221.4 34.2C221.2 34.2 221.1 34.2 221.1 34.3ZM276.1 32.9C276 32.9 276 32.9 275.9 32.8C275 32.4 274.1 32 273.2 31.6C272.9 31.5 272.8 31.2 272.9 31C273 30.7 273.3 30.6 273.5 30.7C274.4 31.1 275.4 31.5 276.3 31.9C276.6 32 276.8 32.2 276.7 32.5C276.6 32.8 276.4 33 276.1 32.9ZM226.5 31.7C226.3 31.7 226.1 31.6 226 31.4C225.9 31.1 226 30.9 226.3 30.8C227.2 30.4 228.2 30.1 229.1 29.7C229.4 29.6 229.6 29.7 229.7 30C229.8 30.3 229.6 30.5 229.4 30.6C228.5 30.9 227.5 31.3 226.6 31.6C226.6 31.7 226.6 31.7 226.5 31.7ZM270.5 30.6H270.3C269.4 30.3 268.4 30 267.5 29.7C267.2 29.6 267.1 29.3 267.1 29.1C267.2 28.8 267.5 28.7 267.7 28.7C268.7 29 269.6 29.3 270.6 29.6C270.9 29.6 271.1 29.9 271 30.2C271.1 30.5 270.8 30.7 270.5 30.6ZM232.2 29.7C232 29.7 231.8 29.6 231.7 29.3C231.6 29 231.7 28.8 232 28.7C233 28.4 234 28.1 234.9 27.9C235.2 27.8 235.4 28 235.5 28.3C235.6 28.6 235.4 28.8 235.1 28.9C234.1 29.1 233.2 29.4 232.2 29.7ZM264.8 28.9H264.7C263.7 28.7 262.8 28.5 261.8 28.3C261.5 28.2 261.3 28 261.4 27.7C261.5 27.4 261.7 27.2 262 27.3C263 27.5 264 27.7 265 27.9C265.3 27.9 265.5 28.2 265.4 28.5C265.3 28.8 265.1 29 264.8 28.9ZM238 28.3C237.8 28.3 237.6 28.1 237.5 27.9C237.5 27.6 237.6 27.4 237.9 27.3C238.9 27.1 239.9 26.9 240.9 26.8C241.2 26.8 241.4 27 241.5 27.2C241.5 27.5 241.3 27.7 241.1 27.8C240.1 27.9 239.1 28.1 238.2 28.3H238ZM258.9 27.8C257.8 27.7 256.8 27.5 255.8 27.5C255.5 27.5 255.3 27.2 255.3 27C255.3 26.7 255.6 26.5 255.8 26.5C256.8 26.6 257.8 26.7 258.8 26.8C259.1 26.8 259.3 27.1 259.3 27.3C259.3 27.5 259.1 27.8 258.9 27.8ZM243.9 27.5C243.6 27.5 243.4 27.3 243.4 27C243.4 26.7 243.6 26.5 243.9 26.5C244.9 26.4 245.9 26.3 246.9 26.3C247.2 26.3 247.4 26.5 247.4 26.8C247.4 27.1 247.2 27.3 246.9 27.3C245.9 27.2 244.9 27.4 243.9 27.5ZM252.9 27.2C251.9 27.2 251 27.1 250 27.1C249.7 27.1 249.5 26.9 249.5 26.6C249.5 26.3 249.7 26.1 249.9 26.1H250C251 26.1 252 26.1 252.9 26.2C253.2 26.2 253.4 26.4 253.4 26.7C253.4 27 253.2 27.3 252.9 27.2Z" fill="#C12453"/>
<path d="M227.9 60.5H249C252.1 60.4 255.2 60.6 258.3 61C260.3 61.3 262.1 62.1 263.8 63.2C265.4 64.4 266.8 65.9 267.8 67.6C268.9 69.5 269.4 71.6 269.4 73.8C269.4 78.7 266.5 83.2 262 85.2C264.9 86 267.5 87.6 269.4 90C271.1 92.3 272 95.1 272 97.9C272 100.3 271.4 102.7 270.3 104.9C269.3 107.1 267.7 108.9 265.7 110.3C263.6 111.7 261.1 112.6 258.6 112.8C256.8 113 252.5 113.1 245.8 113.2H227.9V60.5ZM238.6 69.3V81.5H245.6C249.7 81.5 252.3 81.4 253.3 81.3C254.9 81.2 256.4 80.5 257.6 79.4C258.7 78.3 259.2 76.8 259.2 75.3C259.3 73.8 258.8 72.4 257.8 71.3C256.7 70.2 255.3 69.5 253.8 69.4C252.7 69.3 249.7 69.2 244.7 69.2L238.6 69.3ZM238.6 90.2V104.3H248.5C250.9 104.4 253.4 104.3 255.8 104C257.3 103.8 258.7 103 259.7 101.9C260.7 100.6 261.3 99 261.2 97.4C261.2 96 260.8 94.6 260.1 93.4C259.3 92.3 258.1 91.4 256.8 91C255.3 90.5 252.2 90.2 247.4 90.2H238.6Z" fill="white"/>
<path d="M386.8 171.7C416.403 171.7 440.4 147.702 440.4 118.1C440.4 88.4975 416.403 64.5 386.8 64.5C357.198 64.5 333.2 88.4975 333.2 118.1C333.2 147.702 357.198 171.7 386.8 171.7Z" fill="#FCA644"/>
<path d="M386.8 181.7C385.8 181.7 384.8 181.7 383.8 181.6C383.5 181.6 383.3 181.4 383.3 181.1C383.3 180.8 383.5 180.6 383.8 180.6C384.8 180.6 385.8 180.7 386.8 180.7H386.9C387.2 180.7 387.4 180.9 387.4 181.2C387.4 181.5 387.2 181.7 386.9 181.7H386.8ZM390 181.7C389.7 181.7 389.5 181.5 389.5 181.2C389.5 180.9 389.7 180.7 390 180.7C391 180.7 392 180.6 393 180.5C393.3 180.5 393.5 180.7 393.5 181C393.5 181.3 393.3 181.5 393.1 181.5C392.1 181.5 391.1 181.6 390 181.7ZM380.8 181.5C379.8 181.4 378.8 181.3 377.8 181.1C377.5 181.1 377.3 180.8 377.4 180.5C377.5 180.2 377.7 180 378 180.1C379 180.2 380 180.4 381 180.5C381.3 180.5 381.5 180.7 381.5 181C381.5 181.3 381.1 181.5 380.8 181.5ZM396 181C395.8 181 395.5 180.8 395.5 180.6C395.5 180.3 395.6 180.1 395.9 180C396.9 179.9 397.9 179.7 398.8 179.5C399.1 179.5 399.3 179.6 399.4 179.9C399.4 180.2 399.3 180.4 399 180.5C398.1 180.7 397.1 180.9 396 181ZM374.9 180.6H374.8C373.8 180.4 372.8 180.2 371.8 180C371.5 179.9 371.4 179.7 371.4 179.4C371.5 179.1 371.7 179 372 179C373 179.2 373.9 179.4 374.9 179.6C375.2 179.7 375.3 179.9 375.3 180.2C375.3 180.4 375.1 180.6 374.9 180.6ZM401.9 179.9C401.7 179.9 401.5 179.7 401.4 179.5C401.3 179.2 401.5 179 401.8 178.9C402.8 178.7 403.7 178.4 404.7 178.1C405 178 405.2 178.2 405.3 178.4C405.4 178.7 405.2 178.9 405 179C404 179.3 403 179.6 402.1 179.8L401.9 179.9ZM369.1 179.2H369C368 178.9 367.1 178.6 366.1 178.3C365.8 178.2 365.7 178 365.7 177.7C365.8 177.4 366 177.3 366.3 177.3H366.4C367.3 177.6 368.3 177.9 369.2 178.2C369.5 178.3 369.6 178.6 369.5 178.8C369.5 179 369.3 179.2 369.1 179.2ZM407.7 178.2C407.4 178.2 407.2 178.1 407.1 177.8C407.1 177.5 407.2 177.3 407.5 177.2C408.4 176.9 409.4 176.5 410.3 176.1C410.6 176 410.9 176.1 411 176.4C411.1 176.7 411 177 410.7 177.1C409.8 177.5 408.8 177.8 407.9 178.2C407.8 178.1 407.7 178.2 407.7 178.2ZM363.4 177.2C363.3 177.2 363.3 177.2 363.2 177.2C362.3 176.8 361.3 176.4 360.4 176C360.2 175.9 360 175.6 360.1 175.4C360.2 175.1 360.5 175 360.8 175.2C361.7 175.6 362.6 176 363.5 176.4C363.8 176.5 363.9 176.8 363.8 177C363.8 177.1 363.6 177.2 363.4 177.2ZM413.2 175.9C413 175.9 412.8 175.8 412.7 175.6C412.6 175.4 412.7 175.1 412.9 174.9C413.8 174.5 414.7 174 415.6 173.6C415.8 173.5 416.1 173.6 416.3 173.8C416.4 174 416.3 174.3 416.1 174.5C415.2 175 414.3 175.4 413.4 175.8C413.3 175.9 413.3 175.9 413.2 175.9ZM358 174.7C357.9 174.7 357.8 174.7 357.8 174.6C356.9 174.1 356 173.7 355.2 173.2C355 173.1 354.9 172.8 355 172.5C355.1 172.3 355.4 172.2 355.7 172.3C356.6 172.8 357.4 173.3 358.3 173.7C358.5 173.8 358.6 174.1 358.5 174.4C358.3 174.6 358.1 174.7 358 174.7ZM418.5 173.2C418.2 173.2 418 173 418 172.7C418 172.5 418.1 172.4 418.2 172.3C419.1 171.8 419.9 171.3 420.7 170.7C420.9 170.6 421.2 170.6 421.4 170.8C421.5 171 421.5 171.3 421.3 171.5C420.5 172.1 419.6 172.6 418.7 173.1C418.7 173.1 418.6 173.2 418.5 173.2ZM352.8 171.7C352.7 171.7 352.6 171.7 352.5 171.6C351.7 171 350.8 170.5 350 169.9C349.8 169.7 349.7 169.4 349.9 169.2C350.1 169 350.4 168.9 350.6 169.1C351.4 169.7 352.2 170.2 353.1 170.8C353.3 170.9 353.4 171.3 353.2 171.5C353.1 171.6 352.9 171.7 352.8 171.7ZM423.6 169.9C423.4 169.9 423.3 169.8 423.2 169.7C423 169.5 423.1 169.2 423.3 169C424.1 168.4 424.9 167.8 425.7 167.2C425.9 167 426.2 167.1 426.4 167.3C426.6 167.5 426.5 167.8 426.3 168C425.5 168.6 424.7 169.2 423.9 169.8C423.8 169.9 423.6 169.9 423.6 169.9ZM347.9 168.2C347.8 168.2 347.7 168.2 347.6 168.1C346.8 167.5 346 166.8 345.3 166.2C345.1 166 345.1 165.7 345.2 165.5C345.4 165.3 345.7 165.3 345.9 165.5C346.6 166.1 347.4 166.8 348.2 167.4C348.4 167.6 348.5 167.9 348.3 168.1C348.2 168.1 348 168.2 347.9 168.2ZM428.3 166.2C428.2 166.2 428 166.1 427.9 166C427.7 165.8 427.7 165.5 427.9 165.3C428.6 164.7 429.4 164 430.1 163.3C430.3 163.1 430.6 163.1 430.8 163.3C431 163.5 431 163.8 430.8 164C430.1 164.7 429.3 165.4 428.6 166C428.5 166.1 428.4 166.2 428.3 166.2ZM343.3 164.2C343.2 164.2 343 164.2 342.9 164.1C342.2 163.4 341.5 162.7 340.8 162C340.6 161.8 340.6 161.5 340.8 161.3C341 161.1 341.3 161.1 341.5 161.3C342.2 162 342.9 162.7 343.6 163.4C343.8 163.6 343.8 163.9 343.6 164.1C343.6 164.2 343.4 164.2 343.3 164.2ZM432.5 162C432.4 162 432.2 161.9 432.1 161.9C431.9 161.7 431.9 161.4 432.1 161.2C432.8 160.5 433.5 159.7 434.1 159C434.3 158.8 434.6 158.8 434.8 158.9C435 159.1 435 159.4 434.9 159.6C434.3 160.4 433.6 161.1 432.9 161.8C432.8 162 432.7 162.1 432.5 162ZM339.2 159.9C339.1 159.9 338.9 159.8 338.8 159.7C338.1 158.9 337.5 158.2 336.9 157.4C336.7 157.2 336.8 156.9 337 156.7C337.2 156.5 337.5 156.6 337.7 156.8C338.3 157.6 338.9 158.4 339.6 159.1C339.8 159.3 339.8 159.6 339.6 159.8C339.4 159.9 339.3 159.9 339.2 159.9ZM436.5 157.5C436.4 157.5 436.3 157.5 436.2 157.4C436 157.2 435.9 156.9 436.1 156.7C436.7 155.9 437.3 155.1 437.9 154.3C438.1 154.1 438.4 154 438.6 154.2C438.8 154.4 438.9 154.7 438.7 154.9C438.1 155.7 437.5 156.5 436.9 157.3C436.8 157.4 436.6 157.5 436.5 157.5ZM335.5 155.2C335.3 155.2 335.2 155.1 335.1 155C334.5 154.2 334 153.4 333.4 152.5C333.3 152.3 333.3 152 333.6 151.8C333.8 151.7 334.1 151.7 334.3 151.9C334.8 152.7 335.4 153.6 336 154.4C336.2 154.6 336.1 154.9 335.9 155.1C335.7 155.2 335.6 155.2 335.5 155.2ZM439.9 152.6C439.8 152.6 439.7 152.6 439.6 152.5C439.4 152.4 439.3 152 439.5 151.8C440 151 440.6 150.1 441 149.2C441.1 149 441.4 148.9 441.7 149C441.9 149.1 442 149.4 441.9 149.7C441.4 150.6 440.9 151.4 440.3 152.3C440.3 152.5 440.1 152.6 439.9 152.6ZM332.2 150.2C332 150.2 331.9 150.1 331.8 150C331.3 149.1 330.8 148.2 330.3 147.4C330.2 147.2 330.3 146.8 330.5 146.7C330.7 146.6 331 146.7 331.2 146.9C331.7 147.8 332.1 148.7 332.6 149.5C332.7 149.7 332.7 150 332.4 150.2C332.4 150.1 332.3 150.2 332.2 150.2ZM442.9 147.4C442.6 147.4 442.4 147.2 442.4 146.9C442.4 146.8 442.4 146.7 442.5 146.6C443 145.7 443.4 144.8 443.8 143.9C443.9 143.6 444.2 143.5 444.5 143.7C444.7 143.8 444.9 144.1 444.7 144.4C444.3 145.3 443.8 146.2 443.4 147.1C443.3 147.3 443.1 147.4 442.9 147.4ZM329.5 144.8C329.3 144.8 329.1 144.7 329 144.5C328.6 143.6 328.2 142.7 327.8 141.7C327.7 141.5 327.8 141.2 328.1 141.1C328.4 141 328.6 141.1 328.7 141.4C329.1 142.3 329.5 143.2 329.9 144.1C330 144.4 329.9 144.6 329.7 144.8C329.6 144.8 329.5 144.8 329.5 144.8ZM445.5 141.9C445.4 141.9 445.4 141.9 445.3 141.9C445 141.8 444.9 141.5 445 141.3C445.4 140.4 445.7 139.4 446 138.5C446.1 138.2 446.4 138.1 446.6 138.2C446.9 138.3 447 138.6 446.9 138.8C446.6 139.8 446.2 140.7 445.8 141.6C445.8 141.8 445.6 141.9 445.5 141.9ZM327.2 139.3C327 139.3 326.8 139.2 326.7 139C326.4 138.1 326.1 137.1 325.8 136.1C325.7 135.8 325.9 135.6 326.1 135.5C326.4 135.4 326.6 135.6 326.7 135.8C327 136.7 327.3 137.7 327.6 138.6C327.7 138.9 327.5 139.1 327.3 139.2C327.3 139.3 327.3 139.3 327.2 139.3ZM447.4 136.3H447.3C447 136.2 446.9 135.9 447 135.7C447.3 134.7 447.5 133.8 447.8 132.8C447.9 132.5 448.1 132.4 448.4 132.4C448.7 132.5 448.8 132.7 448.8 133C448.6 134 448.3 135 448 135.9C447.8 136.1 447.6 136.3 447.4 136.3ZM325.5 133.6C325.3 133.6 325.1 133.4 325 133.2C324.8 132.2 324.5 131.2 324.4 130.2C324.4 129.9 324.5 129.7 324.8 129.6C325.1 129.6 325.3 129.7 325.4 130C325.6 131 325.8 131.9 326 132.9C326.1 133.2 325.9 133.4 325.6 133.5L325.5 133.6ZM448.8 130.5H448.7C448.4 130.4 448.3 130.2 448.3 129.9C448.5 128.9 448.7 127.9 448.8 127C448.8 126.7 449.1 126.5 449.4 126.6C449.7 126.6 449.9 126.9 449.8 127.2C449.7 128.2 449.5 129.2 449.3 130.2C449.2 130.3 449 130.4 448.8 130.5ZM324.4 127.7C324.2 127.7 323.9 127.5 323.9 127.3C323.8 126.3 323.6 125.3 323.5 124.3C323.5 124 323.7 123.8 323.9 123.7C324.2 123.7 324.4 123.9 324.5 124.1C324.6 125.1 324.7 126.1 324.9 127.1C324.9 127.4 324.7 127.7 324.4 127.7ZM449.6 124.5C449.3 124.5 449.1 124.2 449.1 124C449.2 123 449.3 122 449.3 121C449.3 120.7 449.5 120.5 449.8 120.5C450.1 120.5 450.3 120.7 450.3 121C450.3 122 450.2 123 450.1 124C450.2 124.3 449.9 124.5 449.6 124.5ZM323.8 121.7C323.5 121.7 323.3 121.5 323.3 121.2C323.3 120.2 323.2 119.2 323.2 118.2C323.2 117.9 323.4 117.7 323.7 117.7C324 117.7 324.2 117.9 324.2 118.2C324.2 119.2 324.2 120.2 324.3 121.2C324.3 121.5 324.1 121.7 323.8 121.7ZM449.9 118.5C449.6 118.5 449.4 118.3 449.4 118C449.4 117 449.4 116 449.3 115C449.3 114.7 449.5 114.5 449.8 114.5C450.1 114.5 450.3 114.7 450.3 115C450.3 116 450.4 117 450.4 118C450.4 118.2 450.2 118.5 449.9 118.5ZM323.8 115.7C323.5 115.7 323.3 115.5 323.3 115.2C323.3 114.2 323.4 113.2 323.5 112.2C323.5 111.9 323.8 111.7 324 111.7C324.3 111.7 324.5 112 324.5 112.2C324.4 113.2 324.3 114.2 324.3 115.2C324.3 115.5 324.1 115.7 323.8 115.7ZM449.6 112.5C449.3 112.5 449.1 112.3 449.1 112.1C449 111.1 448.9 110.1 448.7 109.1C448.7 108.8 448.9 108.6 449.1 108.5C449.4 108.5 449.6 108.7 449.7 108.9C449.8 109.9 450 110.9 450.1 111.9C450.1 112.2 449.9 112.5 449.6 112.5C449.7 112.5 449.7 112.5 449.6 112.5ZM324.4 109.7C324.1 109.7 323.9 109.4 323.9 109.1C324 108.1 324.2 107.1 324.4 106.1C324.4 105.8 324.6 105.6 324.9 105.6H325C325.3 105.6 325.4 105.9 325.4 106.2C325.2 107.2 325 108.2 324.9 109.1C324.9 109.5 324.7 109.8 324.4 109.7ZM448.7 106.6C448.5 106.6 448.3 106.4 448.2 106.2C448 105.2 447.8 104.3 447.6 103.3C447.5 103 447.7 102.8 447.9 102.7C448.2 102.6 448.4 102.8 448.5 103.1C448.7 104.1 449 105.1 449.1 106.1C449.2 106.4 449 106.6 448.7 106.7C448.9 106.6 448.8 106.6 448.7 106.6ZM325.5 103.8H325.4C325.1 103.7 325 103.5 325 103.2C325.2 102.2 325.5 101.2 325.8 100.3C325.9 100 326.2 99.9 326.4 100C326.7 100.1 326.8 100.3 326.7 100.6C326.4 101.5 326.2 102.5 325.9 103.5C325.9 103.6 325.7 103.8 325.5 103.8ZM447.3 100.7C447.1 100.7 446.9 100.6 446.8 100.3C446.5 99.4 446.2 98.4 445.9 97.5C445.8 97.2 445.9 97 446.2 96.9C446.5 96.8 446.7 96.9 446.8 97.2C447.1 98.1 447.4 99.1 447.7 100.1C447.8 100.4 447.6 100.6 447.4 100.7H447.3ZM327.2 98C327.1 98 327.1 98 327 98C326.7 97.9 326.6 97.6 326.7 97.4C327 96.5 327.4 95.5 327.8 94.6C327.9 94.3 328.2 94.2 328.4 94.3C328.7 94.4 328.8 94.7 328.7 94.9C328.3 95.8 328 96.8 327.7 97.7C327.6 97.9 327.4 98.1 327.2 98ZM445.3 95C445.1 95 444.9 94.9 444.8 94.7C444.4 93.8 444 92.9 443.6 92C443.5 91.7 443.6 91.5 443.8 91.3C444 91.2 444.3 91.3 444.5 91.5C444.9 92.4 445.3 93.3 445.7 94.3C445.8 94.6 445.7 94.8 445.4 94.9C445.5 95 445.4 95.1 445.3 95ZM329.4 92.4C329.3 92.4 329.3 92.4 329.2 92.3C329 92.2 328.9 91.9 329 91.7C329.4 90.8 329.9 89.9 330.3 89C330.4 88.8 330.7 88.7 331 88.8C331.2 88.9 331.3 89.2 331.2 89.5C330.7 90.4 330.3 91.3 329.9 92.2C329.8 92.3 329.6 92.5 329.4 92.4ZM442.8 89.6C442.6 89.6 442.4 89.5 442.3 89.3C441.8 88.4 441.4 87.5 440.9 86.7C440.8 86.5 440.8 86.2 441.1 86C441.3 85.9 441.6 85.9 441.8 86.2C442.3 87.1 442.8 88 443.3 88.8C443.4 89 443.3 89.3 443.1 89.5C443 89.6 442.9 89.6 442.8 89.6ZM332.2 87.1C332.1 87.1 332 87.1 332 87C331.8 86.9 331.7 86.6 331.8 86.3C332.3 85.4 332.8 84.6 333.4 83.7C333.6 83.5 333.9 83.4 334.1 83.6C334.3 83.7 334.4 84 334.2 84.3C333.7 85.1 333.1 86 332.6 86.8C332.5 87 332.4 87.1 332.2 87.1ZM439.8 84.4C439.6 84.4 439.5 84.3 439.4 84.2C438.9 83.4 438.3 82.6 437.7 81.7C437.5 81.5 437.6 81.2 437.8 81C438 80.8 438.3 80.9 438.5 81.1C439.1 81.9 439.6 82.8 440.2 83.6C440.3 83.8 440.3 84.1 440.1 84.3C440 84.4 439.9 84.4 439.8 84.4ZM335.4 82C335.3 82 335.2 82 335.1 81.9C334.9 81.7 334.8 81.4 335 81.2C335.6 80.4 336.2 79.6 336.8 78.8C337 78.6 337.3 78.5 337.5 78.7C337.7 78.9 337.8 79.2 337.6 79.4C337 80.2 336.4 81 335.8 81.8C335.8 82 335.6 82.1 335.4 82ZM436.3 79.6C436.1 79.6 436 79.5 435.9 79.4C435.3 78.6 434.7 77.8 434 77.1C433.8 76.9 433.8 76.6 434.1 76.4C434.3 76.2 434.6 76.2 434.8 76.5C435.5 77.3 436.1 78 436.7 78.8C436.9 79 436.8 79.3 436.6 79.5C436.6 79.5 436.5 79.6 436.3 79.6ZM339.1 77.3C339 77.3 338.9 77.3 338.8 77.2C338.6 77 338.6 76.7 338.8 76.5C339.5 75.7 340.1 75 340.8 74.3C341 74.1 341.3 74.1 341.5 74.3C341.7 74.5 341.7 74.8 341.5 75C340.8 75.7 340.1 76.5 339.5 77.2C339.4 77.3 339.3 77.3 339.1 77.3ZM432.4 75C432.3 75 432.1 74.9 432 74.9C431.3 74.2 430.6 73.5 429.9 72.8C429.7 72.6 429.7 72.3 429.9 72.1C430.1 71.9 430.4 71.9 430.6 72.1C431.3 72.8 432.1 73.5 432.7 74.2C432.9 74.4 432.9 74.7 432.7 74.9C432.7 75 432.5 75.1 432.4 75ZM343.3 73C343.2 73 343 72.9 342.9 72.9C342.7 72.7 342.7 72.4 342.9 72.2C343.6 71.5 344.4 70.8 345.1 70.2C345.3 70 345.6 70 345.8 70.2C346 70.4 346 70.7 345.8 70.9L345.7 71C345 71.6 344.2 72.3 343.5 73C343.5 72.9 343.4 73 343.3 73ZM428 70.9C427.9 70.9 427.8 70.9 427.7 70.8C426.9 70.2 426.2 69.5 425.4 68.9C425.2 68.7 425.1 68.4 425.3 68.2C425.5 68 425.8 67.9 426 68.1C426.8 68.7 427.6 69.4 428.3 70C428.5 70.2 428.5 70.5 428.4 70.7C428.3 70.8 428.2 70.9 428 70.9ZM347.8 69C347.6 69 347.5 68.9 347.4 68.8C347.2 68.6 347.3 68.3 347.5 68.1C348.3 67.5 349.1 66.9 349.9 66.3C350.1 66.1 350.4 66.2 350.6 66.4C350.8 66.6 350.7 66.9 350.5 67.1C349.7 67.7 348.9 68.3 348.1 68.9C348 69 347.9 69.1 347.8 69ZM423.3 67.2C423.2 67.2 423.1 67.2 423 67.1C422.2 66.5 421.4 66 420.5 65.4C420.3 65.3 420.2 65 420.3 64.7C420.4 64.5 420.8 64.4 421 64.6C421.8 65.1 422.7 65.7 423.5 66.3C423.7 66.5 423.8 66.8 423.6 67C423.7 67.1 423.5 67.2 423.3 67.2ZM352.7 65.6C352.5 65.6 352.4 65.5 352.3 65.4C352.2 65.2 352.2 64.9 352.4 64.7C353.2 64.2 354.1 63.6 355 63.1C355.2 62.9 355.5 63 355.7 63.2C355.9 63.4 355.8 63.7 355.6 63.9C355.6 63.9 355.5 63.9 355.5 64C354.6 64.5 353.8 65 353 65.6C352.9 65.5 352.8 65.6 352.7 65.6ZM418.3 63.9C418.2 63.9 418.1 63.9 418.1 63.8C417.2 63.3 416.4 62.8 415.5 62.4C415.3 62.3 415.2 62 415.3 61.7C415.4 61.5 415.7 61.4 416 61.5C416.9 62 417.8 62.4 418.6 62.9C418.8 63 418.9 63.3 418.8 63.6C418.6 63.8 418.5 64 418.3 63.9ZM357.9 62.6C357.7 62.6 357.5 62.5 357.5 62.3C357.4 62.1 357.5 61.8 357.7 61.6C358.6 61.1 359.5 60.7 360.4 60.3C360.6 60.2 360.9 60.3 361.1 60.5C361.2 60.8 361.1 61 360.9 61.2C360 61.6 359.1 62.1 358.2 62.5C358 62.5 358 62.6 357.9 62.6ZM412.9 61.2C412.8 61.2 412.8 61.2 412.7 61.2C411.8 60.8 410.9 60.4 409.9 60C409.6 59.9 409.5 59.6 409.6 59.4C409.7 59.1 410 59 410.2 59.1C411.1 59.5 412.1 59.9 413 60.3C413.3 60.4 413.4 60.7 413.2 61C413.3 61.1 413.1 61.2 412.9 61.2ZM363.3 60.1C363 60.1 362.8 60 362.7 59.7C362.6 59.4 362.8 59.2 363.1 59.1C364 58.7 365 58.4 365.9 58C366.2 57.9 366.4 58 366.5 58.3C366.6 58.6 366.5 58.8 366.2 58.9C365.3 59.2 364.3 59.6 363.4 59.9C363.4 60 363.4 60 363.3 60.1ZM407.4 58.9C407.3 58.9 407.3 58.9 407.2 58.9C406.3 58.6 405.3 58.3 404.3 58C404 57.9 403.9 57.6 404 57.4C404.1 57.1 404.3 57 404.6 57.1C405.6 57.4 406.5 57.7 407.5 58C407.8 58 408 58.3 407.9 58.6C407.9 58.9 407.6 59 407.4 58.9ZM369 58.1C368.8 58.1 368.6 57.9 368.5 57.7C368.4 57.4 368.6 57.2 368.8 57.1C369.8 56.8 370.8 56.5 371.7 56.3C372 56.2 372.3 56.4 372.3 56.7C372.3 57 372.2 57.3 371.9 57.3C370.9 57.5 370 57.8 369 58.1ZM401.6 57.3H401.5C400.5 57.1 399.6 56.9 398.6 56.7C398.3 56.6 398.2 56.4 398.2 56.1C398.3 55.8 398.5 55.7 398.8 55.7C399.8 55.9 400.8 56.1 401.8 56.3C402.1 56.3 402.3 56.6 402.2 56.9C402.1 57.2 401.9 57.3 401.6 57.3ZM374.8 56.7C374.6 56.7 374.4 56.5 374.3 56.3C374.3 56 374.4 55.8 374.7 55.7C375.7 55.5 376.7 55.3 377.7 55.2C378 55.2 378.2 55.4 378.3 55.6C378.4 55.8 378.1 56.1 377.9 56.2C376.9 56.3 375.9 56.5 375 56.7H374.8ZM395.7 56.2C394.6 56.1 393.6 56 392.7 55.9C392.4 55.9 392.2 55.6 392.2 55.4C392.2 55.1 392.5 54.9 392.7 54.9C393.7 55 394.7 55.1 395.7 55.3C396 55.3 396.2 55.6 396.2 55.8C396.2 56 396 56.2 395.7 56.2ZM380.7 55.8C380.4 55.8 380.2 55.6 380.2 55.3C380.2 55 380.4 54.8 380.6 54.8C381.6 54.7 382.6 54.6 383.6 54.6C383.9 54.6 384.1 54.8 384.1 55.1C384.1 55.4 383.9 55.6 383.6 55.6C382.7 55.6 381.7 55.7 380.7 55.8ZM389.7 55.6C388.7 55.6 387.8 55.5 386.8 55.5C386.5 55.5 386.3 55.3 386.3 55C386.3 54.7 386.5 54.5 386.7 54.5H386.8C387.8 54.5 388.8 54.5 389.7 54.6C390 54.6 390.2 54.8 390.2 55.1C390.2 55.4 390 55.6 389.7 55.6Z" fill="#FCA644"/>
<path d="M399.5 122.2L409.8 125.5C408.2 131.3 405.6 135.5 401.9 138.3C398.2 141.1 393.6 142.5 387.9 142.5C381.4 142.7 375.1 140.1 370.7 135.3C366.2 130.5 363.9 124 363.9 115.7C363.9 106.9 366.2 100.1 370.7 95.3C375.2 90.5 381.2 88 388.6 88C395 88 400.3 89.9 404.3 93.7C406.9 96.4 408.8 99.7 409.7 103.4L399.2 105.9C398.2 100.6 393.5 96.9 388.1 97.1C384.5 97 381 98.5 378.6 101.3C376.2 104.1 375 108.6 375 114.9C375 121.6 376.2 126.3 378.6 129.1C380.9 131.9 384.3 133.4 387.9 133.3C390.6 133.4 393.2 132.4 395.2 130.6C397.1 128.9 398.6 126 399.5 122.2Z" fill="white"/>
<path d="M170.3 332H177.6V315H170.2L170.3 332Z" fill="#CE7A63"/>
<path d="M119.5 325.3L126.8 326.4L132.1 310L124.9 309L119.5 325.3Z" fill="#CE7A63"/>
<path d="M129.6 327.2C130.1 327.3 130.6 327.3 131 327C131.3 326.8 131.5 326.5 131.4 326.1C131.4 325.9 131.3 325.7 131.2 325.6C130.4 325.1 128 326.2 127.7 326.3C127.6 326.3 127.6 326.4 127.6 326.5C127.6 326.6 127.7 326.6 127.7 326.7C128.4 326.9 129 327.1 129.6 327.2ZM130.9 325.9C131 325.9 131.1 325.9 131.1 326C131.2 326.1 131.2 326.1 131.2 326.2C131.2 326.4 131.1 326.7 130.9 326.8C130 327.1 129.1 327 128.3 326.6C129.1 326.1 130 325.9 130.9 325.9Z" fill="#C53F3F"/>
<path d="M127.8 326.7C128.7 326.4 130.3 325 130.2 324.2C130.2 323.9 130 323.7 129.7 323.7C129.4 323.6 129.2 323.7 128.9 323.8C128 324.4 127.6 326.4 127.6 326.5C127.7 326.6 127.7 326.7 127.8 326.7ZM129.6 324C129.9 324.1 129.9 324.2 129.9 324.2C129.9 324.7 128.9 325.8 128.1 326.2C128.2 325.4 128.6 324.6 129.2 324C129.3 324 129.4 323.9 129.6 324Z" fill="#C53F3F"/>
<path d="M127.4 325.6L119.3 324.4C119 324.4 118.7 324.5 118.6 324.8L116.5 331.1C116.3 331.7 116.7 332.3 117.3 332.5C117.4 332.5 117.4 332.5 117.5 332.5C120.3 332.9 121.7 332.9 125.3 333.4C127.5 333.7 134.8 336.1 137.8 336.6C140.8 337.1 141.6 334.1 140.3 333.6C134.8 331.6 130.2 328 128.5 326.2C128.2 325.9 127.8 325.7 127.4 325.6Z" fill="#263238"/>
<path d="M180.6 332.4C181.2 332.5 181.8 332.3 182.4 331.9C182.6 331.7 182.7 331.4 182.7 331.1C182.7 330.9 182.6 330.7 182.4 330.6C181.5 330.1 178.6 331.6 178.3 331.8C178.2 331.8 178.2 331.9 178.2 332C178.2 332.1 178.3 332.1 178.3 332.1C179 332.3 179.8 332.4 180.6 332.4ZM181.9 330.9C182 330.9 182.1 330.9 182.2 331C182.3 331 182.3 331.1 182.3 331.2C182.3 331.4 182.3 331.6 182.1 331.8C181.7 332.2 180.5 332.3 178.8 332C179.8 331.4 180.8 331 181.9 330.9Z" fill="#C53F3F"/>
<path d="M178.3 332.2C179.2 331.8 180.9 330.2 180.8 329.4C180.8 329.2 180.6 329 180.1 328.9C179.8 328.9 179.4 329 179.2 329.2C178.3 330 178.2 331.9 178.2 332C178.1 332 178.2 332.1 178.3 332.2ZM180 329.2H180.1C180.4 329.2 180.4 329.4 180.5 329.4C180.6 329.9 179.5 331.1 178.6 331.7C178.6 330.9 178.9 330.1 179.5 329.4C179.6 329.2 179.8 329.2 180 329.2Z" fill="#C53F3F"/>
<path d="M177.5 331.1H169.5C169.2 331.1 168.9 331.3 168.9 331.6L167.7 338.1C167.6 338.7 168 339.3 168.6 339.4C168.7 339.4 168.7 339.4 168.8 339.4C171.7 339.4 175.8 339.2 179.5 339.2C183.7 339.2 187.4 339.4 192.4 339.4C195.4 339.4 196.1 336.4 194.8 336.1C189 334.8 184.3 334.7 179.2 331.6C178.8 331.3 178.1 331.1 177.5 331.1Z" fill="#263238"/>
<path d="M151.4 64.7C152.7 70.1 153.5 76.7 149.9 80.3C149.9 80.3 152.3 85.7 162.3 85.7C171.4 85.7 166.6 80.3 166.6 80.3C160.6 78.9 160.5 71.5 161.4 67.3L151.4 64.7Z" fill="#CE7A63"/>
<path d="M170.7 86C171 82.3 171.4 78.4 167.8 76.3C165.1 74.7 152.6 73.3 148.9 74.6C145.2 75.9 148 82.7 148 82.7L170.7 86Z" fill="#407BFF"/>
<path opacity="0.2" d="M177.6 315V323.8H170.2V315H177.6Z" fill="black"/>
<path opacity="0.2" d="M124.9 309L132.1 310L129.4 318.5L122.1 317.4L124.9 309Z" fill="black"/>
<path d="M135 86.8L144.1 92.7C144.1 92.7 132.4 115.3 133.6 118.9C135.3 123.8 137.8 134.6 140.7 140C140.4 141.2 138.7 143.9 137.7 144.3C130.5 139 122.7 122.3 122.7 117.6C122.9 107.1 135 86.8 135 86.8Z" fill="#CE7A63"/>
<path d="M140.8 140.1L147.7 139.6L144.4 147.3C144.4 147.3 138.3 147.6 137.1 142.9L140.8 140.1Z" fill="#CE7A63"/>
<path d="M153.6 143L150.2 149.9L144.4 147.2L147.8 139.5L153.6 143Z" fill="#CE7A63"/>
<path d="M136.9 81.9C130 82.9 123.1 106.9 123.1 106.9L138 115.1C138 115.1 143.9 103.7 146.7 95.2C149.7 86.4 144.3 80.8 136.9 81.9Z" fill="#263238"/>
<path opacity="0.2" d="M141.3 90.1C144.3 87.2 142.9 99.5 141.8 107.4C141.1 108.9 140.4 110.3 139.9 111.5C136.1 105.4 137.1 94.1 141.3 90.1Z" fill="black"/>
<path d="M178 82.3C178 82.3 187.6 104.4 181.2 145.6H142C141.5 139.6 144 110.2 136.9 81.9C141.2 81.1 145.5 80.5 149.9 80.2C155.4 79.9 161 79.9 166.6 80.2C170.4 80.6 174.2 81.3 178 82.3Z" fill="#263238"/>
<path d="M147.6 79.7001C146.1 80.5001 144.2 84.1001 144.5 90.2001C144.6 95.5001 144.4 100.8 143.6 106L145.9 107.1V110.3L151.6 111.1C151.6 111.1 148.7 86.1001 151.6 80.1001C150.6 78.6001 147.6 79.7001 147.6 79.7001Z" fill="#407BFF"/>
<path opacity="0.2" d="M145.9 107.2L146.5 93.3L144.9 106.8L145.9 107.2Z" fill="black"/>
<path d="M172.4 92.6L182.1 88.7C182.1 88.7 195.2 111 198 112.8C199.5 109.7 204.5 108.2 207 102.6C208.1 102.1 210.7 102.7 211.7 103.1C212 111.8 200.1 129.2 191.4 121.2C183.4 113.9 172.4 92.6 172.4 92.6Z" fill="#CE7A63"/>
<path opacity="0.2" d="M171.2 89.9C172.7 86.1 175.7 84.6 179 85.1C180.5 89.7 183 99.8 183.4 115.1L181.1 116.2C181.1 116.3 168.6 96.4 171.2 89.9Z" fill="black"/>
<path d="M169.5 87.3C167.3 93.9 180.7 113.2 180.7 113.2L195 105.2C192.5 99.2 189.4 93.4 185.8 88.1C180.2 80.3 171.9 80.1 169.5 87.3Z" fill="#263238"/>
<path d="M206.8 102.9L211.1 95L217.7 101.2C215.8 103.2 213.6 105 211.2 106.3L206.8 102.9Z" fill="#CE7A63"/>
<path d="M214.1 91.5L219.5 95.4L217.7 101.2L211.2 95L214.1 91.5Z" fill="#CE7A63"/>
<path d="M167.7 57C167.8 57.6 168.1 58 168.5 58C168.9 58 169.1 57.5 169.1 56.9C169.1 56.3 168.7 55.9 168.3 55.9C167.9 55.9 167.6 56.4 167.7 57Z" fill="#263238"/>
<path d="M167.2 57C168.1 58.8 169.2 60.4 170.5 61.9C169.7 62.5 168.7 62.8 167.7 62.6L167.2 57Z" fill="#BA4D3C"/>
<path d="M168.3 54.9L168.4 54.8C168.6 54.7 168.6 54.5 168.5 54.3C167.9 53.4 166.9 52.7 165.7 52.7C165.5 52.7 165.4 52.9 165.4 53C165.4 53.2 165.6 53.3 165.8 53.4C166.7 53.5 167.5 54 168 54.7C168.1 54.9 168.2 54.9 168.3 54.9Z" fill="#263238"/>
<path d="M147.8 56.4C149 63.6 149.3 67.9 153.3 71.4C157.1 74.9 163.1 74.6 166.6 70.7C167.9 69.2 168.7 67.4 169 65.5C169.9 58.9 167.8 48.2 160.4 45.7C155.5 43.9 150 46.4 148.2 51.3C147.6 53 147.5 54.8 147.8 56.4Z" fill="#CE7A63"/>
<path d="M166.6 49.5C170.1 54.3 165 58.4001 162.4 57.9001C162.1 62.8001 156.2 69.5001 153.2 69.3001C147.2 68.9001 147.7 61.9001 144.1 58.4001C139.8 54.3001 139.2 49.5 143.2 47.1C140 46.8 144.8 35.7 154.8 39.6C167.4 44.6 175.5 46.5 175.6 41.2C177.7 47 172.4 52.1 166.6 49.5Z" fill="#263238"/>
<path d="M142.9 47.3C142.6 47.3 142.4 47.2 142.2 47C141.6 46.4 141.4 44.9 141.8 43.4C142.2 41.9 143.6 38.6 148.5 37.4C148.6 37.4 148.8 37.4 148.8 37.6C148.8 37.7 148.8 37.9 148.6 37.9C144 39.1 142.7 42.2 142.3 43.5C141.9 45 142.1 46.2 142.5 46.6C142.6 46.7 142.8 46.8 143 46.7C143.1 46.6 143.3 46.7 143.3 46.8C143.3 46.9 143.3 47.1 143.2 47.1H143.1C143.1 47.3 143 47.3 142.9 47.3Z" fill="#263238"/>
<path d="M158.7 59.7C159.5 61.2 160.8 62.3 162.3 62.8C164.4 63.5 165.4 61.7 164.9 59.7C164.4 57.9 162.7 55.4 160.7 55.6C158.7 55.8 157.8 57.9 158.7 59.7Z" fill="#CE7A63"/>
<path d="M167.3 145.6C167.3 145.6 161.4 201.6 157.8 222.6C153.8 245.6 132.9 317.3 132.9 317.3L119.6 315.4C119.6 315.4 134 247.5 135.9 224.8C137.9 200.1 142 145.7 142 145.7L167.3 145.6Z" fill="#5CD0B6"/>
<path opacity="0.2" d="M158.3 165.2C158.9 164.3 159.4 164 160 164.2H160.1C160.2 164.3 160.3 164.3 160.4 164.4C160.5 164.5 160.6 164.6 160.7 164.7C160.8 164.8 160.8 164.8 160.9 164.9C161 165 161 165.1 161.1 165.2C161.3 165.5 161.4 165.8 161.6 166.1C161.7 166.3 161.8 166.5 161.8 166.7C161.8 166.9 162 167.2 162.1 167.5C162.2 167.8 162.4 168.3 162.5 168.7L162.6 169C162.7 169.2 162.7 169.5 162.8 169.7L162.9 170.3C163 170.7 163.1 171.1 163.2 171.5C163.3 171.9 163.4 172.4 163.5 172.9C163.5 173.1 163.6 173.2 163.6 173.4C163.7 174 163.8 174.6 164 175.2C162.4 189.1 160.5 205.1 158.8 216.3C158.7 215.9 158.6 215.6 158.4 215.2C157.9 213.3 157.5 211.5 157.2 209.6C154.7 195.1 154.5 170.9 158.3 165.2Z" fill="black"/>
<path d="M181.2 145.6C181.2 145.6 184.6 200.4 184.8 222.7C185 245.9 180.2 322 180.2 322H167.8C167.8 322 164 247.3 162.5 224.4C160.8 199.5 155.4 145.5 155.4 145.5L181.2 145.6Z" fill="#7FE5CE"/>
<path d="M166.8 318.3C166.7 318.3 167 322.3 167 322.3H181.3L181.7 317.8L166.8 318.3Z" fill="#42D292"/>
<path d="M120 311.8C119.9 311.8 119 315.4 119 315.4L133.6 317.5L135.3 313.4L120 311.8Z" fill="#42D292"/>
</g>
<defs>
<clipPath id="clip0_571_3">
<rect width="500" height="349.3" fill="white"/>
</clipPath>
</defs>
</svg>
