<svg width="500" height="500" viewBox="0 0 500 500" fill="none" xmlns="http://www.w3.org/2000/svg">
<path d="M464.25 454.44C464.25 457.82 370.73 460.57 255.38 460.57C140.03 460.57 46.5 457.82 46.5 454.44C46.5 451.06 140 448.3 255.38 448.3C370.76 448.3 464.25 451.05 464.25 454.44Z" fill="black" fill-opacity="0.14"/>
<path d="M242.22 180C242.22 180 269.33 183 276.38 200.42L298.43 186.49C298.43 186.49 280.43 167.91 263.99 168.62L242.22 180Z" fill="#263238"/>
<path opacity="0.9" d="M242.22 180C242.22 180 269.33 183 276.38 200.42L298.43 186.49C298.43 186.49 280.43 167.91 263.99 168.62L242.22 180Z" fill="white"/>
<path d="M257.57 180C257.517 179.999 257.465 179.98 257.423 179.948C257.38 179.915 257.35 179.87 257.335 179.818C257.321 179.767 257.323 179.712 257.342 179.662C257.361 179.612 257.395 179.569 257.44 179.54L269.28 172.08C269.338 172.046 269.406 172.035 269.471 172.05C269.536 172.065 269.593 172.104 269.63 172.16C269.648 172.187 269.66 172.218 269.666 172.25C269.672 172.282 269.671 172.315 269.664 172.347C269.656 172.379 269.642 172.409 269.623 172.435C269.603 172.462 269.578 172.484 269.55 172.5L257.7 180C257.658 180.014 257.612 180.014 257.57 180Z" fill="#263238"/>
<path d="M262.84 182C262.798 181.998 262.757 181.986 262.721 181.965C262.684 181.944 262.653 181.915 262.63 181.88C262.596 181.823 262.585 181.754 262.6 181.689C262.615 181.624 262.654 181.567 262.71 181.53L274.56 174.08C274.587 174.062 274.618 174.05 274.65 174.044C274.682 174.038 274.715 174.039 274.747 174.047C274.779 174.054 274.809 174.068 274.835 174.088C274.862 174.107 274.884 174.132 274.9 174.16C274.934 174.216 274.944 174.283 274.929 174.346C274.914 174.41 274.875 174.465 274.82 174.5L263 181.94C262.953 181.974 262.898 181.994 262.84 182Z" fill="#263238"/>
<path d="M268.12 183.92C268.066 183.921 268.013 183.904 267.969 183.872C267.925 183.84 267.892 183.795 267.877 183.743C267.861 183.691 267.862 183.635 267.881 183.584C267.9 183.533 267.934 183.489 267.98 183.46L279.83 176C279.886 175.966 279.953 175.956 280.016 175.971C280.08 175.986 280.135 176.025 280.17 176.08C280.188 176.108 280.201 176.14 280.207 176.172C280.213 176.205 280.212 176.239 280.204 176.272C280.197 176.305 280.183 176.335 280.163 176.363C280.144 176.39 280.119 176.413 280.09 176.43L268.25 183.88C268.212 183.907 268.167 183.921 268.12 183.92Z" fill="#263238"/>
<path d="M272 187.14C271.946 187.141 271.893 187.124 271.849 187.092C271.805 187.06 271.772 187.015 271.756 186.963C271.741 186.911 271.742 186.855 271.761 186.804C271.78 186.753 271.814 186.709 271.86 186.68L283.71 179.22C283.767 179.189 283.833 179.18 283.895 179.194C283.958 179.209 284.013 179.247 284.05 179.3C284.068 179.328 284.081 179.36 284.087 179.393C284.092 179.425 284.092 179.459 284.084 179.492C284.077 179.525 284.063 179.555 284.043 179.583C284.024 179.61 283.999 179.633 283.97 179.65L272.13 187.1C272.092 187.127 272.046 187.141 272 187.14Z" fill="#263238"/>
<path d="M276.27 190.57C276.216 190.569 276.165 190.55 276.122 190.518C276.08 190.485 276.049 190.44 276.035 190.388C276.02 190.337 276.023 190.282 276.042 190.232C276.06 190.182 276.095 190.139 276.14 190.11L288 182.65C288.058 182.618 288.126 182.609 288.19 182.623C288.255 182.638 288.311 182.676 288.35 182.73C288.384 182.787 288.395 182.856 288.38 182.921C288.365 182.986 288.326 183.043 288.27 183.08L276.42 190.53C276.399 190.546 276.375 190.558 276.349 190.565C276.323 190.572 276.296 190.574 276.27 190.57Z" fill="#263238"/>
<path d="M46.31 217.19C46.31 217.19 53.85 243.4 40.48 256.56L61.77 271.62C61.77 271.62 72.07 247.88 65.14 232.96L46.31 217.19Z" fill="#263238"/>
<path opacity="0.9" d="M46.31 217.19C46.31 217.19 53.85 243.4 40.48 256.56L61.77 271.62C61.77 271.62 72.07 247.88 65.14 232.96L46.31 217.19Z" fill="white"/>
<path d="M63.76 239.66C63.7144 239.674 63.6657 239.674 63.62 239.66L52.21 231.56C52.183 231.541 52.16 231.517 52.1423 231.489C52.1247 231.461 52.1127 231.43 52.1071 231.397C52.1015 231.365 52.1025 231.332 52.1098 231.299C52.1172 231.267 52.1309 231.237 52.1501 231.21C52.1681 231.183 52.1913 231.16 52.2183 231.143C52.2453 231.125 52.2756 231.113 52.3073 231.108C52.339 231.102 52.3716 231.103 52.403 231.11C52.4344 231.118 52.464 231.131 52.4901 231.15L63.91 239.26C63.9368 239.278 63.9596 239.301 63.9771 239.328C63.9947 239.355 64.0066 239.386 64.0122 239.417C64.0178 239.449 64.017 239.482 64.0097 239.513C64.0025 239.544 63.989 239.574 63.9701 239.6C63.9415 239.625 63.9079 239.643 63.8717 239.653C63.8354 239.663 63.7973 239.666 63.76 239.66Z" fill="#263238"/>
<path d="M64 245.27C63.951 245.284 63.8991 245.284 63.85 245.27L52.44 237.17C52.413 237.151 52.39 237.127 52.3723 237.099C52.3546 237.071 52.3427 237.04 52.3371 237.007C52.3315 236.975 52.3324 236.942 52.3398 236.909C52.3472 236.877 52.3608 236.847 52.38 236.82C52.399 236.793 52.4231 236.77 52.451 236.752C52.4789 236.735 52.51 236.723 52.5425 236.717C52.5751 236.711 52.6084 236.712 52.6406 236.72C52.6728 236.727 52.7032 236.741 52.73 236.76L64.14 244.86C64.1671 244.879 64.1901 244.903 64.2078 244.931C64.2254 244.959 64.2374 244.99 64.243 245.022C64.2485 245.055 64.2476 245.088 64.2403 245.121C64.2329 245.153 64.2192 245.183 64.2 245.21C64.173 245.234 64.1411 245.252 64.1066 245.262C64.0721 245.272 64.0357 245.275 64 245.27Z" fill="#263238"/>
<path d="M64.19 250.89C64.145 250.908 64.0949 250.908 64.05 250.89L52.63 242.79C52.6029 242.771 52.5799 242.747 52.5622 242.719C52.5446 242.691 52.5326 242.66 52.527 242.627C52.5215 242.595 52.5224 242.562 52.5297 242.529C52.5371 242.497 52.5508 242.467 52.57 242.44C52.6098 242.387 52.6682 242.352 52.7331 242.341C52.7981 242.33 52.8649 242.344 52.92 242.38L64.33 250.49C64.3713 250.521 64.4021 250.564 64.418 250.613C64.434 250.662 64.4343 250.715 64.4189 250.764C64.4036 250.814 64.3733 250.857 64.3323 250.889C64.2913 250.92 64.2416 250.938 64.19 250.94V250.89Z" fill="#263238"/>
<path d="M62.69 255.69C62.6365 255.687 62.5847 255.67 62.54 255.64L51.13 247.54C51.0757 247.502 51.0388 247.443 51.0275 247.377C51.0163 247.312 51.0316 247.244 51.07 247.19C51.1085 247.136 51.167 247.099 51.2326 247.087C51.2982 247.076 51.3657 247.092 51.42 247.13L62.83 255.23C62.8571 255.249 62.8801 255.273 62.8977 255.301C62.9154 255.329 62.9274 255.36 62.933 255.392C62.9385 255.425 62.9376 255.458 62.9303 255.491C62.9229 255.523 62.9092 255.553 62.89 255.58C62.8684 255.613 62.8389 255.641 62.8039 255.66C62.769 255.679 62.7299 255.69 62.69 255.69Z" fill="#263238"/>
<path d="M61.1598 261C61.1062 260.997 61.0544 260.98 61.0097 260.95L49.5997 252.85C49.5454 252.812 49.5085 252.753 49.4973 252.687C49.486 252.622 49.5013 252.554 49.5398 252.5C49.5782 252.446 49.6367 252.409 49.7023 252.397C49.768 252.386 49.8354 252.402 49.8898 252.44L61.2998 260.54C61.3268 260.559 61.3498 260.583 61.3675 260.611C61.3851 260.639 61.3971 260.67 61.4027 260.702C61.4083 260.735 61.4073 260.768 61.4 260.801C61.3926 260.833 61.3789 260.863 61.3598 260.89C61.337 260.922 61.3071 260.949 61.2725 260.968C61.2378 260.987 61.1993 260.998 61.1598 261Z" fill="#263238"/>
<path d="M238 309.87C238 309.87 224.37 286.25 234.18 270.26L209.88 260.77C209.88 260.77 205.61 286.3 215.88 299.1L238 309.87Z" fill="#263238"/>
<path opacity="0.7" d="M238 309.87C238 309.87 224.37 286.25 234.18 270.26L209.88 260.77C209.88 260.77 205.61 286.3 215.88 299.1L238 309.87Z" fill="white"/>
<path d="M228.77 297.88H228.68L215.68 292.77C215.618 292.746 215.568 292.698 215.54 292.638C215.513 292.577 215.511 292.507 215.535 292.445C215.559 292.383 215.607 292.332 215.668 292.305C215.729 292.278 215.798 292.276 215.86 292.3L228.86 297.42C228.891 297.431 228.919 297.448 228.943 297.471C228.967 297.493 228.986 297.52 228.999 297.55C229.012 297.58 229.019 297.612 229.019 297.645C229.02 297.677 229.013 297.71 229 297.74C228.979 297.783 228.946 297.819 228.906 297.844C228.865 297.868 228.818 297.881 228.77 297.88Z" fill="#263238"/>
<path d="M227.21 292.48H227.12L214.12 287.37C214.085 287.357 214.054 287.336 214.028 287.309C214.002 287.282 213.983 287.249 213.972 287.214C213.96 287.178 213.957 287.141 213.962 287.104C213.967 287.067 213.98 287.031 214 287C214.025 286.94 214.072 286.891 214.132 286.865C214.191 286.839 214.259 286.837 214.32 286.86L227.32 291.98C227.351 291.991 227.379 292.008 227.403 292.031C227.427 292.053 227.446 292.08 227.459 292.11C227.472 292.14 227.479 292.172 227.479 292.205C227.479 292.238 227.473 292.27 227.46 292.3C227.444 292.354 227.411 292.4 227.366 292.433C227.321 292.466 227.266 292.482 227.21 292.48Z" fill="#263238"/>
<path d="M225.65 287.08C225.621 287.089 225.589 287.089 225.56 287.08L212.56 281.97C212.529 281.958 212.501 281.94 212.477 281.918C212.453 281.895 212.434 281.868 212.42 281.837C212.407 281.807 212.399 281.775 212.399 281.742C212.398 281.709 212.403 281.676 212.415 281.645C212.427 281.614 212.445 281.586 212.467 281.562C212.49 281.538 212.517 281.519 212.548 281.505C212.578 281.492 212.61 281.484 212.643 281.483C212.676 281.483 212.709 281.488 212.74 281.5L225.74 286.62C225.771 286.631 225.799 286.648 225.823 286.671C225.847 286.693 225.866 286.72 225.879 286.75C225.892 286.78 225.899 286.812 225.899 286.845C225.899 286.877 225.893 286.91 225.88 286.94C225.859 286.983 225.826 287.019 225.786 287.044C225.745 287.068 225.698 287.081 225.65 287.08Z" fill="#263238"/>
<path d="M226 282.06H225.9L212.9 276.94C212.839 276.915 212.791 276.868 212.765 276.809C212.738 276.749 212.737 276.681 212.76 276.62C212.772 276.589 212.79 276.56 212.813 276.536C212.837 276.512 212.864 276.493 212.895 276.48C212.926 276.467 212.959 276.461 212.992 276.46C213.026 276.46 213.059 276.467 213.09 276.48L226.09 281.59C226.142 281.612 226.185 281.652 226.212 281.702C226.239 281.752 226.248 281.81 226.238 281.866C226.227 281.922 226.198 281.973 226.155 282.01C226.111 282.047 226.057 282.068 226 282.07V282.06Z" fill="#263238"/>
<path d="M226.17 276.57C226.141 276.579 226.109 276.579 226.08 276.57L213.08 271.46C213.018 271.436 212.967 271.388 212.94 271.328C212.913 271.267 212.911 271.197 212.935 271.135C212.959 271.073 213.007 271.022 213.068 270.995C213.129 270.968 213.198 270.966 213.26 270.99L226.26 276.11C226.313 276.132 226.356 276.172 226.383 276.222C226.41 276.272 226.419 276.33 226.408 276.386C226.398 276.442 226.368 276.493 226.325 276.53C226.282 276.567 226.227 276.588 226.17 276.59V276.57Z" fill="#263238"/>
<path d="M386.47 133.37C386.47 133.37 359.3 135.7 349 120.05L330.11 138.05C330.11 138.05 351.42 152.74 367.39 148.82L386.47 133.37Z" fill="#263238"/>
<path opacity="0.8" d="M386.47 133.37C386.47 133.37 359.3 135.7 349 120.05L330.11 138.05C330.11 138.05 351.42 152.74 367.39 148.82L386.47 133.37Z" fill="white"/>
<path d="M361.3 146.45C361.233 146.451 361.169 146.426 361.12 146.38C361.073 146.332 361.047 146.267 361.047 146.2C361.047 146.133 361.073 146.068 361.12 146.02L371.28 136.39C371.302 136.366 371.329 136.347 371.359 136.334C371.39 136.321 371.422 136.314 371.455 136.314C371.488 136.314 371.52 136.321 371.55 136.334C371.58 136.347 371.607 136.366 371.63 136.39C371.676 136.437 371.701 136.5 371.701 136.565C371.701 136.63 371.676 136.693 371.63 136.74L361.47 146.37C361.449 146.395 361.423 146.415 361.394 146.429C361.364 146.443 361.332 146.45 361.3 146.45Z" fill="#263238"/>
<path d="M355.75 145.58C355.682 145.577 355.618 145.548 355.57 145.5C355.524 145.453 355.499 145.39 355.499 145.325C355.499 145.26 355.524 145.197 355.57 145.15L365.72 135.51C365.744 135.487 365.773 135.469 365.804 135.457C365.835 135.445 365.869 135.439 365.902 135.44C365.935 135.441 365.968 135.449 365.999 135.462C366.029 135.476 366.057 135.496 366.08 135.52C366.103 135.544 366.121 135.573 366.133 135.604C366.145 135.635 366.15 135.669 366.15 135.702C366.149 135.735 366.141 135.768 366.127 135.799C366.114 135.829 366.094 135.857 366.07 135.88L355.91 145.51C355.89 145.532 355.865 145.549 355.837 145.562C355.81 145.574 355.78 145.58 355.75 145.58Z" fill="#263238"/>
<path d="M350.2 144.71C350.166 144.71 350.133 144.702 350.102 144.688C350.071 144.675 350.043 144.655 350.02 144.63C349.996 144.607 349.976 144.579 349.963 144.548C349.95 144.517 349.943 144.484 349.943 144.45C349.943 144.416 349.95 144.383 349.963 144.352C349.976 144.321 349.996 144.293 350.02 144.27L360.17 134.64C360.193 134.616 360.221 134.597 360.252 134.583C360.283 134.57 360.316 134.563 360.35 134.563C360.383 134.563 360.417 134.57 360.448 134.583C360.479 134.597 360.507 134.616 360.53 134.64C360.576 134.687 360.601 134.75 360.601 134.815C360.601 134.88 360.576 134.943 360.53 134.99L350.37 144.63C350.324 144.675 350.264 144.704 350.2 144.71Z" fill="#263238"/>
<path d="M345.78 142.3C345.713 142.301 345.649 142.276 345.6 142.23C345.553 142.182 345.527 142.117 345.527 142.05C345.527 141.983 345.553 141.918 345.6 141.87L355.76 132.24C355.782 132.216 355.809 132.197 355.839 132.184C355.869 132.171 355.902 132.164 355.935 132.164C355.968 132.164 356 132.171 356.03 132.184C356.06 132.197 356.087 132.216 356.11 132.24C356.156 132.287 356.181 132.35 356.181 132.415C356.181 132.48 356.156 132.543 356.11 132.59L346 142.23C345.972 142.259 345.937 142.281 345.899 142.293C345.86 142.305 345.819 142.308 345.78 142.3Z" fill="#263238"/>
<path d="M340.9 139.78C340.867 139.781 340.834 139.776 340.803 139.764C340.772 139.752 340.744 139.734 340.72 139.71C340.696 139.687 340.677 139.659 340.663 139.628C340.65 139.597 340.644 139.564 340.644 139.53C340.644 139.496 340.65 139.463 340.663 139.432C340.677 139.401 340.696 139.373 340.72 139.35L350.87 129.72C350.893 129.696 350.921 129.677 350.952 129.663C350.983 129.65 351.016 129.643 351.05 129.643C351.084 129.643 351.117 129.65 351.148 129.663C351.179 129.677 351.207 129.696 351.23 129.72C351.276 129.767 351.302 129.83 351.302 129.895C351.302 129.96 351.276 130.023 351.23 130.07L341.07 139.7C341.049 139.725 341.023 139.744 340.994 139.758C340.964 139.772 340.932 139.779 340.9 139.78Z" fill="#263238"/>
<path d="M135.69 173.67C135.69 173.67 108.83 168.96 102.86 151.19L80 163.73C80 163.73 96.84 183.39 113.28 183.73L135.69 173.67Z" fill="#263238"/>
<path opacity="0.8" d="M135.69 173.67C135.69 173.67 108.83 168.96 102.86 151.19L80 163.73C80 163.73 96.84 183.39 113.28 183.73L135.69 173.67Z" fill="white"/>
<path d="M102.93 177.61C102.874 177.61 102.82 177.592 102.776 177.558C102.732 177.524 102.7 177.476 102.686 177.422C102.673 177.368 102.677 177.311 102.7 177.26C102.722 177.209 102.761 177.166 102.81 177.14L115.1 170.43C115.129 170.414 115.161 170.404 115.193 170.401C115.226 170.397 115.259 170.4 115.291 170.409C115.322 170.419 115.352 170.434 115.377 170.455C115.403 170.475 115.424 170.501 115.44 170.53C115.469 170.589 115.475 170.657 115.457 170.72C115.438 170.783 115.397 170.836 115.34 170.87L103.05 177.58C103.014 177.602 102.972 177.612 102.93 177.61Z" fill="#263238"/>
<path d="M97.7899 175.35C97.7451 175.349 97.7013 175.337 97.6628 175.314C97.6243 175.291 97.5922 175.259 97.5699 175.22C97.554 175.191 97.5441 175.159 97.5405 175.127C97.537 175.094 97.5399 175.061 97.5492 175.029C97.5585 174.998 97.574 174.968 97.5947 174.943C97.6154 174.917 97.6409 174.896 97.6699 174.88L110 168.16C110.059 168.131 110.126 168.125 110.19 168.143C110.253 168.162 110.306 168.203 110.34 168.26C110.356 168.289 110.366 168.321 110.369 168.353C110.373 168.386 110.37 168.419 110.361 168.451C110.351 168.482 110.336 168.512 110.315 168.537C110.294 168.563 110.269 168.584 110.24 168.6L97.9599 175.31C97.9368 175.33 97.9093 175.344 97.8797 175.351C97.8502 175.358 97.8193 175.357 97.7899 175.35Z" fill="#263238"/>
<path d="M94.14 171.89C94.0946 171.892 94.0494 171.881 94.0103 171.858C93.9711 171.835 93.9397 171.801 93.92 171.76C93.9041 171.731 93.8942 171.699 93.8906 171.667C93.8871 171.634 93.89 171.601 93.8993 171.569C93.9086 171.538 93.9241 171.508 93.9448 171.483C93.9655 171.457 93.991 171.436 94.02 171.42L106.3 164.71C106.358 164.678 106.427 164.671 106.491 164.69C106.554 164.708 106.608 164.752 106.64 164.81C106.672 164.868 106.679 164.937 106.66 165.001C106.642 165.064 106.598 165.118 106.54 165.15L94.26 171.86L94.14 171.89Z" fill="#263238"/>
<path d="M90.06 168.21C90.0152 168.209 89.9714 168.197 89.9329 168.174C89.8944 168.151 89.8623 168.119 89.84 168.08C89.8105 168.021 89.8045 167.953 89.8231 167.89C89.8416 167.827 89.8834 167.774 89.94 167.74L102.22 161C102.249 160.984 102.281 160.974 102.313 160.971C102.346 160.967 102.379 160.97 102.411 160.979C102.442 160.989 102.472 161.004 102.497 161.025C102.523 161.045 102.544 161.071 102.56 161.1C102.577 161.129 102.588 161.16 102.593 161.193C102.597 161.226 102.594 161.26 102.585 161.292C102.576 161.324 102.56 161.354 102.538 161.379C102.517 161.405 102.49 161.425 102.46 161.44L90.18 168.16L90.06 168.21Z" fill="#263238"/>
<path d="M421.37 210.82L414.68 248.5C414.68 248.5 429.31 249.98 437.39 257.72C439.328 259.468 441.066 261.427 442.57 263.56L449.8 225.12C449.8 225.12 445.25 209.93 421.37 210.82Z" fill="#263238"/>
<path opacity="0.8" d="M421.37 210.82L414.68 248.5C414.68 248.5 429.31 249.98 437.39 257.72C439.328 259.468 441.066 261.427 442.57 263.56L449.8 225.12C449.8 225.12 445.25 209.93 421.37 210.82Z" fill="white"/>
<path d="M445 228.41C444.96 228.411 444.92 228.401 444.885 228.382C444.85 228.362 444.821 228.334 444.8 228.3C442.887 225.458 440.29 223.144 437.247 221.571C434.204 219.998 430.814 219.217 427.39 219.3C427.357 219.301 427.324 219.296 427.293 219.285C427.262 219.273 427.234 219.256 427.21 219.234C427.186 219.212 427.166 219.185 427.153 219.155C427.139 219.125 427.131 219.093 427.13 219.06C427.127 219.027 427.131 218.993 427.142 218.962C427.153 218.931 427.17 218.902 427.193 218.877C427.215 218.853 427.243 218.833 427.273 218.82C427.304 218.807 427.336 218.8 427.37 218.8H428C431.392 218.827 434.726 219.678 437.716 221.281C440.705 222.884 443.26 225.19 445.16 228C445.18 228.027 445.194 228.058 445.202 228.091C445.209 228.124 445.209 228.158 445.203 228.191C445.196 228.224 445.183 228.255 445.163 228.282C445.144 228.31 445.119 228.333 445.09 228.35C445.065 228.377 445.034 228.397 445 228.41Z" fill="#263238"/>
<path d="M443.2 233.73C443.159 233.73 443.119 233.719 443.082 233.7C443.046 233.681 443.014 233.654 442.99 233.62C441.079 230.778 438.481 228.463 435.438 226.89C432.395 225.317 429.005 224.536 425.58 224.62C425.515 224.618 425.453 224.59 425.406 224.544C425.36 224.498 425.333 224.435 425.33 224.37C425.329 224.338 425.334 224.305 425.346 224.275C425.357 224.245 425.375 224.217 425.397 224.194C425.419 224.17 425.446 224.152 425.476 224.139C425.506 224.126 425.538 224.12 425.57 224.12C429.077 224.035 432.548 224.833 435.666 226.441C438.783 228.048 441.446 230.414 443.41 233.32C443.446 233.376 443.458 233.444 443.445 233.509C443.432 233.574 443.394 233.632 443.34 233.67C443.302 233.705 443.252 233.726 443.2 233.73Z" fill="#263238"/>
<path d="M442.45 239.56C442.409 239.561 442.367 239.552 442.331 239.533C442.294 239.513 442.263 239.485 442.24 239.45C440.138 236.527 437.374 234.143 434.175 232.492C430.975 230.841 427.43 229.97 423.83 229.95C423.764 229.95 423.7 229.924 423.653 229.877C423.606 229.83 423.58 229.766 423.58 229.7C423.58 229.634 423.606 229.57 423.653 229.523C423.7 229.476 423.764 229.45 423.83 229.45C427.522 229.44 431.163 230.318 434.444 232.012C437.725 233.706 440.55 236.164 442.68 239.18C442.699 239.207 442.711 239.237 442.718 239.269C442.724 239.3 442.724 239.333 442.718 239.365C442.711 239.397 442.698 239.427 442.68 239.454C442.661 239.48 442.638 239.503 442.61 239.52C442.564 239.553 442.507 239.567 442.45 239.56Z" fill="#263238"/>
<path d="M441 245.05C440.959 245.05 440.918 245.039 440.882 245.02C440.845 245.001 440.814 244.974 440.79 244.94C437.24 239.53 429.43 235.46 422.97 235.66C422.938 235.661 422.905 235.656 422.875 235.645C422.845 235.633 422.817 235.616 422.794 235.593C422.77 235.571 422.752 235.544 422.739 235.514C422.726 235.484 422.72 235.452 422.72 235.42C422.719 235.387 422.724 235.354 422.735 235.324C422.746 235.293 422.764 235.264 422.786 235.24C422.808 235.216 422.835 235.197 422.865 235.183C422.895 235.169 422.927 235.161 422.96 235.16H423.46C429.95 235.16 437.66 239.26 441.21 244.67C441.228 244.697 441.241 244.727 441.248 244.759C441.254 244.79 441.254 244.823 441.248 244.855C441.241 244.887 441.228 244.917 441.21 244.943C441.191 244.97 441.167 244.993 441.14 245.01C441.099 245.038 441.05 245.052 441 245.05Z" fill="#263238"/>
<path d="M439.65 251C439.609 251 439.568 250.989 439.532 250.97C439.495 250.951 439.464 250.924 439.44 250.89C435.89 245.47 428.06 241.4 421.63 241.61C421.566 241.608 421.505 241.582 421.459 241.538C421.413 241.493 421.385 241.434 421.38 241.37C421.379 241.337 421.384 241.304 421.395 241.274C421.407 241.243 421.424 241.214 421.446 241.19C421.468 241.166 421.495 241.147 421.525 241.133C421.555 241.119 421.587 241.111 421.62 241.11H422.12C428.61 241.11 436.32 245.21 439.87 250.62C439.889 250.647 439.902 250.678 439.908 250.711C439.915 250.744 439.915 250.777 439.909 250.81C439.902 250.842 439.889 250.873 439.87 250.901C439.852 250.928 439.828 250.952 439.8 250.97C439.755 250.997 439.702 251.007 439.65 251Z" fill="#263238"/>
<path d="M177.73 123.7C177.38 123.6 175.15 127.02 175.15 127.02L188.15 136.4L207.57 132.26L228.17 113.73L227.62 109.96L223.62 107.68L221.85 108.49L221.33 106.8C220.263 107.991 219.131 109.123 217.94 110.19C216.31 111.59 203.94 115.36 202.94 123.48C202.94 123.48 199.18 120.6 194.94 121.6C190.7 122.6 182.09 124.88 177.73 123.7Z" fill="#263238"/>
<path opacity="0.8" d="M177.73 123.7C177.38 123.6 175.15 127.02 175.15 127.02L188.15 136.4L207.57 132.26L228.17 113.73L227.62 109.96L223.62 107.68L221.85 108.49L221.33 106.8C220.263 107.991 219.131 109.123 217.94 110.19C216.31 111.59 203.94 115.36 202.94 123.48C202.94 123.48 199.18 120.6 194.94 121.6C190.7 122.6 182.09 124.88 177.73 123.7Z" fill="white"/>
<path d="M172.43 126.74L187.55 158L210.41 157C210.41 157 212.34 158.71 215.79 155.75L235 142.39L229.06 108.93L206.75 124.22C205.863 125.032 204.805 125.633 203.654 125.979C202.502 126.325 201.288 126.408 200.1 126.22L172.43 126.74Z" fill="#263238"/>
<path opacity="0.3" d="M210.41 157L200.14 126.2C201.342 126.398 202.573 126.32 203.74 125.97C204.836 125.569 205.852 124.976 206.74 124.22L215.74 155.71C215.74 155.71 212.75 158.47 210.41 157Z" fill="black"/>
<path d="M427.75 334.09H363.14V341.46H427.75V334.09Z" fill="#407BFF"/>
<path opacity="0.8" d="M427.75 335.73H397.87V339.99H427.75V335.73Z" fill="white"/>
<path opacity="0.3" d="M395.45 334.09H363.14V341.46H395.45V334.09Z" fill="black"/>
<path d="M322 371C321.15 355.436 319.225 339.949 316.24 324.65C315.5 320.96 311.55 318.45 307.29 318.91L282.46 321.61C278.33 321.88 274.12 323.26 271.52 326.07C267.52 330.36 268.31 336.54 269.28 341.98C271.18 352.647 273.077 363.313 274.97 373.98C275.57 377.35 276.45 381.12 279.73 382.98C282.37 384.5 285.79 384.31 288.94 384.05C296.773 383.383 304.587 382.59 312.38 381.67C315.02 381.36 317.86 380.95 319.74 379.31C322.16 377.25 322.2 374 322 371Z" fill="#A43AEC"/>
<path d="M334.3 308.26L341.11 307.33L350.95 383.78L344.13 384.72L334.3 308.26Z" fill="#263238"/>
<path d="M291.67 308.27L298.49 307.34L308.32 383.79L301.51 384.72L291.67 308.27Z" fill="#263238"/>
<g opacity="0.3">
<path d="M334.3 308.26L341.11 307.33L350.95 383.78L344.13 384.72L334.3 308.26Z" fill="white"/>
</g>
<g opacity="0.4">
<path d="M291.67 308.27L298.49 307.34L308.32 383.79L301.51 384.72L291.67 308.27Z" fill="white"/>
</g>
<path d="M348.22 339.17H296.82C295.467 339.169 294.16 338.675 293.144 337.781C292.128 336.886 291.473 335.652 291.3 334.31L287.65 305.81C287.579 305.248 287.619 304.678 287.768 304.132C287.918 303.586 288.174 303.075 288.521 302.628C288.869 302.181 289.301 301.807 289.793 301.528C290.286 301.249 290.828 301.069 291.39 301C291.567 300.99 291.744 300.99 291.92 301H343.32C344.674 300.999 345.982 301.492 346.998 302.387C348.015 303.282 348.67 304.517 348.84 305.86L352.49 334.33C352.641 335.463 352.336 336.61 351.642 337.52C350.949 338.429 349.923 339.026 348.79 339.18C348.6 339.187 348.41 339.183 348.22 339.17Z" fill="#263238"/>
<path d="M342.57 456.35H352.16L353.34 405.67L353.83 384.26H340.91L341.4 405.67L342.57 456.35Z" fill="#263238"/>
<path opacity="0.2" d="M353.83 384.26L353.34 406.26H341.4L340.91 384.26H353.83Z" fill="black"/>
<path d="M391.53 456.35L387.36 385.77H376.13L381.96 456.35H391.53Z" fill="#263238"/>
<path opacity="0.5" d="M381.95 456.35H391.52L387.98 396.22L387.36 385.63H376.13L377 396.22L381.95 456.35Z" fill="white"/>
<path d="M312.77 456.35L318.61 385.77H307.37L303.2 456.35H312.77Z" fill="#263238"/>
<path opacity="0.5" d="M312.78 456.35L317.73 396.22L318.6 385.63H307.37L306.75 396.22L303.21 456.35H312.78Z" fill="white"/>
<path opacity="0.2" d="M318.6 385.63L317.73 396.63H306.75L307.37 385.63H318.6Z" fill="black"/>
<path d="M301 381.75H393.81C394.871 381.75 395.888 382.171 396.638 382.922C397.389 383.672 397.81 384.689 397.81 385.75C397.81 386.811 397.389 387.828 396.638 388.578C395.888 389.329 394.871 389.75 393.81 389.75H301C299.939 389.75 298.922 389.329 298.172 388.578C297.421 387.828 297 386.811 297 385.75C297 384.689 297.421 383.672 298.172 382.922C298.922 382.171 299.939 381.75 301 381.75Z" fill="#263238"/>
<path opacity="0.6" d="M301 381.75H393.81C394.871 381.75 395.888 382.171 396.638 382.922C397.389 383.672 397.81 384.689 397.81 385.75C397.81 386.811 397.389 387.828 396.638 388.578C395.888 389.329 394.871 389.75 393.81 389.75H301C299.939 389.75 298.922 389.329 298.172 388.578C297.421 387.828 297 386.811 297 385.75C297 384.689 297.421 383.672 298.172 382.922C298.922 382.171 299.939 381.75 301 381.75Z" fill="white"/>
<path d="M296.05 301L285.84 363.49L290.74 373.97C290.74 373.97 300.74 325.78 302.43 316.41C303.425 311.337 303.801 306.163 303.55 301C301.077 300.479 298.523 300.479 296.05 301Z" fill="#A43AEC"/>
<path d="M287.62 307.54L280.15 321.91V322.78L289.58 320.86L287.62 307.54Z" fill="#A43AEC"/>
<path opacity="0.3" d="M284.84 363.17H284.78C284.714 363.153 284.657 363.112 284.622 363.054C284.586 362.996 284.575 362.926 284.59 362.86L287.29 351.86C287.306 351.795 287.347 351.739 287.404 351.704C287.461 351.67 287.53 351.659 287.595 351.675C287.66 351.691 287.716 351.732 287.751 351.789C287.785 351.846 287.796 351.915 287.78 351.98L285.08 362.98C285.068 363.035 285.038 363.084 284.994 363.118C284.95 363.153 284.896 363.171 284.84 363.17Z" fill="#263238"/>
<path opacity="0.3" d="M278.19 326.73C278.148 326.743 278.103 326.743 278.06 326.73C278.032 326.714 278.007 326.692 277.988 326.665C277.968 326.639 277.954 326.609 277.947 326.577C277.939 326.545 277.938 326.512 277.944 326.48C277.95 326.448 277.962 326.417 277.98 326.39C279.33 324.19 281.86 318.39 281.89 318.3C281.919 318.241 281.968 318.194 282.03 318.17C282.091 318.146 282.159 318.146 282.22 318.17C282.28 318.198 282.326 318.248 282.35 318.309C282.374 318.371 282.374 318.439 282.35 318.5C282.24 318.74 279.78 324.42 278.35 326.65C278.309 326.696 278.252 326.725 278.19 326.73Z" fill="#263238"/>
<path opacity="0.3" d="M277.67 363.17C277.613 363.169 277.558 363.148 277.515 363.112C277.471 363.076 277.441 363.026 277.43 362.97C277.43 362.79 274.06 345.16 272.43 330.58C272.43 330.33 272.23 324.97 275.04 323.27C275.097 323.236 275.166 323.225 275.231 323.24C275.296 323.255 275.353 323.294 275.39 323.35C275.423 323.409 275.432 323.478 275.416 323.543C275.399 323.608 275.357 323.665 275.3 323.7C272.74 325.25 272.93 330.49 272.93 330.54C274.57 345.08 277.93 362.7 277.93 362.88C277.942 362.945 277.927 363.012 277.89 363.066C277.852 363.121 277.795 363.158 277.73 363.17H277.67Z" fill="#263238"/>
<path d="M317 293.53L290.47 276.25L274.89 248.58L267.25 254C267.25 254 276.46 282.77 282.78 288.63C289.1 294.49 311.41 308.79 311.41 308.79L317 293.53Z" fill="#B97964"/>
<path d="M275 251.22C275 251.22 277.28 248.51 277 245.6C276.72 242.69 277.27 240.28 276.91 238.13C276.55 235.98 274.66 237.05 274.11 238.56C273.56 240.07 273.3 243.2 272.23 242.56C271.16 241.92 265.77 233.01 264.23 232.36C262.69 231.71 263.08 233.43 263.08 233.43C263.08 233.43 261.85 231.43 260.71 231.6C259.57 231.77 259.97 233.26 259.97 233.26C259.97 233.26 259.1 231.94 258.24 232.66C257.38 233.38 261.52 241.91 261.47 242.35C261.47 242.35 259.68 236.91 258.24 236.87C256.8 236.83 257.64 239.87 258.24 242.36C259.009 244.974 260.378 247.371 262.24 249.36C264.44 251.74 266.89 255.52 269.78 254.71C271.793 254.02 273.592 252.817 275 251.22Z" fill="#B97964"/>
<g opacity="0.2">
<path d="M259.94 233.71C261.32 236.01 262.63 238.34 263.84 240.71C263.231 241.05 262.647 241.431 262.09 241.85C261.82 242.07 262.24 242.4 262.52 242.2C264.257 240.891 266.261 239.98 268.39 239.53C268.75 239.46 268.57 238.99 268.22 239.07C267.682 239.188 267.152 239.335 266.63 239.51C266.644 239.464 266.644 239.415 266.63 239.37C265.808 237.428 264.757 235.592 263.5 233.9C263.3 233.65 262.82 233.9 263.02 234.17C264.254 235.818 265.281 237.612 266.08 239.51C266.08 239.58 265.72 240.32 265.79 240.34C265.13 240.57 264.94 240.15 264.33 240.46C263.11 238.09 261.82 235.76 260.42 233.46C260.24 233.18 259.77 233.43 259.94 233.71Z" fill="black"/>
</g>
<g opacity="0.2">
<path d="M269.25 251C268.834 249.646 268.883 248.193 269.389 246.87C269.894 245.547 270.828 244.431 272.04 243.7C272.32 243.54 272.04 243.05 271.74 243.21C269.09 244.73 267.96 247.76 268.74 251.1C268.746 251.133 268.76 251.165 268.778 251.194C268.797 251.222 268.822 251.247 268.85 251.266C268.878 251.285 268.91 251.298 268.944 251.305C268.977 251.311 269.011 251.312 269.045 251.305C269.078 251.298 269.11 251.285 269.139 251.266C269.167 251.248 269.192 251.223 269.211 251.195C269.23 251.167 269.243 251.135 269.25 251.101C269.256 251.068 269.256 251.033 269.25 251Z" fill="black"/>
</g>
<path opacity="0.2" d="M261.32 242.71C261.267 242.711 261.215 242.695 261.172 242.664C261.129 242.633 261.097 242.59 261.08 242.54C260.518 240.894 259.812 239.301 258.97 237.78C258.952 237.752 258.94 237.721 258.935 237.688C258.93 237.656 258.932 237.622 258.941 237.59C258.949 237.558 258.964 237.529 258.984 237.503C259.005 237.477 259.031 237.455 259.06 237.44C259.118 237.407 259.188 237.397 259.253 237.414C259.318 237.431 259.374 237.472 259.41 237.53C260.263 239.086 260.983 240.712 261.56 242.39C261.579 242.452 261.573 242.52 261.543 242.577C261.513 242.635 261.462 242.679 261.4 242.7L261.32 242.71Z" fill="black"/>
<path d="M349.26 288.62L370.1 266.07L378.86 237.17L388.79 238.84C388.79 238.84 384.68 269.28 380.05 276.55C375.42 283.82 360 304.19 360 304.19L349.26 288.62Z" fill="#B97964"/>
<path d="M380.14 240.18C380.14 240.18 376.86 238.83 375.77 236.12C374.68 233.41 373.07 231.52 372.4 229.45C371.73 227.38 373.9 227.45 375.08 228.54C376.26 229.63 377.94 232.28 378.61 231.26C379.28 230.24 379.94 219.81 381.02 218.5C382.1 217.19 382.54 218.92 382.54 218.92C382.54 218.92 382.7 216.58 383.79 216.21C384.88 215.84 385.22 217.33 385.22 217.33C385.22 217.33 385.38 215.77 386.48 216.01C387.58 216.25 387.83 225.73 388.07 226.09C388.07 226.09 387.15 220.45 388.41 219.74C389.67 219.03 390.35 222.15 390.94 224.62C391.463 227.303 391.343 230.072 390.59 232.7C389.74 235.82 389.3 240.31 386.37 240.93C384.264 241.226 382.116 240.968 380.14 240.18Z" fill="#B97964"/>
<g opacity="0.2">
<path d="M385.44 217.69C385.27 220.36 385.18 223.04 385.2 225.69C385.897 225.707 386.592 225.773 387.28 225.89C387.62 225.96 387.4 226.45 387.06 226.4C384.914 226.044 382.715 226.164 380.62 226.75C380.27 226.84 380.21 226.35 380.56 226.26C381.093 226.111 381.634 225.994 382.18 225.91C382.161 225.894 382.145 225.875 382.135 225.852C382.124 225.83 382.119 225.805 382.12 225.78C381.949 223.681 382.033 221.569 382.37 219.49C382.43 219.17 382.97 219.16 382.92 219.49C382.588 221.522 382.505 223.587 382.67 225.64C382.67 225.72 383.36 226.2 383.31 226.25C384 226.15 383.98 225.68 384.66 225.67C384.66 223.02 384.72 220.35 384.9 217.67C384.92 217.36 385.46 217.36 385.44 217.69Z" fill="black"/>
</g>
<g opacity="0.2">
<path d="M385.14 237.31C384.887 235.916 384.174 234.647 383.116 233.704C382.057 232.762 380.714 232.201 379.3 232.11C378.98 232.11 379.01 231.53 379.3 231.54C382.36 231.67 384.76 233.84 385.59 237.17C385.614 237.202 385.63 237.239 385.637 237.279C385.643 237.318 385.64 237.359 385.628 237.397C385.615 237.435 385.594 237.469 385.566 237.498C385.537 237.526 385.502 237.547 385.464 237.558C385.426 237.57 385.386 237.573 385.346 237.566C385.307 237.559 385.27 237.542 385.238 237.518C385.206 237.494 385.181 237.462 385.164 237.426C385.147 237.39 385.139 237.35 385.14 237.31Z" fill="black"/>
</g>
<path opacity="0.2" d="M388.24 226.34C388.181 226.34 388.124 226.319 388.08 226.281C388.036 226.242 388.007 226.188 388 226.13C387.734 224.376 387.624 222.603 387.67 220.83C387.67 220.797 387.677 220.764 387.69 220.733C387.703 220.703 387.723 220.675 387.747 220.653C387.772 220.63 387.8 220.613 387.832 220.602C387.863 220.591 387.897 220.587 387.93 220.59C387.963 220.591 387.995 220.599 388.025 220.613C388.055 220.627 388.082 220.646 388.104 220.67C388.126 220.694 388.143 220.723 388.155 220.753C388.166 220.784 388.171 220.817 388.17 220.85C388.126 222.589 388.233 224.329 388.49 226.05C388.496 226.083 388.495 226.117 388.487 226.149C388.48 226.182 388.466 226.212 388.446 226.239C388.426 226.266 388.402 226.289 388.373 226.306C388.345 226.324 388.313 226.335 388.28 226.34H388.24Z" fill="black"/>
<path d="M346.86 288.05L362.86 273.05L378.15 284.54C378.15 284.54 361.15 305.84 357.85 309.17C354.55 312.5 346.86 288.05 346.86 288.05Z" fill="#407BFF"/>
<path opacity="0.4" d="M346.86 288.05L362.86 273.05L378.15 284.54C378.15 284.54 361.15 305.84 357.85 309.17C354.55 312.5 346.86 288.05 346.86 288.05Z" fill="white"/>
<path d="M305.9 356.61C307.04 351.53 306.77 343.23 306.77 343.23C306.77 324.69 307.48 301.76 308.17 295.35C308.44 292.83 307.31 289.35 313.82 287.49C320.33 285.63 331.82 285.73 348.89 286.22C348.89 286.22 352.89 293.39 357.82 306.99C357.82 306.99 359.34 321.23 360.38 330.44L363.14 351.3C359.45 357 339.36 361.4 305.9 356.61Z" fill="#407BFF"/>
<path opacity="0.4" d="M305.9 356.61C307.04 351.53 306.77 343.23 306.77 343.23C306.77 324.69 307.48 301.76 308.17 295.35C308.44 292.83 307.31 289.35 313.82 287.49C320.33 285.63 331.82 285.73 348.89 286.22C348.89 286.22 352.89 293.39 357.82 306.99C357.82 306.99 359.34 321.23 360.38 330.44L363.14 351.3C359.45 357 339.36 361.4 305.9 356.61Z" fill="white"/>
<path d="M319 290.35L299.77 279.91L291.55 297.81C291.55 297.81 308.23 310.98 312.26 313.36C316.29 315.74 319 290.35 319 290.35Z" fill="#407BFF"/>
<path opacity="0.4" d="M319 290.35L299.77 279.91L291.55 297.81C291.55 297.81 308.23 310.98 312.26 313.36C316.29 315.74 319 290.35 319 290.35Z" fill="white"/>
<path opacity="0.2" d="M319.4 295.06C319.346 295.06 319.293 295.042 319.25 295.01C319.206 294.978 319.175 294.932 319.16 294.88C318.515 292.073 316.887 289.59 314.57 287.88C314.516 287.843 314.479 287.787 314.466 287.724C314.453 287.661 314.465 287.595 314.5 287.54C314.518 287.512 314.541 287.488 314.569 287.47C314.596 287.451 314.627 287.438 314.66 287.431C314.693 287.425 314.726 287.425 314.759 287.432C314.791 287.438 314.822 287.451 314.85 287.47C317.269 289.247 318.969 291.834 319.64 294.76C319.649 294.791 319.652 294.823 319.648 294.855C319.644 294.887 319.634 294.918 319.618 294.946C319.602 294.974 319.581 294.998 319.556 295.018C319.53 295.038 319.501 295.052 319.47 295.06H319.4Z" fill="black"/>
<path opacity="0.2" d="M358.37 308.83C358.313 308.831 358.257 308.811 358.213 308.774C358.169 308.738 358.14 308.686 358.13 308.63L354.27 292C354.258 291.935 354.271 291.868 354.306 291.812C354.341 291.757 354.396 291.717 354.46 291.7C354.492 291.693 354.526 291.692 354.558 291.697C354.591 291.703 354.622 291.715 354.65 291.732C354.678 291.75 354.702 291.773 354.721 291.8C354.74 291.827 354.753 291.858 354.76 291.89L358.61 308.55C358.625 308.614 358.615 308.681 358.581 308.737C358.548 308.793 358.493 308.833 358.43 308.85L358.37 308.83Z" fill="black"/>
<g opacity="0.4">
<path d="M348.28 318.92C349.731 318.185 350.905 316.999 351.626 315.541C352.347 314.082 352.577 312.43 352.28 310.83C351.884 309.264 350.918 307.902 349.573 307.009C348.227 306.117 346.597 305.757 345 306C342.19 306.57 340.18 310.64 340.12 314C339.46 310.93 335.44 307.42 332.56 307.46C330.918 307.555 329.38 308.297 328.282 309.522C327.184 310.747 326.616 312.357 326.7 314C326.917 315.631 327.748 317.117 329.022 318.157C330.296 319.198 331.919 319.714 333.56 319.6C332.411 319.845 331.363 320.43 330.553 321.281C329.743 322.131 329.208 323.207 329.02 324.366C328.831 325.525 328.997 326.714 329.496 327.778C329.995 328.841 330.803 329.729 331.815 330.325C332.827 330.921 333.995 331.198 335.167 331.119C336.339 331.04 337.46 330.608 338.382 329.881C339.305 329.154 339.986 328.166 340.338 327.045C340.689 325.924 340.693 324.723 340.35 323.6C341.35 326.21 343.29 328.68 345.98 329.46C348.67 330.24 352.09 328.71 352.54 325.94C352.99 323.17 350.53 320.71 348.28 318.92Z" fill="white"/>
</g>
<path d="M340.77 321.35C342.366 321.35 343.66 320.056 343.66 318.46C343.66 316.864 342.366 315.57 340.77 315.57C339.174 315.57 337.88 316.864 337.88 318.46C337.88 320.056 339.174 321.35 340.77 321.35Z" fill="white"/>
<path d="M365.42 266.07C365.367 266.08 365.313 266.08 365.26 266.07C359.645 263.514 355.202 258.931 352.82 253.24C352.8 253.195 352.79 253.146 352.79 253.097C352.789 253.047 352.798 252.999 352.817 252.953C352.836 252.907 352.863 252.866 352.898 252.831C352.933 252.796 352.974 252.769 353.02 252.75C353.065 252.73 353.114 252.72 353.163 252.719C353.213 252.719 353.262 252.728 353.307 252.747C353.353 252.765 353.394 252.793 353.429 252.828C353.464 252.863 353.492 252.904 353.51 252.95C355.818 258.469 360.125 262.912 365.57 265.39C365.649 265.424 365.713 265.484 365.753 265.56C365.792 265.636 365.804 265.723 365.786 265.807C365.769 265.89 365.722 265.965 365.656 266.019C365.589 266.072 365.506 266.101 365.42 266.1V266.07Z" fill="#263238"/>
<path d="M353.16 251.66L341.8 279.07C345.583 279.35 349.375 278.665 352.821 277.078C356.266 275.492 359.253 273.056 361.5 270C357.082 264.772 354.196 258.425 353.16 251.66Z" fill="#263238"/>
<path d="M314.9 228.07C313.583 227.547 312.153 227.376 310.75 227.574C309.347 227.772 308.02 228.333 306.9 229.2C304.659 230.979 303.177 233.541 302.75 236.37C302.35 238.72 302.68 241.43 304.48 242.98C305.312 243.615 306.3 244.014 307.34 244.136C308.38 244.257 309.434 244.096 310.39 243.67C312.292 242.787 313.902 241.378 315.03 239.61L318.66 234.96C318.884 233.557 318.636 232.12 317.955 230.873C317.275 229.627 316.2 228.641 314.9 228.07Z" fill="#263238"/>
<path d="M319.52 236C319.131 235.43 318.587 234.984 317.953 234.715C317.318 234.445 316.62 234.364 315.94 234.48C315.263 234.613 314.619 234.881 314.047 235.267C313.475 235.654 312.986 236.151 312.61 236.73C312.084 237.484 311.743 238.351 311.615 239.262C311.486 240.172 311.574 241.1 311.87 241.97C312.025 242.348 312.292 242.67 312.635 242.891C312.979 243.113 313.382 243.224 313.79 243.21C314.725 243.291 315.665 243.137 316.526 242.764C317.386 242.39 318.14 241.808 318.72 241.07C318.972 240.755 319.199 240.42 319.4 240.07C319.768 239.459 319.972 238.764 319.993 238.051C320.014 237.338 319.851 236.632 319.52 236Z" fill="#D58745"/>
<path d="M325.2 269.84C326.4 273.34 325.97 272.97 325.75 276.66C325.52 280.66 325.2 286.06 325.2 286.06C325.66 286.98 329.99 289.98 333.77 291.3C340.1 293.51 342.39 291.92 341.71 286.58C341.393 284.899 341.597 283.162 342.294 281.6C342.991 280.038 344.148 278.727 345.61 277.84C352.48 273.21 325.2 269.84 325.2 269.84Z" fill="#B97964"/>
<path opacity="0.2" d="M325.2 269.84C326.4 273.34 326.77 273.95 327.26 277.62C330.42 283.33 336.16 284.94 341.63 285.68C341.55 283.43 342.27 279.45 345.58 277.78C352.48 273.21 325.2 269.84 325.2 269.84Z" fill="black"/>
<path d="M347.16 237C347.16 237 354.64 242.09 352.57 250.94C350.5 259.79 337.13 243.36 337.13 243.36L347.16 237Z" fill="#263238"/>
<path d="M315.23 258.08C319.86 269.24 321.92 276.02 330.36 279.66C343.06 285.19 357.16 274.66 356.36 262.22C355.72 251.03 348.24 234.7 334.15 234.38C320.06 234.06 310.62 247 315.23 258.08Z" fill="#B97964"/>
<path d="M337.17 249.36C337.236 249.231 337.264 249.085 337.25 248.94C337.203 248.756 337.085 248.598 336.922 248.501C336.759 248.404 336.564 248.374 336.38 248.42C335.272 248.647 334.237 249.142 333.365 249.862C332.494 250.582 331.812 251.505 331.38 252.55C331.319 252.724 331.329 252.915 331.407 253.081C331.486 253.248 331.627 253.377 331.8 253.44C331.978 253.499 332.172 253.487 332.341 253.407C332.51 253.327 332.643 253.185 332.71 253.01C333.069 252.191 333.62 251.471 334.316 250.911C335.012 250.35 335.834 249.966 336.71 249.79C336.813 249.755 336.907 249.698 336.986 249.624C337.065 249.55 337.128 249.46 337.17 249.36Z" fill="#263238"/>
<path d="M351.48 245.09C351.611 245.02 351.722 244.917 351.8 244.79C351.869 244.615 351.868 244.419 351.795 244.245C351.722 244.071 351.584 243.933 351.41 243.86C350.381 243.405 349.257 243.205 348.135 243.276C347.012 243.347 345.923 243.688 344.96 244.27C344.878 244.32 344.807 244.386 344.752 244.464C344.696 244.542 344.658 244.631 344.638 244.724C344.618 244.818 344.618 244.915 344.637 245.009C344.657 245.103 344.695 245.192 344.75 245.27C344.86 245.424 345.026 245.529 345.212 245.564C345.398 245.6 345.59 245.562 345.75 245.46C346.527 245.008 347.403 244.751 348.301 244.711C349.2 244.671 350.095 244.849 350.91 245.23C351.009 245.248 351.111 245.245 351.21 245.221C351.308 245.197 351.4 245.152 351.48 245.09Z" fill="#263238"/>
<path d="M346.2 257.33L350.28 259.1C350.28 259.1 349.75 260.71 346.59 261.9L346.2 257.33Z" fill="#A24E3F"/>
<path d="M337.93 238.13C337.93 238.13 330.85 231.77 328.17 232.28C325.49 232.79 317.22 235.54 312.81 243.64C308.4 251.74 308.12 267.45 308.15 269.96C308.22 275.9 307.94 283.74 307.94 283.74L326.55 283.62C329.1 278.37 324.83 264.18 326.82 262.21C332.16 256.92 334.25 251.21 335.82 248.21C337.55 244.87 338.05 238.79 338.05 238.79L347.05 240.24L351.4 243.88C350.251 241.495 348.948 239.187 347.5 236.97C345.06 233.21 335.31 230.97 331.5 231.65C327.69 232.33 328.31 233.65 328.31 233.65L337.93 238.13Z" fill="#263238"/>
<path d="M327.27 262.78C327.27 262.78 322.95 256.9 320.05 259.78C317.15 262.66 320.34 273.36 325.35 272.2C330.36 271.04 330.35 265.76 327.27 262.78Z" fill="#B97964"/>
<path d="M348.62 265.51C348.624 267.212 348.266 268.896 347.57 270.45H346.68C342.68 270.52 340.76 269.21 339.88 267.73C339.248 266.574 339.039 265.233 339.29 263.94C341.46 265.19 345.19 265.43 347.29 265.47C347.732 265.508 348.176 265.522 348.62 265.51Z" fill="#263238"/>
<path d="M347.23 265.51L346.88 266.97C343.08 266.97 340.39 266.53 339.18 265.4C339.151 264.924 339.188 264.446 339.29 263.98C341.44 265.23 345.17 265.47 347.23 265.51Z" fill="white"/>
<path d="M346.68 270.49C342.68 270.56 340.76 269.25 339.88 267.77C341.417 267.778 342.941 268.059 344.38 268.6C345.324 268.976 346.128 269.637 346.68 270.49Z" fill="#C05854"/>
<path opacity="0.2" d="M324.49 269.25C324.441 269.265 324.389 269.265 324.34 269.25C322.47 267.85 321.23 265.03 322.48 262.92C322.496 262.892 322.518 262.867 322.544 262.847C322.571 262.828 322.601 262.814 322.633 262.807C322.664 262.799 322.697 262.798 322.73 262.804C322.762 262.81 322.793 262.822 322.82 262.84C322.877 262.873 322.918 262.928 322.935 262.991C322.952 263.055 322.943 263.123 322.91 263.18C321.84 264.99 322.91 267.57 324.64 268.84C324.691 268.883 324.725 268.944 324.734 269.01C324.744 269.077 324.728 269.144 324.69 269.2C324.662 269.222 324.63 269.238 324.595 269.247C324.561 269.255 324.525 269.256 324.49 269.25Z" fill="black"/>
<path d="M334.55 258.57C334.77 259.75 335.55 260.57 336.36 260.44C337.17 260.31 337.55 259.2 337.36 258.03C337.17 256.86 336.36 256.03 335.54 256.15C334.72 256.27 334.36 257.39 334.55 258.57Z" fill="#263238"/>
<path d="M346.84 254.75C347.07 255.94 347.89 256.75 348.66 256.63C349.43 256.51 349.84 255.38 349.66 254.2C349.48 253.02 348.66 252.2 347.84 252.33C347.02 252.46 346.64 253.57 346.84 254.75Z" fill="#263238"/>
<path d="M306.21 283.22C306.113 283.223 306.02 283.188 305.949 283.122C305.878 283.057 305.835 282.966 305.83 282.87C305.28 270.94 308.74 252.65 312.09 244.87C312.109 244.825 312.138 244.785 312.173 244.751C312.208 244.717 312.25 244.691 312.295 244.673C312.341 244.655 312.39 244.647 312.438 244.648C312.487 244.649 312.535 244.66 312.58 244.68C312.626 244.699 312.667 244.726 312.702 244.761C312.737 244.796 312.764 244.837 312.783 244.883C312.802 244.929 312.811 244.977 312.811 245.027C312.81 245.076 312.8 245.125 312.78 245.17C309.46 252.87 306.03 270.99 306.58 282.82C306.583 282.869 306.576 282.917 306.56 282.963C306.543 283.009 306.518 283.051 306.486 283.088C306.453 283.124 306.414 283.153 306.37 283.174C306.326 283.195 306.279 283.207 306.23 283.21L306.21 283.22Z" fill="#263238"/>
<path d="M363.74 375.36L380.79 384.43C380.79 384.43 376.19 397.05 375.3 402.95C373.44 415.28 374.21 447.47 374.21 447.47L382.94 447.89C382.94 447.89 398.55 395.47 400.62 387.82C402.62 380.39 404.07 374.87 400.62 370.29C397.17 365.71 375.53 358.86 375.53 358.86L363.74 375.36Z" fill="#B97964"/>
<path d="M375.47 384.15C368.33 383.15 353.74 380.77 342.57 380.2L329.57 379.56C300.64 378 358 351.64 358 351.64C358 351.64 377.17 357.07 392.3 363.12C384.48 370.68 381.35 378 375.47 384.15Z" fill="#407BFF"/>
<path d="M307.9 352.07C307.9 352.07 308.45 359.16 308.32 366.96C308.15 377.76 310.55 383.85 329.73 383.85C364.84 383.85 361.58 364.95 358.61 348.29L307.9 352.07Z" fill="#407BFF"/>
<path opacity="0.2" d="M350 356.16L357.49 352.65L357.84 357.12C357.84 357.12 372 366 377.12 370.94C382.24 375.88 377.53 381.94 377.53 381.94L372.89 387.94L353.18 381.42L350 356.16Z" fill="black"/>
<path d="M337.83 382.21L355.71 390.14C355.71 390.14 351.01 404.14 350.37 410.06C349.37 419.15 347.92 451.64 347.92 451.64L357.11 449.31C357.11 449.31 373.47 401.17 375.53 393.53C377.53 386.1 378.98 380.58 375.53 375.99C372.08 371.4 352.87 361.17 352.87 361.17L337.83 382.21Z" fill="#B97964"/>
<path d="M350.22 388.17C339.4 386.42 329.22 386.17 318.84 382.78C316.07 381.87 309.47 368.04 310.15 363.33C312.51 346.79 346.45 353.33 346.45 353.33C346.45 353.33 361.97 364.89 369.27 369.33L350.22 388.17Z" fill="#407BFF"/>
<path d="M384.19 444.4H381.27C380.921 444.42 380.582 444.531 380.289 444.722C379.996 444.913 379.759 445.178 379.6 445.49C377.92 448.4 376.6 447.3 374.81 444.57C373.65 444.4 373.33 446.08 373.24 446.57L371.05 456.57C370.946 456.944 370.974 457.343 371.131 457.699C371.288 458.054 371.563 458.345 371.91 458.52C372.026 458.559 372.147 458.58 372.27 458.58H395.45C399.14 458.58 400.21 454.05 397.76 453.28C390.93 451.38 386.76 449.03 384.61 446.52C384.22 446.08 384.62 445.76 384.19 444.4Z" fill="#263238"/>
<path d="M390.54 447.25C390.698 447.084 390.82 446.888 390.899 446.673C390.978 446.458 391.013 446.229 391 446C391.012 445.881 390.997 445.76 390.955 445.647C390.913 445.535 390.847 445.433 390.76 445.35C389.84 444.54 386.19 446.69 385.76 446.94C385.736 446.953 385.716 446.972 385.7 446.995C385.684 447.017 385.674 447.043 385.67 447.07C385.655 447.117 385.656 447.168 385.672 447.215C385.688 447.262 385.719 447.302 385.76 447.33C386.653 447.6 387.578 447.748 388.51 447.77C388.866 447.824 389.229 447.805 389.578 447.716C389.926 447.626 390.254 447.468 390.54 447.25ZM390.54 445.74C390.579 445.775 390.608 445.818 390.626 445.867C390.643 445.916 390.648 445.969 390.64 446.02C390.631 446.349 390.499 446.663 390.27 446.9C389.44 447.68 387.44 447.35 386.36 447.09C387.91 446.25 390.06 445.3 390.57 445.74H390.54Z" fill="#407BFF"/>
<path d="M385.94 447.42C387.04 446.84 389.34 444.56 389.21 443.36C389.21 443.11 389.05 442.81 388.56 442.72C386.56 442.43 385.69 446.97 385.69 447.16C385.68 447.198 385.679 447.238 385.688 447.276C385.696 447.315 385.714 447.35 385.74 447.38C385.757 447.39 385.776 447.395 385.795 447.395C385.814 447.395 385.833 447.39 385.85 447.38L385.94 447.42ZM388.49 443.1C388.86 443.1 388.86 443.31 388.86 443.37C388.97 444.11 387.3 446 386.1 446.79C386.35 445.73 387.1 443.08 388.36 443.08L388.49 443.1Z" fill="#407BFF"/>
<path d="M383.74 449.51C383.704 449.52 383.666 449.52 383.63 449.51C383.6 449.496 383.574 449.476 383.552 449.452C383.531 449.428 383.514 449.399 383.504 449.369C383.494 449.338 383.49 449.305 383.493 449.273C383.495 449.24 383.505 449.209 383.52 449.18C383.764 448.639 384.132 448.162 384.594 447.789C385.056 447.415 385.599 447.156 386.18 447.03C386.212 447.023 386.245 447.022 386.278 447.029C386.31 447.035 386.341 447.048 386.369 447.067C386.396 447.085 386.419 447.11 386.436 447.138C386.454 447.166 386.465 447.197 386.47 447.23C386.481 447.295 386.467 447.362 386.43 447.416C386.392 447.47 386.335 447.508 386.27 447.52C385.765 447.632 385.293 447.86 384.892 448.186C384.491 448.513 384.172 448.928 383.96 449.4C383.936 449.436 383.904 449.466 383.865 449.485C383.826 449.505 383.783 449.513 383.74 449.51Z" fill="#407BFF"/>
<path d="M385.56 451.24C385.524 451.25 385.486 451.25 385.45 451.24C385.419 451.226 385.392 451.206 385.369 451.181C385.346 451.156 385.329 451.127 385.317 451.096C385.306 451.064 385.302 451.03 385.304 450.997C385.306 450.963 385.315 450.93 385.33 450.9C385.578 450.359 385.948 449.884 386.412 449.511C386.875 449.137 387.419 448.877 388 448.75C388.034 448.74 388.069 448.738 388.104 448.743C388.139 448.748 388.173 448.76 388.203 448.779C388.233 448.798 388.258 448.823 388.278 448.852C388.297 448.882 388.31 448.915 388.316 448.95C388.322 448.985 388.32 449.02 388.311 449.055C388.302 449.089 388.285 449.121 388.263 449.148C388.241 449.175 388.213 449.198 388.181 449.214C388.15 449.229 388.115 449.238 388.08 449.24C387.577 449.357 387.108 449.589 386.709 449.916C386.31 450.244 385.992 450.659 385.78 451.13C385.755 451.165 385.722 451.193 385.684 451.213C385.645 451.232 385.603 451.241 385.56 451.24Z" fill="#407BFF"/>
<path d="M387.82 452.69C387.784 452.7 387.746 452.7 387.71 452.69C387.68 452.676 387.654 452.656 387.632 452.632C387.611 452.608 387.594 452.579 387.584 452.549C387.574 452.518 387.57 452.485 387.573 452.453C387.575 452.42 387.585 452.389 387.6 452.36C387.846 451.819 388.214 451.342 388.676 450.967C389.137 450.592 389.68 450.329 390.26 450.2C390.293 450.194 390.326 450.195 390.359 450.203C390.391 450.21 390.422 450.224 390.449 450.244C390.476 450.263 390.499 450.288 390.516 450.317C390.534 450.345 390.545 450.377 390.55 450.41C390.559 450.475 390.544 450.54 390.506 450.594C390.469 450.648 390.414 450.686 390.35 450.7C389.845 450.812 389.373 451.04 388.972 451.366C388.571 451.693 388.252 452.108 388.04 452.58C388.017 452.616 387.984 452.646 387.945 452.665C387.906 452.685 387.863 452.693 387.82 452.69Z" fill="#407BFF"/>
<path d="M358.73 444.4H355.8C355.452 444.421 355.116 444.533 354.825 444.724C354.534 444.916 354.298 445.179 354.14 445.49C352.45 448.4 351.14 447.3 349.35 444.57C348.18 444.4 347.87 446.08 347.77 446.57L345.58 456.57C345.475 456.944 345.504 457.343 345.661 457.699C345.818 458.054 346.093 458.345 346.44 458.52C346.559 458.56 346.684 458.58 346.81 458.58H370C373.69 458.58 374.76 454.05 372.31 453.28C365.48 451.38 361.31 449.03 359.16 446.52C358.75 446.08 359.15 445.76 358.73 444.4Z" fill="#263238"/>
<path d="M365.08 447.25C365.239 447.092 365.364 446.903 365.448 446.695C365.532 446.487 365.574 446.264 365.57 446.04C365.584 445.92 365.57 445.799 365.528 445.686C365.486 445.573 365.418 445.472 365.33 445.39C364.42 444.58 360.76 446.73 360.33 446.98C360.304 446.993 360.282 447.011 360.265 447.034C360.248 447.056 360.236 447.082 360.23 447.11C360.214 447.158 360.215 447.21 360.233 447.258C360.252 447.305 360.286 447.345 360.33 447.37C361.219 447.639 362.141 447.787 363.07 447.81C363.425 447.854 363.786 447.826 364.131 447.73C364.476 447.634 364.798 447.471 365.08 447.25ZM365.08 445.74C365.12 445.773 365.151 445.817 365.168 445.866C365.186 445.915 365.19 445.969 365.18 446.02C365.17 446.347 365.042 446.66 364.82 446.9C363.99 447.68 361.98 447.35 360.9 447.09C362.44 446.25 364.6 445.3 365.1 445.74H365.08Z" fill="#407BFF"/>
<path d="M360.47 447.42C361.57 446.84 363.87 444.56 363.75 443.36C363.738 443.191 363.664 443.032 363.542 442.914C363.42 442.796 363.259 442.727 363.09 442.72C361.09 442.43 360.22 446.97 360.22 447.16C360.203 447.194 360.193 447.232 360.193 447.27C360.193 447.308 360.203 447.346 360.22 447.38C360.239 447.39 360.259 447.395 360.28 447.395C360.301 447.395 360.322 447.39 360.34 447.38L360.47 447.42ZM363 443.1C363.37 443.1 363.37 443.31 363.37 443.37C363.48 444.11 361.81 446 360.61 446.79C360.86 445.73 361.61 443.08 362.87 443.08L363 443.1Z" fill="#407BFF"/>
<path d="M358.27 449.51H358.16C358.102 449.48 358.059 449.429 358.038 449.367C358.018 449.306 358.022 449.238 358.05 449.18C358.296 448.638 358.666 448.161 359.13 447.788C359.593 447.414 360.138 447.155 360.72 447.03C360.781 447.027 360.841 447.047 360.889 447.086C360.936 447.124 360.968 447.179 360.978 447.239C360.987 447.3 360.975 447.362 360.942 447.413C360.909 447.465 360.859 447.503 360.8 447.52C360.297 447.633 359.827 447.862 359.428 448.188C359.029 448.515 358.711 448.93 358.5 449.4C358.475 449.437 358.441 449.467 358.4 449.486C358.36 449.506 358.315 449.514 358.27 449.51Z" fill="#407BFF"/>
<path d="M360.09 451.24C360.054 451.249 360.016 451.249 359.98 451.24C359.922 451.208 359.878 451.155 359.857 451.092C359.837 451.029 359.841 450.96 359.87 450.9C360.116 450.36 360.484 449.884 360.946 449.511C361.408 449.137 361.95 448.877 362.53 448.75C362.563 448.743 362.597 448.743 362.63 448.75C362.663 448.756 362.695 448.77 362.722 448.79C362.749 448.81 362.772 448.835 362.789 448.865C362.806 448.894 362.817 448.926 362.82 448.96C362.826 448.992 362.825 449.024 362.818 449.055C362.811 449.087 362.798 449.116 362.779 449.142C362.761 449.168 362.737 449.19 362.709 449.207C362.682 449.224 362.652 449.235 362.62 449.24C362.117 449.356 361.647 449.587 361.248 449.915C360.849 450.243 360.531 450.659 360.32 451.13C360.293 451.165 360.258 451.193 360.218 451.212C360.178 451.231 360.134 451.24 360.09 451.24Z" fill="#407BFF"/>
<path d="M362.35 452.69H362.24C362.182 452.66 362.139 452.609 362.118 452.547C362.098 452.486 362.102 452.418 362.13 452.36C362.377 451.819 362.746 451.343 363.207 450.969C363.669 450.594 364.21 450.331 364.79 450.2C364.856 450.188 364.925 450.203 364.98 450.241C365.035 450.28 365.073 450.339 365.085 450.405C365.097 450.471 365.082 450.54 365.044 450.595C365.005 450.65 364.946 450.688 364.88 450.7C364.377 450.813 363.907 451.042 363.508 451.368C363.109 451.695 362.791 452.109 362.58 452.58C362.555 452.617 362.521 452.647 362.48 452.666C362.44 452.686 362.395 452.694 362.35 452.69Z" fill="#407BFF"/>
<path d="M327.87 459.12H323.57L321.7 348.29H329.74L327.87 459.12Z" fill="#263238"/>
<path d="M460.1 458.06H455.82L453.93 350.44H461.98L460.1 458.06Z" fill="#263238"/>
<path d="M412.78 458.06H408.49L406.62 350.44H414.66L412.78 458.06Z" fill="#263238"/>
<path d="M465.61 341.56H319.91V350.44H465.61V341.56Z" fill="#263238"/>
<path opacity="0.3" d="M460.1 458.06H455.82L453.93 350.44H461.98L460.1 458.06Z" fill="white"/>
<path opacity="0.3" d="M412.78 458.06H408.49L406.62 350.44H414.66L412.78 458.06Z" fill="white"/>
<path d="M461.81 348.29H325.72V367.84H461.81V348.29Z" fill="#263238"/>
<path opacity="0.3" d="M461.82 350.44H407.1V367.84H461.82V350.44Z" fill="white"/>
<path opacity="0.2" d="M321.74 350.44L321.83 355.87H461.81V350.44H321.74Z" fill="black"/>
<path d="M432.24 326.6H367.63V333.97H432.24V326.6Z" fill="#263238"/>
<path opacity="0.8" d="M432.24 332.5H404.49C403.925 332.5 403.384 332.276 402.984 331.876C402.585 331.477 402.36 330.935 402.36 330.37C402.36 330.091 402.416 329.814 402.523 329.556C402.63 329.298 402.787 329.064 402.985 328.867C403.183 328.67 403.418 328.514 403.676 328.408C403.934 328.303 404.211 328.249 404.49 328.25H432.24V332.5Z" fill="white"/>
<path opacity="0.3" d="M399.94 326.6H367.63V333.97H399.94V326.6Z" fill="black"/>
<path d="M145.32 288.62L166.16 266.07L174.92 237.17L184.85 238.84C184.85 238.84 180.74 269.28 176.11 276.55C171.48 283.82 156 304.19 156 304.19L145.32 288.62Z" fill="#E9B376"/>
<path d="M176.19 240.18C176.19 240.18 172.91 238.83 171.82 236.12C171.234 234.651 170.847 233.111 170.67 231.54C170.36 228.68 171.57 227.22 172.74 228.3C173.91 229.38 174 232.3 174.67 231.3C175.34 230.3 175.99 219.85 177.08 218.54C178.17 217.23 178.59 218.96 178.59 218.96C178.59 218.96 178.76 216.62 179.85 216.25C180.94 215.88 181.27 217.37 181.27 217.37C181.27 217.37 181.44 215.81 182.53 216.05C183.62 216.29 183.89 225.77 184.13 226.13C184.13 226.13 183.21 220.49 184.47 219.78C185.73 219.07 186.4 222.19 186.99 224.66C187.512 227.343 187.395 230.111 186.65 232.74C185.79 235.86 185.36 240.35 182.42 240.97C180.31 241.252 178.163 240.98 176.19 240.18Z" fill="#E9B376"/>
<g opacity="0.2">
<path d="M181.49 217.69C181.32 220.36 181.24 223.04 181.26 225.69C181.957 225.707 182.652 225.774 183.34 225.89C183.68 225.96 183.45 226.45 183.12 226.4C180.97 226.044 178.768 226.163 176.67 226.75C176.32 226.84 176.27 226.35 176.67 226.26C177.199 226.11 177.736 225.993 178.28 225.91C178.27 225.89 178.265 225.868 178.265 225.845C178.265 225.822 178.27 225.8 178.28 225.78C178.104 223.681 178.188 221.568 178.53 219.49C178.53 219.17 179.13 219.16 179.08 219.49C178.748 221.522 178.664 223.587 178.83 225.64C178.83 225.72 179.51 226.2 179.46 226.25C180.16 226.15 180.13 225.68 180.82 225.67C180.82 223.003 180.896 220.337 181.05 217.67C181 217.36 181.51 217.36 181.49 217.69Z" fill="black"/>
</g>
<g opacity="0.2">
<path d="M181.19 237.31C180.936 235.916 180.223 234.647 179.165 233.704C178.107 232.762 176.764 232.201 175.35 232.11C175.03 232.11 175.07 231.53 175.35 231.54C178.4 231.67 180.81 233.84 181.63 237.17C181.656 237.201 181.675 237.239 181.683 237.279C181.692 237.319 181.69 237.361 181.679 237.401C181.668 237.44 181.647 237.476 181.618 237.506C181.589 237.535 181.554 237.557 181.515 237.57C181.475 237.582 181.434 237.585 181.393 237.577C181.353 237.57 181.315 237.552 181.283 237.527C181.251 237.501 181.225 237.468 181.209 237.43C181.193 237.392 181.186 237.351 181.19 237.31Z" fill="black"/>
</g>
<path opacity="0.2" d="M184.3 226.34C184.24 226.341 184.182 226.32 184.136 226.281C184.09 226.243 184.06 226.189 184.05 226.13C183.794 224.375 183.684 222.603 183.72 220.83C183.725 220.765 183.755 220.703 183.803 220.659C183.851 220.614 183.914 220.59 183.98 220.59C184.013 220.591 184.045 220.599 184.075 220.613C184.105 220.627 184.132 220.646 184.154 220.67C184.176 220.694 184.194 220.723 184.205 220.754C184.216 220.784 184.221 220.817 184.22 220.85C184.184 222.589 184.294 224.329 184.55 226.05C184.556 226.083 184.555 226.117 184.547 226.149C184.54 226.182 184.526 226.212 184.506 226.239C184.487 226.266 184.462 226.289 184.433 226.306C184.405 226.324 184.373 226.335 184.34 226.34H184.3Z" fill="black"/>
<path d="M212.39 221.74L218.94 228.03C218.94 228.03 203.24 226.03 196.86 245.17L161.58 222.17L168.82 209.17L186.55 205L212.39 221.74Z" fill="#263238"/>
<path opacity="0.7" d="M212.39 221.74L218.94 228.03C218.94 228.03 203.24 226.03 196.86 245.17L161.58 222.17L168.82 209.17L186.55 205L212.39 221.74Z" fill="white"/>
<path d="M159.64 220.84L192.1 241.09C192.1 241.09 198.93 228.09 209.1 223.47C211.444 222.32 213.909 221.438 216.45 220.84L183.45 199.84C183.45 199.84 167.71 198.35 159.64 220.84Z" fill="#263238"/>
<path opacity="0.9" d="M159.64 220.84L192.1 241.09C192.1 241.09 198.93 228.09 209.1 223.47C211.444 222.32 213.909 221.438 216.45 220.84L183.45 199.84C183.45 199.84 167.71 198.35 159.64 220.84Z" fill="white"/>
<path d="M169.51 218.63H169.43C169.367 218.607 169.316 218.561 169.286 218.502C169.256 218.442 169.251 218.374 169.27 218.31C170.498 215.023 172.535 212.098 175.191 209.805C177.848 207.512 181.039 205.925 184.47 205.19C184.502 205.183 184.536 205.182 184.568 205.187C184.601 205.193 184.632 205.205 184.66 205.222C184.688 205.24 184.712 205.263 184.731 205.29C184.75 205.317 184.763 205.348 184.77 205.38C184.782 205.446 184.768 205.514 184.73 205.57C184.693 205.626 184.636 205.666 184.57 205.68C181.222 206.393 178.108 207.94 175.517 210.178C172.927 212.416 170.943 215.271 169.75 218.48C169.729 218.525 169.695 218.564 169.652 218.59C169.61 218.617 169.56 218.631 169.51 218.63Z" fill="#263238"/>
<path d="M173.79 222.24H173.71C173.647 222.217 173.596 222.171 173.566 222.112C173.536 222.052 173.53 221.984 173.55 221.92C174.778 218.633 176.815 215.708 179.471 213.415C182.127 211.122 185.318 209.535 188.75 208.8C188.815 208.787 188.882 208.8 188.938 208.836C188.993 208.873 189.032 208.93 189.045 208.995C189.058 209.06 189.045 209.128 189.008 209.183C188.972 209.238 188.915 209.277 188.85 209.29C185.497 209.998 182.378 211.541 179.782 213.777C177.186 216.013 175.197 218.869 174 222.08C173.982 222.123 173.954 222.16 173.917 222.189C173.88 222.217 173.836 222.234 173.79 222.24Z" fill="#263238"/>
<path d="M178.07 225.85H178C177.939 225.825 177.89 225.779 177.862 225.719C177.834 225.66 177.83 225.592 177.85 225.53C179.218 222.1 181.391 219.05 184.186 216.638C186.982 214.225 190.317 212.521 193.91 211.67C193.973 211.658 194.039 211.671 194.093 211.707C194.147 211.742 194.185 211.797 194.2 211.86C194.207 211.892 194.208 211.925 194.202 211.958C194.197 211.991 194.185 212.022 194.167 212.05C194.15 212.077 194.127 212.102 194.1 212.121C194.072 212.139 194.042 212.153 194.01 212.16C190.512 213.02 187.267 214.695 184.541 217.048C181.814 219.401 179.682 222.366 178.32 225.7C178.3 225.749 178.265 225.79 178.22 225.817C178.175 225.844 178.122 225.856 178.07 225.85Z" fill="#263238"/>
<path d="M183.06 228.75H182.98C182.948 228.74 182.919 228.724 182.894 228.702C182.869 228.68 182.849 228.653 182.835 228.623C182.821 228.593 182.813 228.56 182.812 228.527C182.811 228.494 182.817 228.461 182.83 228.43C185.08 222.24 191.94 216.36 198.45 215.04C198.515 215.028 198.582 215.043 198.636 215.08C198.691 215.118 198.728 215.175 198.74 215.24C198.747 215.272 198.748 215.304 198.742 215.336C198.737 215.368 198.725 215.398 198.707 215.426C198.689 215.453 198.666 215.476 198.639 215.494C198.612 215.512 198.582 215.524 198.55 215.53C192.2 216.81 185.5 222.53 183.3 228.6C183.28 228.646 183.246 228.685 183.203 228.712C183.16 228.739 183.11 228.752 183.06 228.75Z" fill="#263238"/>
<path d="M188 232.23H187.91C187.849 232.205 187.8 232.159 187.772 232.099C187.744 232.04 187.74 231.972 187.76 231.91C190.02 225.71 196.88 219.83 203.39 218.52C203.452 218.514 203.515 218.531 203.565 218.569C203.615 218.607 203.649 218.662 203.66 218.724C203.671 218.785 203.659 218.849 203.626 218.902C203.592 218.955 203.54 218.993 203.48 219.01C197.13 220.29 190.43 226.01 188.23 232.08C188.21 232.125 188.178 232.163 188.137 232.189C188.096 232.216 188.049 232.23 188 232.23Z" fill="#263238"/>
<path d="M171.45 234.52C171.45 234.16 169.85 229.63 170.54 228.52C171.23 227.41 177.08 225.76 176.75 227.09C176.342 228.198 175.724 229.216 174.93 230.09C174.93 230.09 178.49 231.59 178.41 234.9C178.33 238.21 173.95 238.81 173.95 238.81L171.45 234.52Z" fill="#E9B376"/>
<path d="M112.36 372.05C111.51 356.486 109.585 340.999 106.6 325.7C105.86 322.01 101.91 319.5 97.6499 319.96L72.8199 322.66C68.6899 322.93 64.4799 324.31 61.8799 327.12C57.8799 331.41 58.6699 337.59 59.6399 343.03C61.5399 353.697 63.4366 364.363 65.3299 375.03C65.9299 378.41 66.8099 382.18 70.0899 384.03C72.7299 385.54 76.1499 385.36 79.2999 385.09C87.1266 384.423 94.9399 383.633 102.74 382.72C105.38 382.4 108.22 381.99 110.1 380.35C112.48 378.28 112.52 375 112.36 372.05Z" fill="#C12453"/>
<path opacity="0.2" d="M107.17 330.65C107.022 329.283 106.377 328.018 105.358 327.096C104.338 326.174 103.015 325.659 101.64 325.65L80.3397 325.59C80.0449 325.588 79.7505 325.611 79.4597 325.66L78.4597 325.81C77.7177 325.925 77.0066 326.189 76.3687 326.585C75.7309 326.982 75.1795 327.503 74.7473 328.117C74.3152 328.731 74.0112 329.426 73.8536 330.16C73.6959 330.894 73.6878 331.653 73.8297 332.39L83.4097 381.39C87.2397 384.69 109.27 382.3 110.79 378.39C112 375.32 108.58 343.16 107.17 330.65Z" fill="black"/>
<path d="M124.62 309.3L131.43 308.36L141.27 384.82L134.45 385.75L124.62 309.3Z" fill="#263238"/>
<path d="M81.9897 309.3L88.8097 308.37L98.6397 384.82L91.8298 385.75L81.9897 309.3Z" fill="#263238"/>
<g opacity="0.3">
<path d="M124.62 309.3L131.43 308.36L141.27 384.82L134.45 385.75L124.62 309.3Z" fill="white"/>
</g>
<g opacity="0.4">
<path d="M81.9897 309.3L88.8097 308.37L98.6397 384.82L91.8298 385.75L81.9897 309.3Z" fill="white"/>
</g>
<path d="M138.54 340.21H87.1397C85.7868 340.207 84.4811 339.712 83.4657 338.818C82.4503 337.924 81.7943 336.692 81.6197 335.35L77.9997 306.85C77.9238 306.288 77.9596 305.716 78.1051 305.168C78.2506 304.619 78.503 304.105 78.8477 303.655C79.1923 303.204 79.6226 302.826 80.1137 302.542C80.6049 302.258 81.1472 302.074 81.7097 302C81.8862 301.99 82.0632 301.99 82.2397 302H133.64C134.994 301.997 136.303 302.489 137.32 303.384C138.337 304.28 138.991 305.516 139.16 306.86L142.81 335.33C142.958 336.462 142.651 337.606 141.958 338.513C141.265 339.42 140.241 340.016 139.11 340.17C138.921 340.193 138.73 340.207 138.54 340.21Z" fill="#263238"/>
<path opacity="0.6" d="M138.54 340.21H87.1397C85.7868 340.207 84.4811 339.712 83.4657 338.818C82.4503 337.924 81.7943 336.692 81.6197 335.35L77.9997 306.85C77.9238 306.288 77.9596 305.716 78.1051 305.168C78.2506 304.619 78.503 304.105 78.8477 303.655C79.1923 303.204 79.6226 302.826 80.1137 302.542C80.6049 302.258 81.1472 302.074 81.7097 302C81.8862 301.99 82.0632 301.99 82.2397 302H133.64C134.994 301.997 136.303 302.489 137.32 303.384C138.337 304.28 138.991 305.516 139.16 306.86L142.81 335.33C142.958 336.462 142.651 337.606 141.958 338.513C141.265 339.42 140.241 340.016 139.11 340.17C138.921 340.193 138.73 340.207 138.54 340.21Z" fill="white"/>
<path d="M132.89 457.38H142.48L143.66 406.7L144.15 385.3H131.23L131.72 406.7L132.89 457.38Z" fill="#263238"/>
<path opacity="0.4" d="M132.89 457.38H142.48L143.66 406.7L144.15 385.3H131.23L131.72 406.7L132.89 457.38Z" fill="white"/>
<path opacity="0.2" d="M144.15 385.3L143.66 407.3H131.72L131.23 385.3H144.15Z" fill="black"/>
<path d="M181.85 457.38L177.68 386.81H166.45L172.28 457.38H181.85Z" fill="#263238"/>
<path opacity="0.5" d="M172.27 457.38H181.84L178.3 397.25L177.68 386.67H166.45L167.32 397.25L172.27 457.38Z" fill="white"/>
<path d="M103.09 457.38L108.93 386.81H97.69L93.52 457.38H103.09Z" fill="#263238"/>
<path opacity="0.5" d="M103.1 457.38L108.05 397.25L108.92 386.67H97.6898L97.0698 397.25L93.5298 457.38H103.1Z" fill="white"/>
<path opacity="0.2" d="M108.92 386.67L108.05 397.67H97.0698L97.6898 386.67H108.92Z" fill="black"/>
<path d="M91.2798 382.78H184.09C185.151 382.78 186.168 383.201 186.918 383.952C187.668 384.702 188.09 385.719 188.09 386.78C188.09 387.841 187.668 388.858 186.918 389.608C186.168 390.359 185.151 390.78 184.09 390.78H91.2798C90.2189 390.78 89.2015 390.359 88.4514 389.608C87.7012 388.858 87.2798 387.841 87.2798 386.78C87.2798 385.719 87.7012 384.702 88.4514 383.952C89.2015 383.201 90.2189 382.78 91.2798 382.78Z" fill="#263238"/>
<path opacity="0.6" d="M91.2798 382.78H184.09C185.151 382.78 186.168 383.201 186.918 383.952C187.668 384.702 188.09 385.719 188.09 386.78C188.09 387.841 187.668 388.858 186.918 389.608C186.168 390.359 185.151 390.78 184.09 390.78H91.2798C90.2189 390.78 89.2015 390.359 88.4514 389.608C87.7012 388.858 87.2798 387.841 87.2798 386.78C87.2798 385.719 87.7012 384.702 88.4514 383.952C89.2015 383.201 90.2189 382.78 91.2798 382.78Z" fill="white"/>
<path d="M86.3697 302L76.1597 364.48L81.0597 375C81.0597 375 91.0597 326.8 92.7497 317.43C93.747 312.351 94.1231 307.17 93.8697 302C91.3974 301.473 88.8419 301.473 86.3697 302Z" fill="#C12453"/>
<path d="M77.9397 308.58L70.4697 322.94V323.81L79.8997 321.89L77.9397 308.58Z" fill="#C12453"/>
<path opacity="0.3" d="M75.1599 364.2H75.0999C75.0675 364.192 75.037 364.177 75.0103 364.157C74.9836 364.137 74.9612 364.112 74.9444 364.083C74.9277 364.054 74.9169 364.022 74.9126 363.989C74.9084 363.956 74.9109 363.922 74.9199 363.89L77.6199 352.89C77.6365 352.827 77.6771 352.772 77.7332 352.739C77.7893 352.705 77.8563 352.695 77.9199 352.71C77.9832 352.726 78.0375 352.767 78.0711 352.823C78.1048 352.879 78.1151 352.946 78.0999 353.01L75.3999 364.01C75.3883 364.065 75.358 364.114 75.3142 364.148C75.2703 364.183 75.2158 364.201 75.1599 364.2Z" fill="#263238"/>
<path opacity="0.3" d="M68.51 327.76C68.4677 327.773 68.4223 327.773 68.38 327.76C68.3517 327.744 68.327 327.722 68.3075 327.695C68.288 327.669 68.2741 327.639 68.2666 327.607C68.2591 327.575 68.2582 327.542 68.264 327.51C68.2697 327.478 68.282 327.447 68.3 327.42C69.65 325.22 72.18 319.42 72.21 319.33C72.2383 319.271 72.2882 319.224 72.3494 319.2C72.4106 319.176 72.4788 319.176 72.54 319.2C72.5979 319.23 72.6429 319.28 72.6668 319.341C72.6907 319.401 72.6918 319.469 72.67 319.53C72.56 319.77 70.1 325.45 68.67 327.68C68.629 327.726 68.5717 327.755 68.51 327.76Z" fill="#263238"/>
<path opacity="0.3" d="M67.9999 364.2C67.9432 364.199 67.8885 364.178 67.8449 364.142C67.8012 364.106 67.7713 364.056 67.7599 364C67.7599 363.82 64.3899 346.19 62.7599 331.61C62.7599 331.37 62.5599 326 65.3699 324.3C65.427 324.265 65.4953 324.255 65.56 324.271C65.6247 324.287 65.6805 324.328 65.7149 324.385C65.7494 324.442 65.7598 324.51 65.7439 324.575C65.728 324.64 65.687 324.696 65.6299 324.73C63.0699 326.28 63.2599 331.52 63.2599 331.57C64.8999 346.11 68.2599 363.73 68.2599 363.91C68.2716 363.975 68.2572 364.042 68.2197 364.096C68.1822 364.151 68.1248 364.188 68.0599 364.2H67.9999Z" fill="#263238"/>
<path opacity="0.2" d="M156.19 387.97L157.05 398.97H168.04L167.42 387.97H156.19Z" fill="black"/>
<path d="M159.79 375.31L176.85 384.38C176.85 384.38 172.25 396.99 171.36 402.9C169.5 415.23 170.27 447.42 170.27 447.42L179 447.83C179 447.83 194.61 395.42 196.67 387.77C198.67 380.34 200.12 374.82 196.67 370.24C193.22 365.66 171.59 358.8 171.59 358.8L159.79 375.31Z" fill="#E9B376"/>
<path d="M171.53 384.09C164.39 383.09 149.8 380.71 138.63 380.14L125.63 379.5C96.7 378 154.1 351.59 154.1 351.59C154.1 351.59 173.27 357.02 188.4 363.07C180.54 370.63 177.41 377.91 171.53 384.09Z" fill="#B97964"/>
<path d="M104 352C104 352 102.23 356 102.11 363.83C101.94 374.64 106.65 383.78 125.83 383.78C160.94 383.78 157.67 364.88 154.7 348.22L104 352Z" fill="#407BFF"/>
<path opacity="0.2" d="M146 356.11L153.49 352.59L153.83 357.06C153.83 357.06 168 366 173.18 370.89C178.36 375.78 173.59 381.89 173.59 381.89L168.95 387.89L149.24 381.36L146 356.11Z" fill="black"/>
<path d="M133.89 382.16L151.76 390.08C151.76 390.08 147.06 404.08 146.42 410.01C145.42 419.1 143.97 451.59 143.97 451.59L153.17 449.26C153.17 449.26 169.52 401.12 171.59 393.47C173.59 386.04 175.04 380.53 171.59 375.94C168.14 371.35 148.93 361.12 148.93 361.12L133.89 382.16Z" fill="#E9B376"/>
<path d="M146.27 388.11C135.46 386.37 125.33 386.11 114.89 382.73C112.12 381.82 105.53 367.98 106.21 363.27C108.57 346.73 142.5 353.27 142.5 353.27C142.5 353.27 158.02 364.84 165.33 369.27L146.27 388.11Z" fill="#B97964"/>
<path d="M170.23 445.63L170.11 432.18H183.65L179.27 447.24L174.4 450.42L170.23 445.63Z" fill="#407BFF"/>
<path opacity="0.7" d="M170.23 445.63L170.11 432.18H183.65L179.27 447.24L174.4 450.42L170.23 445.63Z" fill="white"/>
<path d="M179.69 444.4H176.77C176.42 444.42 176.082 444.531 175.789 444.722C175.496 444.913 175.258 445.178 175.1 445.49C173.41 448.4 172.15 447.3 170.31 444.57C169.14 444.4 168.83 446.08 168.73 446.57L166.55 456.57C166.441 456.944 166.468 457.345 166.626 457.701C166.783 458.058 167.06 458.348 167.41 458.52C167.526 458.56 167.647 458.58 167.77 458.58H191C194.68 458.58 195.75 454.05 193.3 453.28C186.47 451.38 182.3 449.03 180.16 446.52C179.71 446.08 180.12 445.76 179.69 444.4Z" fill="#C12453"/>
<path opacity="0.7" d="M194.22 456.64H166.54C166.449 457.006 166.485 457.392 166.643 457.734C166.802 458.076 167.072 458.353 167.41 458.52C167.526 458.56 167.648 458.58 167.77 458.58H191C191.665 458.592 192.319 458.416 192.889 458.073C193.458 457.73 193.92 457.233 194.22 456.64Z" fill="white"/>
<path d="M186 447.25C186.161 447.093 186.287 446.904 186.371 446.696C186.456 446.488 186.496 446.265 186.49 446.04C186.506 445.921 186.493 445.8 186.453 445.687C186.413 445.574 186.347 445.473 186.26 445.39C185.34 444.58 181.68 446.73 181.26 446.98C181.212 447.01 181.176 447.056 181.16 447.11C181.146 447.158 181.148 447.21 181.166 447.257C181.184 447.304 181.217 447.344 181.26 447.37C182.149 447.639 183.071 447.787 184 447.81C184.715 447.895 185.434 447.694 186 447.25ZM186 445.74C186.038 445.775 186.066 445.819 186.082 445.868C186.097 445.917 186.1 445.969 186.09 446.02C186.09 446.349 185.96 446.665 185.73 446.9C184.9 447.68 182.89 447.35 181.81 447.09C183.4 446.25 185.56 445.3 186.07 445.74H186Z" fill="#263238"/>
<path d="M181.44 447.42C182.53 446.84 184.84 444.56 184.71 443.36C184.698 443.191 184.624 443.032 184.502 442.914C184.38 442.796 184.219 442.727 184.05 442.72C182.05 442.43 181.19 446.97 181.19 447.16C181.174 447.195 181.167 447.232 181.167 447.27C181.167 447.308 181.174 447.345 181.19 447.38C181.208 447.39 181.229 447.395 181.25 447.395C181.271 447.395 181.291 447.39 181.31 447.38L181.44 447.42ZM184 443.1C184.37 443.1 184.37 443.31 184.37 443.37C184.47 444.11 182.8 446 181.61 446.79C181.86 445.73 182.61 443.08 183.86 443.08L184 443.1Z" fill="#263238"/>
<path d="M179.24 449.51H179.12C179.062 449.48 179.019 449.429 178.998 449.367C178.978 449.306 178.982 449.238 179.01 449.18C179.256 448.638 179.626 448.161 180.09 447.788C180.553 447.414 181.098 447.155 181.68 447.03C181.712 447.023 181.746 447.022 181.778 447.029C181.811 447.035 181.841 447.048 181.869 447.067C181.896 447.085 181.919 447.11 181.936 447.138C181.954 447.166 181.965 447.197 181.97 447.23C181.976 447.263 181.975 447.297 181.967 447.329C181.96 447.362 181.946 447.392 181.926 447.419C181.907 447.446 181.882 447.469 181.853 447.486C181.825 447.504 181.793 447.515 181.76 447.52C181.257 447.633 180.787 447.862 180.388 448.188C179.989 448.515 179.671 448.93 179.46 449.4C179.437 449.436 179.404 449.466 179.365 449.485C179.326 449.505 179.283 449.513 179.24 449.51Z" fill="#263238"/>
<path d="M181.06 451.24C181.02 451.249 180.979 451.249 180.94 451.24C180.882 451.208 180.838 451.155 180.817 451.092C180.797 451.029 180.801 450.96 180.83 450.9C181.078 450.359 181.448 449.884 181.912 449.511C182.375 449.137 182.919 448.877 183.5 448.75C183.533 448.744 183.567 448.745 183.599 448.753C183.632 448.76 183.662 448.774 183.689 448.794C183.716 448.813 183.739 448.838 183.756 448.867C183.774 448.895 183.785 448.927 183.79 448.96C183.799 449.025 183.781 449.091 183.742 449.143C183.703 449.195 183.645 449.23 183.58 449.24C183.077 449.357 182.608 449.589 182.209 449.916C181.81 450.244 181.492 450.659 181.28 451.13C181.255 451.164 181.221 451.192 181.183 451.212C181.145 451.231 181.103 451.24 181.06 451.24Z" fill="#263238"/>
<path d="M183.32 452.69C183.284 452.7 183.246 452.7 183.21 452.69C183.179 452.677 183.152 452.658 183.129 452.634C183.107 452.61 183.089 452.582 183.078 452.551C183.067 452.52 183.062 452.487 183.064 452.454C183.066 452.421 183.075 452.389 183.09 452.36C183.337 451.818 183.707 451.341 184.17 450.966C184.634 450.591 185.178 450.329 185.76 450.2C185.826 450.189 185.894 450.206 185.948 450.245C186.003 450.284 186.039 450.344 186.05 450.41C186.06 450.476 186.044 450.544 186.005 450.598C185.965 450.653 185.906 450.689 185.84 450.7C185.337 450.813 184.867 451.042 184.468 451.368C184.068 451.695 183.751 452.11 183.54 452.58C183.516 452.616 183.484 452.646 183.445 452.665C183.406 452.685 183.363 452.693 183.32 452.69Z" fill="#263238"/>
<path opacity="0.2" d="M167.44 452.47C167.44 452.47 166.26 455.92 166.44 456.81C166.609 457.422 166.905 457.991 167.31 458.48C167.912 458.523 168.511 458.354 169 458C169.246 457.754 169.474 457.49 169.68 457.21C169.955 456.86 170.144 456.449 170.23 456.012C170.317 455.575 170.299 455.124 170.178 454.695C170.057 454.266 169.837 453.872 169.535 453.544C169.233 453.217 168.858 452.965 168.44 452.81L167.44 452.47Z" fill="black"/>
<path d="M144.15 445.44L145.03 430.61L159.12 431.64L154.33 446.51L147.89 450.42L144.15 445.44Z" fill="#407BFF"/>
<path opacity="0.7" d="M144.15 445.44L145.03 430.61L159.12 431.64L154.33 446.51L147.89 450.42L144.15 445.44Z" fill="white"/>
<path d="M154.78 444.4H151.86C151.511 444.42 151.173 444.531 150.88 444.722C150.587 444.913 150.349 445.178 150.19 445.49C148.5 448.4 147.24 447.3 145.4 444.57C144.24 444.4 143.92 446.08 143.83 446.57L141.64 456.57C141.532 456.944 141.559 457.345 141.716 457.701C141.873 458.058 142.151 458.348 142.5 458.52C142.616 458.559 142.738 458.58 142.86 458.58H166C169.68 458.58 170.75 454.05 168.3 453.28C161.48 451.38 157.3 449.03 155.16 446.52C154.81 446.08 155.21 445.76 154.78 444.4Z" fill="#C12453"/>
<path d="M161.13 447.25C161.29 447.092 161.417 446.904 161.502 446.696C161.588 446.488 161.632 446.265 161.63 446.04C161.642 445.921 161.626 445.8 161.585 445.687C161.543 445.575 161.476 445.473 161.39 445.39C160.47 444.58 156.81 446.73 156.39 446.98C156.366 446.993 156.345 447.012 156.33 447.035C156.314 447.057 156.304 447.083 156.3 447.11C156.281 447.157 156.28 447.209 156.296 447.257C156.313 447.305 156.346 447.345 156.39 447.37C157.279 447.639 158.201 447.787 159.13 447.81C159.484 447.853 159.842 447.825 160.186 447.729C160.529 447.633 160.85 447.47 161.13 447.25ZM161.13 445.74C161.168 445.775 161.196 445.819 161.211 445.868C161.227 445.917 161.23 445.969 161.22 446.02C161.219 446.349 161.09 446.665 160.86 446.9C160.03 447.68 158.03 447.35 156.95 447.09C158.49 446.25 160.65 445.3 161.16 445.74H161.13Z" fill="#263238"/>
<path d="M156.53 447.42C157.63 446.84 159.93 444.56 159.8 443.36C159.788 443.191 159.714 443.032 159.592 442.914C159.47 442.796 159.309 442.727 159.14 442.72C157.14 442.43 156.28 446.97 156.28 447.16C156.27 447.198 156.269 447.238 156.277 447.276C156.286 447.315 156.304 447.35 156.33 447.38C156.347 447.39 156.366 447.395 156.385 447.395C156.404 447.395 156.423 447.39 156.44 447.38L156.53 447.42ZM159.08 443.1C159.45 443.1 159.45 443.31 159.45 443.37C159.55 444.11 157.88 446 156.69 446.79C156.94 445.73 157.69 443.08 158.94 443.08L159.08 443.1Z" fill="#263238"/>
<path d="M154.33 449.51C154.294 449.52 154.256 449.52 154.22 449.51C154.19 449.497 154.162 449.478 154.14 449.454C154.117 449.43 154.099 449.402 154.088 449.371C154.077 449.34 154.072 449.307 154.074 449.274C154.076 449.241 154.085 449.209 154.1 449.18C154.347 448.639 154.718 448.163 155.181 447.79C155.644 447.416 156.188 447.156 156.77 447.03C156.802 447.023 156.836 447.022 156.868 447.029C156.901 447.035 156.931 447.048 156.959 447.067C156.986 447.085 157.009 447.11 157.026 447.138C157.044 447.166 157.055 447.197 157.06 447.23C157.072 447.295 157.057 447.362 157.02 447.416C156.982 447.47 156.925 447.508 156.86 447.52C156.355 447.632 155.883 447.86 155.482 448.186C155.081 448.513 154.762 448.928 154.55 449.4C154.527 449.436 154.494 449.466 154.455 449.485C154.416 449.505 154.373 449.513 154.33 449.51Z" fill="#263238"/>
<path d="M156.15 451.24C156.114 451.25 156.076 451.25 156.04 451.24C156.009 451.226 155.982 451.206 155.959 451.181C155.936 451.156 155.919 451.127 155.907 451.096C155.896 451.064 155.891 451.03 155.894 450.997C155.896 450.963 155.905 450.93 155.92 450.9C156.168 450.359 156.538 449.884 157.002 449.511C157.465 449.137 158.009 448.877 158.59 448.75C158.624 448.74 158.659 448.738 158.694 448.743C158.729 448.748 158.763 448.76 158.793 448.779C158.822 448.798 158.848 448.823 158.867 448.852C158.887 448.882 158.9 448.915 158.906 448.95C158.911 448.985 158.91 449.02 158.9 449.055C158.891 449.089 158.875 449.121 158.853 449.148C158.831 449.175 158.803 449.198 158.771 449.214C158.74 449.229 158.705 449.238 158.67 449.24C158.167 449.357 157.698 449.589 157.299 449.916C156.9 450.244 156.582 450.659 156.37 451.13C156.345 451.165 156.312 451.193 156.274 451.213C156.235 451.232 156.193 451.241 156.15 451.24Z" fill="#263238"/>
<path d="M158.41 452.69C158.374 452.7 158.336 452.7 158.3 452.69C158.269 452.677 158.242 452.658 158.219 452.634C158.197 452.61 158.18 452.581 158.17 452.55C158.159 452.519 158.156 452.486 158.159 452.453C158.163 452.42 158.173 452.388 158.19 452.36C158.435 451.818 158.802 451.34 159.264 450.965C159.726 450.59 160.269 450.328 160.85 450.2C160.916 450.191 160.983 450.208 161.037 450.247C161.091 450.286 161.128 450.344 161.14 450.41C161.149 450.475 161.134 450.54 161.097 450.594C161.059 450.648 161.004 450.686 160.94 450.7C160.435 450.812 159.963 451.04 159.562 451.366C159.161 451.693 158.842 452.108 158.63 452.58C158.607 452.616 158.574 452.646 158.535 452.665C158.496 452.685 158.453 452.693 158.41 452.69Z" fill="#263238"/>
<path opacity="0.7" d="M169.31 456.64H141.63C141.538 457.006 141.575 457.392 141.733 457.734C141.891 458.076 142.162 458.353 142.5 458.52C142.616 458.559 142.737 458.58 142.86 458.58H166C166.68 458.609 167.353 458.441 167.941 458.097C168.528 457.753 169.003 457.247 169.31 456.64Z" fill="white"/>
<path d="M142.91 288.05L158.91 273.05L174.2 284.54C174.2 284.54 157.2 305.84 153.9 309.17C150.6 312.5 142.91 288.05 142.91 288.05Z" fill="#407BFF"/>
<path opacity="0.4" d="M142.91 288.05L158.91 273.05L174.2 284.54C174.2 284.54 157.2 305.84 153.9 309.17C150.6 312.5 142.91 288.05 142.91 288.05Z" fill="black"/>
<path opacity="0.4" d="M154.42 308.58C153.14 303.02 151.856 297.467 150.57 291.92L157.49 305.08L154.42 308.58Z" fill="black"/>
<path d="M102 356.61C103.13 351.53 102.86 343.23 102.86 343.23C102.86 324.69 103.57 301.76 104.27 295.35C104.54 292.83 100.95 289.74 107.46 287.9C111.298 286.937 115.226 286.371 119.18 286.21C126.18 285.8 135.05 285.94 144.98 286.21C144.98 286.21 148.98 293.38 153.91 306.98C153.91 306.98 155.44 321.22 156.48 330.43L159.24 351.29C155.51 357 135.41 361.4 102 356.61Z" fill="#407BFF"/>
<path opacity="0.4" d="M102 356.89C103.14 351.81 102.87 343.51 102.87 343.51C102.87 324.98 103.58 302.05 104.28 295.63C104.55 293.12 101.61 289.63 108.13 287.78C111.726 286.846 115.416 286.32 119.13 286.21C125.97 285.89 134.76 285.93 144.93 286.21C144.93 286.21 148.93 293.4 153.86 307C153.86 307 155.47 321.5 156.51 330.71L159.27 351.58C155.59 357.31 135.49 361.69 102 356.89Z" fill="black"/>
<path d="M95.1599 303.43L95.4698 323.81L114.78 319.87C114.78 319.87 115.37 304.69 115.1 293.98C114.95 288.35 111.71 287.19 107.87 287.82C104.236 288.476 100.957 290.41 98.6262 293.273C96.2949 296.136 95.0654 299.739 95.1599 303.43Z" fill="#407BFF"/>
<path opacity="0.4" d="M95.1599 303.43L95.4698 323.81L114.78 319.87C114.78 319.87 115.37 304.69 115.1 293.98C114.95 288.35 111.71 287.19 107.87 287.82C104.236 288.476 100.957 290.41 98.6262 293.273C96.2949 296.136 95.0654 299.739 95.1599 303.43Z" fill="black"/>
<path opacity="0.4" d="M114.6 322.29L119 321.1C119 321.1 116.26 302.33 116.15 302.66C116.04 302.99 116.78 319.2 116.78 319.2L113.59 320.11L114.6 322.29Z" fill="black"/>
<path d="M116.94 459.12H112.65L110.78 348.29H118.82L116.94 459.12Z" fill="#263238"/>
<path d="M249.18 458.06H244.9L243.01 350.44H251.06L249.18 458.06Z" fill="#263238"/>
<path d="M201.86 458.06H197.57L195.69 350.44H203.74L201.86 458.06Z" fill="#263238"/>
<path d="M254.68 341.56H108.98V350.44H254.68V341.56Z" fill="#263238"/>
<path opacity="0.3" d="M249.18 458.06H244.9L243.01 350.44H251.06L249.18 458.06Z" fill="white"/>
<path opacity="0.3" d="M201.86 458.06H197.57L195.69 350.44H203.74L201.86 458.06Z" fill="white"/>
<path d="M250.89 348.29H114.8V367.84H250.89V348.29Z" fill="#263238"/>
<path opacity="0.3" d="M250.89 350.44H196.17V367.84H250.89V350.44Z" fill="white"/>
<path opacity="0.2" d="M110.81 350.44L110.91 355.87H250.89V350.44H110.81Z" fill="black"/>
<path d="M209.93 334.16H145.32V341.53H209.93V334.16Z" fill="#407BFF"/>
<path opacity="0.8" d="M209.93 335.8H180.05V340.06H209.93V335.8Z" fill="white"/>
<path opacity="0.2" d="M177.63 334.16H145.32V341.53H177.63V334.16Z" fill="black"/>
<path d="M214.41 326.79H149.8V334.16H214.41V326.79Z" fill="#263238"/>
<path opacity="0.8" d="M214.42 332.68H186.66C186.097 332.68 185.556 332.457 185.157 332.06C184.758 331.662 184.532 331.123 184.53 330.56C184.53 329.995 184.754 329.453 185.154 329.054C185.553 328.654 186.095 328.43 186.66 328.43H214.42V332.68Z" fill="white"/>
<path opacity="0.3" d="M182.11 326.79H149.8V334.16H182.11V326.79Z" fill="black"/>
<path d="M98.9199 323.11C98.9199 323.11 100.79 337.62 102.53 340.93C103.39 342.229 104.557 343.296 105.928 344.036C107.299 344.776 108.832 345.165 110.39 345.17C121.51 344.91 144.48 338.17 144.15 337.17L141.55 328.24L116.36 331.11L114.14 320L98.9199 323.11Z" fill="#E9B376"/>
<path d="M139.29 330.49C139.29 330.49 139.79 326.98 142.15 325.25C144.51 323.52 145.93 321.51 147.78 320.34C149.63 319.17 150.08 321.34 149.32 322.71C148.56 324.08 146.41 326.41 147.55 326.81C148.69 327.21 158.98 325.26 160.55 325.99C162.12 326.72 160.55 327.56 160.55 327.56C160.55 327.56 162.86 327.14 163.49 328.11C164.12 329.08 162.75 329.77 162.75 329.77C162.75 329.77 164.31 329.54 164.35 330.66C164.39 331.78 155.26 334.37 154.97 334.66C154.97 334.66 160.22 332.37 161.21 333.42C162.2 334.47 159.35 335.89 157.1 337.07C154.633 338.245 151.921 338.814 149.19 338.73C145.95 338.73 141.49 339.37 140.19 336.73C139.355 334.763 139.045 332.613 139.29 330.49Z" fill="#E9B376"/>
<path d="M121.65 266.91C122.01 270.501 122.01 274.119 121.65 277.71C121.56 280.19 120.14 283.94 119.13 286.21L134.44 295.85C134.06 286.67 134.57 280.93 140.16 278.63C147.8 275.39 121.65 266.91 121.65 266.91Z" fill="#E9B376"/>
<path opacity="0.2" d="M121.65 266.91C122.161 270.583 122.312 274.297 122.1 278C125.27 282.72 129.34 287.24 134.57 289C134.45 287 134.57 280.9 140.16 278.6C147.8 275.39 121.65 266.91 121.65 266.91Z" fill="black"/>
<path d="M141.11 237.79C141.11 237.79 148.97 242.25 147.63 251.24C146.29 260.23 131.63 244.94 131.63 244.94L141.11 237.79Z" fill="#263238"/>
<path d="M111 261.38C116.52 272.12 119.12 278.71 127.83 281.66C140.94 286.14 154.13 274.49 152.35 262.17C150.81 251.07 142.03 235.4 127.96 236.17C113.89 236.94 105.49 250.67 111 261.38Z" fill="#E9B376"/>
<path d="M132.43 260C132.81 261.14 133.74 261.87 134.49 261.6C135.24 261.33 135.49 260.21 135.13 259.07C134.77 257.93 133.81 257.21 133.06 257.47C132.31 257.73 132.08 258.84 132.43 260Z" fill="#263238"/>
<path d="M143.43 254.07C143.82 255.21 144.75 255.94 145.49 255.67C146.23 255.4 146.49 254.27 146.13 253.13C145.77 251.99 144.82 251.28 144.07 251.53C143.32 251.78 143.06 252.93 143.43 254.07Z" fill="#263238"/>
<path d="M132.15 250.91C132.186 250.769 132.186 250.621 132.15 250.48C132.084 250.303 131.954 250.158 131.784 250.074C131.615 249.991 131.421 249.975 131.24 250.03C130.16 250.351 129.175 250.93 128.37 251.717C127.565 252.505 126.964 253.477 126.62 254.55C126.571 254.729 126.595 254.92 126.687 255.081C126.779 255.243 126.931 255.361 127.11 255.41C127.292 255.456 127.484 255.43 127.647 255.337C127.809 255.243 127.929 255.09 127.98 254.91C128.274 254.061 128.769 253.296 129.424 252.681C130.079 252.066 130.874 251.619 131.74 251.38C131.838 251.335 131.925 251.27 131.996 251.189C132.066 251.108 132.119 251.013 132.15 250.91Z" fill="#263238"/>
<path d="M146.07 245.49C146.196 245.414 146.297 245.303 146.36 245.17C146.412 244.99 146.393 244.796 146.307 244.629C146.222 244.462 146.076 244.334 145.9 244.27C144.837 243.899 143.7 243.79 142.586 243.952C141.472 244.113 140.413 244.542 139.5 245.2C139.424 245.256 139.361 245.327 139.313 245.408C139.265 245.489 139.234 245.579 139.222 245.672C139.21 245.766 139.217 245.861 139.242 245.951C139.268 246.042 139.311 246.126 139.37 246.2C139.491 246.343 139.662 246.434 139.848 246.455C140.034 246.475 140.221 246.423 140.37 246.31C141.109 245.799 141.96 245.474 142.851 245.363C143.743 245.251 144.648 245.357 145.49 245.67C145.594 245.686 145.7 245.678 145.801 245.647C145.901 245.616 145.993 245.562 146.07 245.49Z" fill="#263238"/>
<path d="M141.8 258.12L146.01 259.55C146.01 259.55 145.61 261.2 142.56 262.64L141.8 258.12Z" fill="#D58745"/>
<path d="M107.25 253.79C107.25 253.79 101.63 247.12 108.85 241.24C111.02 239.48 115.1 233.34 117.54 229.51C117.804 229.083 118.187 228.743 118.641 228.531C119.096 228.318 119.603 228.243 120.099 228.314C120.596 228.385 121.061 228.6 121.438 228.931C121.814 229.262 122.086 229.696 122.22 230.18C123.65 228.99 125.04 227.74 126.36 226.42C127.573 225.248 129.186 224.581 130.872 224.555C132.559 224.529 134.192 225.146 135.44 226.28C137.35 228 139.09 229.99 139.22 231.68L140.74 230.35C141.051 230.037 141.457 229.836 141.894 229.777C142.331 229.719 142.775 229.806 143.157 230.027C143.54 230.247 143.838 230.587 144.007 230.995C144.176 231.402 144.205 231.854 144.09 232.28C143.22 236.67 141.28 242.33 137 243.7C129.75 246.03 122.24 245.16 124.72 255.04C127.2 264.92 122 268.37 122 268.37L121.61 278.21C121.61 278.21 112.61 277.36 108.11 267.43C103.61 257.5 107.25 253.79 107.25 253.79Z" fill="#263238"/>
<path d="M123.37 265.08C123.37 265.08 118.59 259.57 115.93 262.63C113.27 265.69 117.32 276.14 122.22 274.58C127.12 273.02 126.68 267.81 123.37 265.08Z" fill="#E9B376"/>
<path d="M144.87 266.08C145.013 267.773 144.795 269.477 144.23 271.08L143.34 271.17C139.34 271.56 137.34 270.41 136.34 269.01C135.613 267.91 135.298 266.589 135.45 265.28C137.71 266.35 141.45 266.28 143.51 266.16C143.965 266.158 144.419 266.131 144.87 266.08Z" fill="#263238"/>
<path d="M143.49 266.19L143.26 267.67C139.47 268.02 136.75 267.76 135.45 266.73C135.38 266.259 135.38 265.781 135.45 265.31C137.69 266.38 141.43 266.31 143.49 266.19Z" fill="white"/>
<path d="M143.34 271.2C139.34 271.59 137.34 270.44 136.34 269.04C137.875 268.927 139.418 269.083 140.9 269.5C141.867 269.806 142.718 270.399 143.34 271.2Z" fill="#C05854"/>
<path opacity="0.3" d="M121.1 271.77C121.058 271.784 121.012 271.784 120.97 271.77C118.97 270.53 117.53 267.77 118.6 265.62C118.628 265.561 118.679 265.515 118.741 265.492C118.802 265.47 118.87 265.473 118.93 265.5C118.961 265.514 118.988 265.534 119.011 265.559C119.034 265.584 119.051 265.613 119.063 265.644C119.074 265.676 119.078 265.71 119.076 265.743C119.074 265.777 119.065 265.81 119.05 265.84C118.13 267.73 119.44 270.21 121.23 271.35C121.258 271.366 121.283 271.388 121.303 271.415C121.322 271.441 121.336 271.471 121.344 271.503C121.351 271.535 121.352 271.568 121.346 271.6C121.34 271.632 121.328 271.663 121.31 271.69C121.284 271.719 121.251 271.741 121.215 271.755C121.178 271.769 121.139 271.774 121.1 271.77Z" fill="black"/>
</svg>
