<svg width="39" height="30" viewBox="0 0 39 30" fill="none" xmlns="http://www.w3.org/2000/svg">
<path d="M2 13C0.89543 13 -9.65645e-08 13.8954 0 15C9.65645e-08 16.1046 0.895431 17 2 17L2 13ZM38.4142 16.4142C39.1953 15.6332 39.1953 14.3668 38.4142 13.5858L25.6863 0.857862C24.9052 0.0768138 23.6389 0.0768139 22.8579 0.857863C22.0768 1.63891 22.0768 2.90524 22.8579 3.68629L34.1716 15L22.8579 26.3137C22.0768 27.0948 22.0768 28.3611 22.8579 29.1421C23.6389 29.9232 24.9052 29.9232 25.6863 29.1421L38.4142 16.4142ZM2 17L37 17L37 13L2 13L2 17Z" fill="white"/>
</svg>
