<svg width="24" height="24" viewBox="0 0 24 24" fill="none" xmlns="http://www.w3.org/2000/svg">
<path fill-rule="evenodd" clip-rule="evenodd" d="M22.6066 4.22183C23.3876 3.44078 23.3876 2.17445 22.6066 1.39341C21.8256 0.612357 20.5592 0.612357 19.7782 1.39341L12 9.17158L4.22183 1.3934C3.44078 0.612355 2.17445 0.612355 1.3934 1.3934C0.612352 2.17445 0.61235 3.44078 1.3934 4.22183L9.17157 12L1.3934 19.7782C0.612349 20.5592 0.612349 21.8256 1.3934 22.6066C2.17445 23.3877 3.44077 23.3877 4.22182 22.6066L12 14.8284L19.7782 22.6066C20.5592 23.3877 21.8256 23.3877 22.6066 22.6066C23.3877 21.8256 23.3877 20.5592 22.6066 19.7782L14.8284 12L22.6066 4.22183Z" fill="white"/>
</svg>
