<svg width="60" height="60" viewBox="0 0 60 60" fill="none" xmlns="http://www.w3.org/2000/svg">
<path fill-rule="evenodd" clip-rule="evenodd" d="M30 60C46.5685 60 60 46.5685 60 30C60 13.4315 46.5685 0 30 0C13.4315 0 0 13.4315 0 30C0 46.5685 13.4315 60 30 60ZM32.8532 12.9811C31.9551 10.2172 28.0449 10.2172 27.1469 12.9811L24.8811 19.9544C24.4795 21.1905 23.3276 22.0273 22.0279 22.0273L14.6958 22.0273C11.7897 22.0273 10.5813 25.7462 12.9325 27.4544L18.8643 31.7641C19.9157 32.528 20.3557 33.8821 19.9541 35.1182L17.6883 42.0915C16.7903 44.8554 19.9537 47.1538 22.3049 45.4456L28.2367 41.1359C29.2881 40.3719 30.7119 40.3719 31.7634 41.1359L37.6952 45.4456C40.0463 47.1538 43.2098 44.8554 42.3117 42.0915L40.046 35.1182C39.6443 33.8821 40.0843 32.528 41.1358 31.7641L47.0676 27.4544C49.4187 25.7462 48.2104 22.0273 45.3042 22.0273L37.9721 22.0273C36.6724 22.0273 35.5206 21.1905 35.119 19.9544L32.8532 12.9811Z" fill="white"/>
</svg>
