<svg width="1000" height="700" viewBox="0 0 1000 700" fill="none" xmlns="http://www.w3.org/2000/svg">
<path d="M859.86 557.886H813.492V558.236H859.86V557.886Z" fill="#EBEBEB"/>
<path d="M693.708 561.694H681.542V562.044H693.708V561.694Z" fill="#EBEBEB"/>
<path d="M812.092 544.894H785.226V545.244H812.092V544.894Z" fill="#EBEBEB"/>
<path d="M363.91 547.246H303.444V547.596H363.91V547.246Z" fill="#EBEBEB"/>
<path d="M385.246 547.246H376.384V547.596H385.246V547.246Z" fill="#EBEBEB"/>
<path d="M545.21 553.154H414.058V553.504H545.21V553.154Z" fill="#EBEBEB"/>
<path d="M561.8 472.92H291.474C289.356 472.916 287.327 472.072 285.831 470.574C284.334 469.075 283.494 467.044 283.494 464.926V84.924C283.513 82.8184 284.361 80.8052 285.855 79.3215C287.349 77.8378 289.368 77.0036 291.474 77H561.8C563.92 77 565.954 77.8422 567.453 79.3414C568.952 80.8406 569.794 82.8739 569.794 84.994V464.926C569.794 467.046 568.952 469.079 567.453 470.579C565.954 472.078 563.92 472.92 561.8 472.92ZM291.474 77.28C289.449 77.2837 287.509 78.0907 286.078 79.5238C284.648 80.9569 283.844 82.8991 283.844 84.924V464.926C283.844 466.951 284.648 468.893 286.078 470.326C287.509 471.759 289.449 472.566 291.474 472.57H561.8C563.826 472.566 565.768 471.76 567.201 470.327C568.634 468.894 569.44 466.952 569.444 464.926V84.924C569.44 82.8978 568.634 80.9557 567.201 79.523C565.768 78.0902 563.826 77.2837 561.8 77.28H291.474Z" fill="#EBEBEB"/>
<path d="M864.634 472.92H594.294C592.175 472.916 590.144 472.073 588.645 470.575C587.147 469.076 586.304 467.045 586.3 464.926V84.924C586.322 82.8172 587.173 80.8039 588.67 79.3206C590.166 77.8374 592.187 77.0036 594.294 77H864.634C866.737 77.0073 868.753 77.8431 870.244 79.3264C871.735 80.8097 872.581 82.8209 872.6 84.924V464.926C872.6 467.041 871.761 469.07 870.268 470.569C868.775 472.067 866.749 472.913 864.634 472.92ZM594.294 77.28C592.268 77.2837 590.325 78.0902 588.893 79.523C587.46 80.9557 586.654 82.8978 586.65 84.924V464.926C586.654 466.952 587.46 468.894 588.893 470.327C590.325 471.76 592.268 472.566 594.294 472.57H864.634C866.66 472.566 868.602 471.76 870.035 470.327C871.468 468.894 872.274 466.952 872.278 464.926V84.924C872.274 82.8978 871.468 80.9557 870.035 79.523C868.602 78.0902 866.66 77.2837 864.634 77.28H594.294Z" fill="#EBEBEB"/>
<path d="M930 535.36H230V535.71H930V535.36Z" fill="#EBEBEB"/>
<path d="M831.048 97.314H826.274V178.402H831.048V97.314Z" fill="#E0E0E0"/>
<path d="M828.654 97.314H752.382V178.402H828.654V97.314Z" fill="#F0F0F0"/>
<path d="M822.732 103.698H759.228V172.004H822.732V103.698Z" fill="white"/>
<path d="M807.388 145.726C807.377 146.762 807.451 147.797 807.612 148.82C807.766 149.618 807.948 150.43 808.144 151.228C808.358 151.837 808.485 152.473 808.522 153.118C808.529 153.7 808.4 154.275 808.145 154.798C807.889 155.32 807.515 155.776 807.052 156.128C806.065 156.942 804.818 157.375 803.538 157.346C802.652 157.424 801.759 157.305 800.924 156.998C800.089 156.69 799.332 156.202 798.708 155.568C797.658 154.25 797.077 152.619 797.056 150.934C795.187 153.053 792.867 154.728 790.266 155.834C787.624 156.875 784.804 157.388 781.964 157.346C778.773 157.39 775.674 156.276 773.242 154.21C772.043 153.234 771.083 151.995 770.438 150.59C769.792 149.185 769.477 147.65 769.518 146.104C769.46 144.172 769.858 142.254 770.68 140.504C771.422 139.01 772.542 137.736 773.928 136.808C775.422 135.812 777.067 135.065 778.8 134.596C780.812 134.029 782.868 133.636 784.946 133.42L791.666 132.664C792.913 132.568 794.124 132.195 795.208 131.572C795.646 131.219 795.987 130.759 796.198 130.237C796.408 129.716 796.482 129.148 796.412 128.59C796.442 127.897 796.274 127.21 795.926 126.61C795.579 126.01 795.068 125.521 794.452 125.202C792.925 124.392 791.21 124.001 789.482 124.068C787.789 123.985 786.101 124.322 784.568 125.048C783.246 125.791 782.027 126.704 780.942 127.764C780.312 128.43 779.607 129.022 778.842 129.528C778.206 129.915 777.473 130.114 776.728 130.102C775.488 130.143 774.282 129.696 773.368 128.856C772.947 128.483 772.61 128.023 772.38 127.509C772.151 126.995 772.034 126.437 772.038 125.874C772.08 124.639 772.489 123.445 773.214 122.444C774.12 121.135 775.288 120.029 776.644 119.196C778.378 118.12 780.266 117.317 782.244 116.816C784.648 116.19 787.125 115.889 789.608 115.92C795.143 115.92 799.506 116.853 802.698 118.72C804.216 119.548 805.47 120.788 806.317 122.295C807.164 123.803 807.569 125.519 807.486 127.246L807.388 145.726ZM796.37 137.802C795.812 138.283 795.158 138.64 794.452 138.852C793.533 139.135 792.598 139.364 791.652 139.538L787.648 140.14C785.75 140.315 783.917 140.918 782.286 141.904C781.713 142.321 781.255 142.875 780.954 143.517C780.653 144.158 780.519 144.865 780.564 145.572C780.566 146.199 780.717 146.817 781.004 147.374C781.291 147.931 781.707 148.412 782.216 148.778C783.507 149.71 785.078 150.175 786.668 150.094C789.217 150.203 791.714 149.354 793.668 147.714C794.5 147.037 795.172 146.183 795.634 145.214C796.097 144.246 796.339 143.187 796.342 142.114L796.37 137.802Z" fill="#EBEBEB"/>
<path d="M855.03 322.056H818.616V360.822H855.03V322.056Z" fill="#E6E6E6"/>
<path d="M818.616 322.056H809.292V360.822H818.616V322.056Z" fill="#F5F5F5"/>
<path d="M864.578 316.078H837.222V360.822H864.578V316.078Z" fill="#E6E6E6"/>
<path d="M837.236 316.078H829.326V360.822H837.236V316.078Z" fill="#F0F0F0"/>
<path d="M871.858 322.056H845.286V360.822H871.858V322.056Z" fill="#F0F0F0"/>
<path d="M845.272 322.056H840.008V360.822H845.272V322.056Z" fill="#F5F5F5"/>
<path d="M760.614 349.944H753.852V364.42H760.614V349.944Z" fill="#E0E0E0"/>
<path d="M756.092 353.038C751.409 353.051 746.771 352.134 742.445 350.341C738.119 348.549 734.192 345.915 730.892 342.594L731.886 341.614C738.304 348.032 747.008 351.638 756.085 351.638C765.161 351.638 773.866 348.032 780.284 341.614C786.702 335.196 790.307 326.491 790.307 317.415C790.307 308.339 786.702 299.634 780.284 293.216L781.264 292.236C786.239 297.22 789.626 303.568 790.996 310.476C792.367 317.384 791.659 324.544 788.962 331.05C786.266 337.556 781.701 343.117 775.846 347.031C769.99 350.944 763.106 353.035 756.064 353.038H756.092Z" fill="#E0E0E0"/>
<path d="M872.278 360.822H729.464V534.912H872.278V360.822Z" fill="#EBEBEB"/>
<path d="M859.86 380.226H740.874V535.346H859.86V380.226Z" fill="#F5F5F5"/>
<path d="M757.73 343.336C771.006 343.336 781.768 332.574 781.768 319.298C781.768 306.022 771.006 295.26 757.73 295.26C744.455 295.26 733.692 306.022 733.692 319.298C733.692 332.574 744.455 343.336 757.73 343.336Z" fill="#EBEBEB"/>
<path d="M740.398 336.714C735.917 332.078 733.436 325.867 733.491 319.42C733.546 312.972 736.132 306.804 740.691 302.245C745.25 297.686 751.418 295.1 757.865 295.045C764.313 294.991 770.524 297.471 775.16 301.952L774.39 302.722C772.205 300.541 769.611 298.811 766.758 297.632C763.904 296.453 760.846 295.847 757.759 295.85C754.671 295.852 751.615 296.463 748.763 297.647C745.911 298.831 743.321 300.565 741.14 302.75C738.958 304.935 737.229 307.528 736.049 310.382C734.87 313.235 734.265 316.293 734.267 319.381C734.27 322.468 734.881 325.525 736.065 328.377C737.249 331.228 738.983 333.819 741.168 336L740.398 336.714Z" fill="white"/>
<path d="M740.398 336.714L741.168 335.958C743.351 338.139 745.941 339.87 748.792 341.05C751.643 342.23 754.699 342.837 757.784 342.836C760.87 342.836 763.925 342.227 766.776 341.046C769.626 339.865 772.216 338.133 774.397 335.951C776.579 333.769 778.309 331.178 779.489 328.327C780.669 325.476 781.277 322.421 781.276 319.335C781.275 316.249 780.667 313.194 779.485 310.344C778.304 307.493 776.573 304.903 774.39 302.722L775.16 301.952C777.507 304.22 779.379 306.933 780.666 309.932C781.953 312.931 782.63 316.156 782.658 319.42C782.686 322.683 782.064 325.919 780.827 328.94C779.591 331.96 777.766 334.704 775.459 337.012C773.151 339.32 770.407 341.145 767.386 342.381C764.366 343.617 761.129 344.239 757.866 344.212C754.603 344.184 751.377 343.507 748.378 342.219C745.379 340.932 742.667 339.061 740.398 336.714Z" fill="white"/>
<path d="M766.662 328.216L765.892 327.46C771.492 321.86 776.21 311.43 774.292 302.456L775.342 302.232C777.4 311.584 772.5 322.378 766.662 328.216Z" fill="white"/>
<path d="M741.182 336.35L741.42 335.286C750.38 337.246 760.782 332.57 766.41 326.886L767.18 327.642C761.342 333.55 750.534 338.394 741.182 336.35Z" fill="white"/>
<path d="M749.666 311.22L748.896 310.464C754.734 304.612 765.542 299.768 774.894 301.812L774.656 302.876C765.696 300.916 755.294 305.592 749.666 311.22Z" fill="white"/>
<path d="M740.776 336C738.732 326.648 743.576 315.854 749.414 310.002L750.184 310.772C744.584 316.372 739.866 326.802 741.784 335.776L740.776 336Z" fill="white"/>
<path d="M774.402 301.955L740.407 335.95L741.169 336.712L775.164 302.717L774.402 301.955Z" fill="white"/>
<path d="M752.827 295.52L752.064 296.283L780.842 325.06L781.605 324.298L752.827 295.52Z" fill="white"/>
<path d="M740.876 302.255L740.113 303.017L774.088 336.992L774.851 336.23L740.876 302.255Z" fill="white"/>
<path d="M734.517 314.576L733.755 315.339L761.77 343.354L762.533 342.592L734.517 314.576Z" fill="white"/>
<path d="M721.302 345.016H283.844V356.79H721.302V345.016Z" fill="#E0E0E0"/>
<path d="M707.33 97.216H704.348V344.918H707.33V97.216Z" fill="#E0E0E0"/>
<path d="M312.32 108.08H309.87V330.96H312.32V108.08Z" fill="#E0E0E0"/>
<path d="M704.306 97.314H297.816V345.016H704.306V97.314Z" fill="#F0F0F0"/>
<path d="M691.062 108.08H309.87V330.96H691.062V108.08Z" fill="#1B3757"/>
<path d="M312.124 239.288V344.288H372.8L312.124 239.288ZM325.34 292.236L346.718 329.294H325.34V292.236Z" fill="#FAFAFA"/>
<path opacity="0.1" d="M549.004 330.4H503.952V330.624C503.328 330.865 502.791 331.29 502.414 331.842C502.036 332.395 501.836 333.049 501.838 333.718V343.588C501.836 344.257 502.036 344.911 502.414 345.464C502.791 346.016 503.328 346.441 503.952 346.682V346.906H549.858C550.511 346.906 551.138 346.646 551.6 346.184C552.062 345.722 552.322 345.095 552.322 344.442V333.718C552.322 332.838 551.972 331.994 551.35 331.372C550.728 330.75 549.884 330.4 549.004 330.4Z" fill="black"/>
<path d="M549.872 337.218V343C549.872 343.325 549.808 343.646 549.683 343.946C549.558 344.246 549.375 344.518 549.145 344.747C548.915 344.976 548.642 345.157 548.341 345.28C548.04 345.403 547.719 345.466 547.394 345.464H501.488V337.204L549.872 337.218Z" fill="#F0F0F0"/>
<path d="M501.488 337.218V329H546.554C547.434 329 548.278 329.35 548.9 329.972C549.522 330.594 549.872 331.438 549.872 332.318V337.246L501.488 337.218Z" fill="#E0E0E0"/>
<path d="M515.894 337.218V342.16C515.89 343.039 515.54 343.881 514.918 344.502C514.297 345.124 513.455 345.474 512.576 345.478H502.692C502.256 345.478 501.825 345.392 501.422 345.225C501.02 345.059 500.654 344.814 500.346 344.506C500.038 344.198 499.793 343.832 499.627 343.43C499.46 343.027 499.374 342.596 499.374 342.16V337.218H515.894Z" fill="#FAFAFA"/>
<path d="M499.374 337.218V332.29C499.374 331.854 499.46 331.423 499.627 331.02C499.793 330.618 500.038 330.252 500.346 329.944C500.654 329.636 501.02 329.391 501.422 329.225C501.825 329.058 502.256 328.972 502.692 328.972H512.576C513.455 328.976 514.297 329.326 514.918 329.948C515.54 330.569 515.89 331.411 515.894 332.29V337.218H499.374Z" fill="#EBEBEB"/>
<path d="M549.858 338.562H516.188V339.262H549.858V338.562Z" fill="#E6E6E6"/>
<path d="M500 599C776.142 599 1000 591.613 1000 582.5C1000 573.387 776.142 566 500 566C223.858 566 0 573.387 0 582.5C0 591.613 223.858 599 500 599Z" fill="black" fill-opacity="0.14"/>
<path d="M93.4109 156.884C91.6606 157.056 89.9711 157.619 88.4667 158.53C86.9622 159.441 85.6809 160.677 84.7169 162.148C82.8199 165.112 81.7248 168.518 81.5389 172.032C81.2236 174.755 81.5397 177.515 82.4629 180.096C82.9356 181.379 83.6811 182.544 84.648 183.511C85.6148 184.478 86.7799 185.223 88.0629 185.696C91.5349 186.816 95.4549 185.206 97.9469 182.532C100.312 179.7 101.955 176.338 102.735 172.732C104.569 166.208 101.937 156.408 93.4109 156.884Z" fill="#263238"/>
<path d="M137.496 584.374C129.642 585.018 123.959 581.504 122.335 577.794C120.711 574.084 118.036 570.346 117.686 573.804C117.528 577.327 117.579 580.857 117.84 584.374L116.623 584.5C116.623 584.5 115.222 572.964 114.732 567.812C114.495 566.175 114.368 564.524 114.354 562.87C114.581 561.987 114.984 561.16 115.54 560.438C116.096 559.716 116.793 559.114 117.588 558.67L127.165 560.07C132.947 574.812 142.27 578.928 142.27 578.928C144.115 579.308 145.884 579.989 147.507 580.944C150.335 582.792 146.652 583.59 137.496 584.374Z" fill="#263238"/>
<path d="M118.107 563.36C119.377 566.259 121.385 568.774 123.931 570.654C125.905 571.984 126.885 578.074 131.407 579.712C133.169 580.386 135.06 580.655 136.941 580.5C138.821 580.345 140.643 579.769 142.271 578.816C142.271 578.816 132.961 574.7 127.137 560C127.137 560 117.407 561.022 118.107 563.36Z" fill="#FFB573"/>
<path d="M85.7669 583.478C78.3329 580.958 74.5669 575.456 74.5669 571.424C74.5669 567.392 73.5869 562.856 71.8929 565.824C70.3422 569.007 68.9818 572.28 67.8189 575.624L66.6709 575.274C66.6709 575.274 69.9889 564.074 71.5569 559.23C71.9931 557.632 72.5356 556.065 73.1809 554.54C73.741 553.815 74.441 553.209 75.2394 552.76C76.0378 552.31 76.9184 552.025 77.8289 551.922L86.0609 556.934C85.5149 572.754 92.4309 580.244 92.4309 580.244C93.971 581.329 95.3195 582.663 96.4209 584.192C98.1009 587.202 94.4049 586.46 85.7669 583.478Z" fill="#263238"/>
<path d="M76.3306 556.528C76.3445 559.698 77.1945 562.808 78.7946 565.544C80.0546 567.532 78.5426 573.524 82.0286 576.814C83.3772 578.137 85.006 579.139 86.7944 579.748C88.5828 580.356 90.4851 580.554 92.3606 580.328C92.3606 580.328 85.3606 572.838 85.9906 557.018C85.9906 557.018 76.4986 554.134 76.3306 556.528Z" fill="#FFB573"/>
<path d="M154.745 239.54L155.235 240.128L155.879 240.856C156.341 241.346 156.789 241.864 157.279 242.354C158.245 243.362 159.295 244.328 160.345 245.336C162.479 247.293 164.712 249.139 167.037 250.866C169.403 252.616 171.881 254.24 174.387 255.836C175.787 256.578 176.935 257.376 178.251 258.104L181.289 259.784C181.73 259.979 182.227 260.008 182.689 259.868C183.669 259.574 189.297 254.002 191.089 251.944C195.051 247.38 203.129 240.422 206.363 235.312L208.015 241.304C205.735 247.548 202.703 253.49 198.985 259C196.971 261.97 194.569 264.658 191.845 266.994C190.197 268.375 188.34 269.486 186.343 270.284C183.145 271.571 179.568 271.546 176.389 270.214L175.143 269.654L172.875 268.632C171.335 267.946 169.879 267.148 168.395 266.392C165.42 264.814 162.536 263.071 159.757 261.17C156.961 259.249 154.278 257.169 151.721 254.94C150.414 253.796 149.166 252.586 147.983 251.314C147.367 250.698 146.765 250.026 146.177 249.354L145.295 248.29C144.987 247.884 144.749 247.59 144.301 246.988L154.745 239.54Z" fill="#FFB573"/>
<path d="M206.377 235.312L219.411 227.234L218.543 239.932C218.543 239.932 211.291 243.586 207.595 241.15L206.377 235.312Z" fill="#FFB573"/>
<path d="M228.679 226.394L229.575 237.034L218.543 239.918L219.411 227.234L228.679 226.394Z" fill="#FFB573"/>
<path d="M287.639 168.026L211.918 244.597L212.914 245.581L288.634 169.01L287.639 168.026Z" fill="#263238"/>
<path d="M218.137 237.482L220.181 237.706C221.222 237.809 222.272 237.772 223.303 237.594L224.255 236.754C224.27 236.375 224.16 236.001 223.943 235.69C223.725 235.379 223.412 235.148 223.051 235.032L221.539 234.542L214.889 230.888L212.999 233.464V237.538L213.629 237.986C214.315 238.459 215.148 238.669 215.977 238.576C216.805 238.484 217.572 238.095 218.137 237.482Z" fill="#FFB573"/>
<path d="M141.571 225.974C146.821 225.022 183.851 257.138 183.851 257.138L172.875 273.238C172.875 273.238 132.373 245.042 133.675 238.238C134.907 231.14 133.913 227.374 141.571 225.974Z" fill="#263238"/>
<path opacity="0.2" d="M146.233 236.306L145.841 253.106C150.041 256.368 165.217 268.002 165.217 268.002L146.233 236.306Z" fill="black"/>
<path d="M118.107 563.36L128.901 563.878L133.241 532.098L120.823 530.866L118.107 563.36Z" fill="#FFB573"/>
<path opacity="0.2" d="M133.241 532.098L131.211 546.938L119.577 545.804L120.809 530.88L133.241 532.098Z" fill="black"/>
<path d="M76.3306 556.528L86.1026 558.376L90.0366 529.578L77.6186 528.36L76.3306 556.528Z" fill="#FFB573"/>
<path opacity="0.2" d="M90.0366 530.04L87.9226 545.524L76.9326 543.816L77.6046 528.822L90.0366 530.04Z" fill="black"/>
<path d="M140.675 299.124H131.421L93.8867 299.222C94.6427 279.79 94.5587 264.068 86.2567 225.848C86.05 224.906 86.0566 223.93 86.276 222.991C86.4954 222.051 86.922 221.173 87.5247 220.42C88.1273 219.667 88.8907 219.059 89.7589 218.639C90.6272 218.219 91.5783 217.999 92.5427 217.994C96.4207 217.994 101.279 218.134 106.207 218.638C114.001 219.271 121.743 220.44 129.377 222.138L130.259 222.348C134.093 223.338 137.869 224.54 141.571 225.946C143.965 226.772 146.877 233.31 149.495 240.786C156.537 252.868 147.927 263.06 140.675 299.124Z" fill="white"/>
<path d="M142.411 301.56C142.411 301.56 168.675 377.538 168.045 414.064C167.681 434.994 166.113 473.998 159.799 501.424C154.647 523.824 133.647 538.104 133.647 538.104L116.847 537.11C116.847 537.11 107.761 502.95 109.343 489.356C112.493 462.308 121.817 441.966 120.697 417.13C118.905 376.432 106.865 300.93 106.865 300.93L142.411 301.56Z" fill="#303A50"/>
<path opacity="0.2" d="M112.815 521.36C112.815 521.36 112.815 521.206 112.927 521.206C127.921 521.206 145.127 486.206 144.301 424.312L137.441 372.4L112.815 521.36Z" fill="black"/>
<path d="M128.957 301.756C128.957 301.756 144.931 385.308 139.877 421.498C136.993 442.232 130.707 480.746 121.117 507.22C113.305 528.808 90.737 540.47 90.737 540.47L74.1329 537.446C74.1329 537.446 69.247 502.446 72.453 489.132C78.851 462.658 90.653 443.59 92.459 418.796C95.595 378.196 92.7809 301.756 92.7809 301.756H128.957Z" fill="#303A50"/>
<path d="M113.459 541.492L137.189 542.906L139.359 535.766L112.843 533.316L113.459 541.492Z" fill="#263238"/>
<path d="M72.7329 539.294L96.1689 543.242L99.0949 536.382L72.9849 531.104L72.7329 539.294Z" fill="#263238"/>
<path d="M93.7049 296.87L92.4169 301.42C92.2349 301.784 92.6549 302.134 93.2429 302.134L141.529 302.064C141.991 302.064 142.383 301.84 142.411 301.56L142.859 296.996C142.859 296.688 142.481 296.422 141.977 296.422L94.5309 296.492C94.3722 296.477 94.2124 296.504 94.0674 296.571C93.9224 296.637 93.7974 296.74 93.7049 296.87Z" fill="#407BFF"/>
<g opacity="0.5">
<path d="M93.7049 296.87L92.4169 301.42C92.2349 301.784 92.6549 302.134 93.2429 302.134L141.529 302.064C141.991 302.064 142.383 301.84 142.411 301.56L142.859 296.996C142.859 296.688 142.481 296.422 141.977 296.422L94.5309 296.492C94.3722 296.477 94.2124 296.504 94.0674 296.571C93.9224 296.637 93.7974 296.74 93.7049 296.87Z" fill="white"/>
</g>
<path d="M102.931 302.554H101.531C101.279 302.554 101.055 302.414 101.083 302.246L101.713 296.324C101.713 296.156 101.965 296.016 102.245 296.016H103.645C103.911 296.016 104.135 296.156 104.107 296.338L103.477 302.246C103.435 302.4 103.197 302.554 102.931 302.554Z" fill="#407BFF"/>
<path d="M137.791 302.554H136.391C136.125 302.554 135.915 302.414 135.929 302.246L136.559 296.338C136.559 296.156 136.825 296.016 137.091 296.016H138.491C138.757 296.016 138.967 296.156 138.953 296.324L138.323 302.232C138.337 302.4 138.071 302.554 137.791 302.554Z" fill="#407BFF"/>
<path d="M121.831 302.512H120.431C120.165 302.512 119.955 302.372 119.983 302.204L120.613 296.296C120.613 296.114 120.865 295.974 121.131 295.988H122.531C122.797 295.988 123.021 296.128 122.993 296.296L122.363 302.204C122.335 302.4 122.111 302.526 121.831 302.512Z" fill="#407BFF"/>
<path d="M108.391 193.2C109.875 200.816 111.331 214.592 106.165 218.75C106.165 218.75 108.223 226.562 122.069 228.648C137.357 230.958 129.335 222.25 129.335 222.25C121.019 218.946 121.215 212.94 122.657 207.396L108.391 193.2Z" fill="#FFB573"/>
<path opacity="0.2" d="M114.201 198.982L122.601 207.382C122.25 208.679 122.016 210.005 121.901 211.344C118.723 210.42 113.599 206.906 113.249 203.546C113.254 201.976 113.578 200.423 114.201 198.982Z" fill="black"/>
<path d="M99.0527 183.54C102.791 195.398 104.121 200.494 111.793 205.156C123.259 212.156 136.993 204.974 136.867 192.262C136.755 180.81 130.665 163.366 117.645 161.462C114.787 161.036 111.868 161.349 109.165 162.369C106.461 163.39 104.064 165.085 102.201 167.293C100.338 169.502 99.0705 172.15 98.5195 174.986C97.9684 177.822 98.1519 180.753 99.0527 183.498V183.54Z" fill="#FFB573"/>
<path d="M127.305 181.692C128.631 183.774 130.242 185.659 132.093 187.292C131.66 187.757 131.132 188.123 130.545 188.365C129.958 188.607 129.325 188.718 128.691 188.692L127.305 181.692Z" fill="#ED893E"/>
<path d="M125.975 195.02C126.448 194.973 126.917 194.884 127.375 194.754C127.41 194.746 127.444 194.731 127.474 194.709C127.504 194.688 127.53 194.661 127.549 194.63C127.569 194.598 127.582 194.564 127.588 194.527C127.594 194.491 127.593 194.454 127.585 194.418C127.565 194.344 127.518 194.28 127.453 194.238C127.388 194.197 127.31 194.181 127.235 194.194C126.027 194.54 124.755 194.593 123.524 194.35C122.292 194.106 121.135 193.573 120.151 192.794C120.094 192.741 120.019 192.711 119.941 192.711C119.863 192.711 119.788 192.741 119.731 192.794C119.676 192.853 119.646 192.931 119.646 193.011C119.646 193.091 119.676 193.169 119.731 193.228C120.6 193.926 121.6 194.444 122.672 194.752C123.744 195.06 124.867 195.151 125.975 195.02Z" fill="#263238"/>
<path d="M92.5987 165.55C91.0555 166.551 89.7748 167.907 88.8637 169.505C87.9527 171.103 87.438 172.896 87.3627 174.734C87.2979 175.432 87.4086 176.134 87.6847 176.778C87.8227 177.099 88.0428 177.378 88.323 177.587C88.6033 177.796 88.9336 177.927 89.2807 177.968C90.3447 177.968 91.1427 177.03 91.7167 176.134L94.4327 171.934C95.5509 170.564 96.4917 169.059 97.2327 167.454C98.1427 164.696 94.2647 164.5 92.5987 165.55Z" fill="#407BFF"/>
<path d="M96.3368 162.694C88.8888 171.276 85.5708 195.062 107.341 201.698C110.981 198.898 105.101 193.578 102.609 186.942C100.985 182.588 109.273 174.482 112.521 171.164C115.769 167.846 118.723 163.03 123.301 163.8C124.46 164.181 125.706 164.215 126.885 163.898C130.511 162.26 128.747 160.09 126.885 158.564C124.002 156.452 120.58 155.199 117.015 154.952C113.201 154.512 109.338 154.985 105.743 156.331C102.148 157.677 98.9239 159.858 96.3368 162.694Z" fill="#263238"/>
<path d="M101.013 187.6L100.411 186.956C100.411 186.256 100.411 186.256 112.563 182.434L112.983 183.834C108.783 185.136 101.993 187.292 101.461 187.558L101.167 186.942L101.013 187.6Z" fill="#407BFF"/>
<path d="M97.737 193.494C99.1078 195.469 101.199 196.826 103.561 197.274C106.697 197.834 107.915 194.95 106.823 192.15C105.815 189.644 102.959 186.312 99.935 187.04C99.4165 187.172 98.9291 187.405 98.5007 187.726C98.0723 188.047 97.7113 188.449 97.4383 188.909C97.1653 189.369 96.9856 189.879 96.9095 190.408C96.8335 190.938 96.8625 191.478 96.995 191.996C97.1419 192.539 97.394 193.048 97.737 193.494Z" fill="#FFB573"/>
<path d="M118.975 160.552C120.669 164.85 125.555 164.29 129.181 168.798C131.393 171.598 135.761 162.96 129.825 159.544C123.889 156.128 116.329 153.804 118.975 160.552Z" fill="#263238"/>
<path d="M113.837 178.738C113.959 178.759 114.084 178.737 114.191 178.676C114.299 178.614 114.381 178.518 114.425 178.402C115.587 175.84 119.031 175.21 119.059 175.196C119.135 175.183 119.208 175.154 119.274 175.112C119.339 175.07 119.396 175.016 119.44 174.952C119.484 174.888 119.515 174.816 119.532 174.741C119.548 174.665 119.549 174.586 119.535 174.51C119.501 174.356 119.41 174.221 119.28 174.133C119.149 174.044 118.99 174.009 118.835 174.034C118.667 174.034 114.733 174.86 113.347 177.94C113.314 178.01 113.295 178.086 113.291 178.163C113.287 178.24 113.298 178.317 113.324 178.39C113.35 178.463 113.39 178.53 113.442 178.587C113.494 178.644 113.557 178.691 113.627 178.724H113.837V178.738Z" fill="#263238"/>
<path d="M132.037 173.6C132.167 173.609 132.296 173.575 132.404 173.503C132.512 173.431 132.594 173.325 132.635 173.202C132.677 173.078 132.676 172.945 132.634 172.822C132.592 172.699 132.51 172.593 132.401 172.522C131.625 171.991 130.735 171.652 129.802 171.533C128.87 171.414 127.923 171.518 127.039 171.836C126.893 171.898 126.777 172.015 126.717 172.162C126.656 172.309 126.656 172.473 126.717 172.62C126.746 172.694 126.789 172.761 126.845 172.817C126.901 172.873 126.968 172.916 127.042 172.945C127.115 172.974 127.194 172.988 127.273 172.985C127.352 172.982 127.43 172.962 127.501 172.928C128.198 172.688 128.941 172.616 129.671 172.718C130.401 172.821 131.097 173.094 131.701 173.516C131.805 173.568 131.92 173.597 132.037 173.6Z" fill="#263238"/>
<path d="M189.591 250.236L181.401 254.898L172.875 273.238C172.875 273.238 181.107 278.474 187.589 274.232C194.071 269.99 189.591 250.236 189.591 250.236Z" fill="#263238"/>
<path d="M131.463 178.346C132.135 178.22 132.863 178.976 133.017 180.012C133.171 181.048 132.793 182 132.121 182.112C131.449 182.224 130.721 181.482 130.567 180.446C130.413 179.41 130.791 178.472 131.463 178.346Z" fill="#263238"/>
<path d="M133.535 177.324L131.169 178.486C132.597 179.494 133.535 177.324 133.535 177.324Z" fill="#263238"/>
<path d="M119.745 180.74C120.417 180.614 121.145 181.37 121.299 182.406C121.453 183.442 121.075 184.394 120.403 184.506C119.731 184.618 119.003 183.876 118.849 182.84C118.695 181.804 119.073 180.866 119.745 180.74Z" fill="#263238"/>
<path d="M121.817 179.718L119.451 180.88C120.879 181.888 121.817 179.718 121.817 179.718Z" fill="#263238"/>
<path d="M85.0106 160.16C85.1226 157.458 86.4106 154.21 84.7726 152.096C87.6986 154.462 87.1106 155.82 87.3626 156.506C87.1991 154.2 86.6649 151.936 85.7806 149.8C87.6643 151.308 88.9052 153.474 89.2526 155.862C88.9659 153.419 88.4119 151.016 87.6006 148.694C89.9827 150.899 91.422 153.938 91.6186 157.178C91.6186 155.694 91.6186 154.224 91.5206 152.74C92.111 154.186 92.5384 155.693 92.7946 157.234C92.9949 158.839 92.9287 160.466 92.5986 162.05C92.4208 163.627 91.644 165.075 90.4286 166.096C89.8119 166.584 89.0658 166.882 88.2822 166.951C87.4986 167.021 86.7117 166.86 86.0186 166.488C82.6586 164.416 84.9126 162.596 85.0106 160.16Z" fill="#263238"/>
<path d="M121.635 187.012C121.444 187.025 121.252 187.025 121.061 187.012L114.509 185.766C113.91 185.655 113.358 185.366 112.925 184.937C112.493 184.507 112.201 183.957 112.087 183.358C111.933 182.57 112.095 181.753 112.538 181.083C112.98 180.412 113.668 179.943 114.453 179.774L122.853 177.996C123.586 177.84 124.351 177.96 125.001 178.332C125.652 178.703 126.143 179.301 126.381 180.012L126.507 180.376C126.663 180.846 126.701 181.347 126.618 181.835C126.535 182.324 126.333 182.784 126.031 183.176L124.001 185.836C123.721 186.198 123.363 186.492 122.953 186.696C122.543 186.9 122.093 187.008 121.635 187.012ZM123.539 179.284C123.427 179.271 123.314 179.271 123.203 179.284L114.803 181.062C114.379 181.153 114.007 181.406 113.767 181.767C113.526 182.127 113.436 182.568 113.515 182.994C113.575 183.321 113.733 183.622 113.968 183.857C114.203 184.092 114.504 184.25 114.831 184.31L121.383 185.556C121.685 185.613 121.998 185.584 122.285 185.472C122.572 185.361 122.822 185.172 123.007 184.926L125.037 182.266C125.202 182.053 125.312 181.801 125.356 181.535C125.4 181.268 125.377 180.995 125.289 180.74L125.163 180.376C125.046 180.043 124.824 179.758 124.532 179.561C124.239 179.364 123.891 179.267 123.539 179.284Z" fill="#407BFF"/>
<path d="M132.961 183.638C132.652 183.634 132.346 183.587 132.051 183.498L128.859 182.504C128.38 182.353 127.945 182.089 127.591 181.733C127.238 181.377 126.976 180.94 126.829 180.46L126.731 180.096C126.515 179.38 126.569 178.609 126.884 177.93C127.199 177.251 127.752 176.712 128.439 176.414L134.963 173.936C135.699 173.625 136.528 173.615 137.271 173.908C138.014 174.201 138.613 174.774 138.939 175.504C139.194 176.057 139.275 176.676 139.17 177.276C139.065 177.876 138.779 178.43 138.351 178.864L135.187 182.658C134.903 182.965 134.559 183.211 134.176 183.379C133.793 183.548 133.379 183.636 132.961 183.638ZM136.153 175.098C135.927 175.098 135.704 175.141 135.495 175.224L128.971 177.716C128.606 177.879 128.313 178.169 128.145 178.532C127.978 178.895 127.948 179.307 128.061 179.69L128.173 180.054C128.251 180.313 128.392 180.549 128.582 180.742C128.772 180.935 129.007 181.078 129.265 181.16L132.457 182.154C132.751 182.251 133.067 182.261 133.367 182.184C133.667 182.108 133.939 181.946 134.151 181.72L137.315 177.94C137.555 177.702 137.718 177.396 137.78 177.064C137.843 176.731 137.802 176.387 137.665 176.078C137.535 175.786 137.322 175.538 137.054 175.364C136.786 175.19 136.473 175.097 136.153 175.098Z" fill="#407BFF"/>
<path d="M90.4286 316.974C90.6494 319.939 91.3836 322.843 92.5986 325.556C95.2026 330.554 100.999 333.284 106.599 333.788C112.199 334.292 117.799 332.906 123.273 331.534C122.629 303.842 121.985 276.08 118.415 248.612C117.015 237.804 112.031 220.752 108.755 214.69C108.755 214.69 84.7306 216.818 78.9486 222.376C72.7466 228.34 80.3486 238.644 81.2586 246.176C84.3013 269.78 87.358 293.379 90.4286 316.974Z" fill="#263238"/>
<path d="M147.619 295.974L150.069 318.85C150.359 321.617 149.579 324.39 147.889 326.6C146.2 328.81 143.729 330.29 140.983 330.736L133.983 331.856C133.241 311.486 132.793 275.856 132.793 263.06C132.793 245.056 128.929 230.86 126.381 220.752C132.163 222.152 137.581 224.672 141.543 225.974C143.937 226.8 147.675 233.198 150.293 240.674C157.419 252.728 148.137 277.984 147.619 295.974Z" fill="#263238"/>
<path d="M51.3545 275.044L72.1025 275.52L71.4165 273.98C70.8605 272.738 70.6731 271.363 70.8766 270.017C71.0801 268.672 71.666 267.414 72.5645 266.392C80.1245 257.824 99.1645 235.76 99.0385 231.504C98.7305 225.456 92.3605 221.354 85.1505 221.494C79.8305 221.606 65.0325 244.86 56.0165 256.396C48.0505 266.616 51.3545 275.044 51.3545 275.044Z" fill="#263238"/>
<path d="M66.5589 276.36C76.91 284.604 86.181 294.12 94.1529 304.682L98.4369 309.498L90.7369 314.538C90.7369 314.538 66.3769 297.976 60.6929 291.69C57.229 287.804 54.73 283.157 53.3989 278.124L66.5589 276.36Z" fill="#FFB573"/>
<path d="M77.7167 283.836L71.9067 275.59L50.9067 273.224C50.9067 273.224 46.9027 282.478 55.7227 287.854C62.3307 291.886 77.7167 283.836 77.7167 283.836Z" fill="#263238"/>
<path d="M87.9367 303.296L102.581 307.832L92.4167 315.49C92.4167 315.49 84.9127 312.41 84.3247 308.028L87.9367 303.296Z" fill="#FFB573"/>
<path d="M109.259 314.3L101.811 321.944L92.4028 315.49L102.553 307.832L109.259 314.3Z" fill="#FFB573"/>
</svg>
